<?xml version="1.0" encoding="utf-8" standalone="no"?>
<!DOCTYPE svg PUBLIC "-//W3C//DTD SVG 1.1//EN"
  "http://www.w3.org/Graphics/SVG/1.1/DTD/svg11.dtd">
<svg xmlns:xlink="http://www.w3.org/1999/xlink" width="334.820312pt" height="320.703224pt" viewBox="0 0 334.820312 320.703224" xmlns="http://www.w3.org/2000/svg" version="1.1">
 <metadata>
  <rdf:RDF xmlns:dc="http://purl.org/dc/elements/1.1/" xmlns:cc="http://creativecommons.org/ns#" xmlns:rdf="http://www.w3.org/1999/02/22-rdf-syntax-ns#">
   <cc:Work>
    <dc:type rdf:resource="http://purl.org/dc/dcmitype/StillImage"/>
    <dc:date>2025-06-05T17:15:38.222451</dc:date>
    <dc:format>image/svg+xml</dc:format>
    <dc:creator>
     <cc:Agent>
      <dc:title>Matplotlib v3.10.1, https://matplotlib.org/</dc:title>
     </cc:Agent>
    </dc:creator>
   </cc:Work>
  </rdf:RDF>
 </metadata>
 <defs>
  <style type="text/css">*{stroke-linejoin: round; stroke-linecap: butt}</style>
 </defs>
 <g id="figure_1">
  <g id="patch_1">
   <path d="M 0 320.703224 
L 334.820312 320.703224 
L 334.820312 0 
L 0 0 
z
" style="fill: #ffffff"/>
  </g>
  <g id="axes_1">
   <g id="patch_2">
    <path d="M 48.620313 278.307911 
L 327.620313 278.307911 
L 327.620313 7.2 
L 48.620313 7.2 
z
" style="fill: #ffffff"/>
   </g>
   <g id="matplotlib.axis_1">
    <g id="xtick_1">
     <g id="line2d_1">
      <defs>
       <path id="m1e228436b8" d="M 0 0 
L 0 3.5 
" style="stroke: #000000; stroke-width: 0.8"/>
      </defs>
      <g>
       <use xlink:href="#m1e228436b8" x="56.512401" y="278.307911" style="stroke: #000000; stroke-width: 0.8"/>
      </g>
     </g>
     <g id="text_1">
      <!-- 0.0 -->
      <g transform="translate(48.560839 292.906349) scale(0.1 -0.1)">
       <defs>
        <path id="DejaVuSans-30" d="M 2034 4250 
Q 1547 4250 1301 3770 
Q 1056 3291 1056 2328 
Q 1056 1369 1301 889 
Q 1547 409 2034 409 
Q 2525 409 2770 889 
Q 3016 1369 3016 2328 
Q 3016 3291 2770 3770 
Q 2525 4250 2034 4250 
z
M 2034 4750 
Q 2819 4750 3233 4129 
Q 3647 3509 3647 2328 
Q 3647 1150 3233 529 
Q 2819 -91 2034 -91 
Q 1250 -91 836 529 
Q 422 1150 422 2328 
Q 422 3509 836 4129 
Q 1250 4750 2034 4750 
z
" transform="scale(0.015625)"/>
        <path id="DejaVuSans-2e" d="M 684 794 
L 1344 794 
L 1344 0 
L 684 0 
L 684 794 
z
" transform="scale(0.015625)"/>
       </defs>
       <use xlink:href="#DejaVuSans-30"/>
       <use xlink:href="#DejaVuSans-2e" transform="translate(63.623047 0)"/>
       <use xlink:href="#DejaVuSans-30" transform="translate(95.410156 0)"/>
      </g>
     </g>
    </g>
    <g id="xtick_2">
     <g id="line2d_2">
      <g>
       <use xlink:href="#m1e228436b8" x="95.972844" y="278.307911" style="stroke: #000000; stroke-width: 0.8"/>
      </g>
     </g>
     <g id="text_2">
      <!-- 0.5 -->
      <g transform="translate(88.021281 292.906349) scale(0.1 -0.1)">
       <defs>
        <path id="DejaVuSans-35" d="M 691 4666 
L 3169 4666 
L 3169 4134 
L 1269 4134 
L 1269 2991 
Q 1406 3038 1543 3061 
Q 1681 3084 1819 3084 
Q 2600 3084 3056 2656 
Q 3513 2228 3513 1497 
Q 3513 744 3044 326 
Q 2575 -91 1722 -91 
Q 1428 -91 1123 -41 
Q 819 9 494 109 
L 494 744 
Q 775 591 1075 516 
Q 1375 441 1709 441 
Q 2250 441 2565 725 
Q 2881 1009 2881 1497 
Q 2881 1984 2565 2268 
Q 2250 2553 1709 2553 
Q 1456 2553 1204 2497 
Q 953 2441 691 2322 
L 691 4666 
z
" transform="scale(0.015625)"/>
       </defs>
       <use xlink:href="#DejaVuSans-30"/>
       <use xlink:href="#DejaVuSans-2e" transform="translate(63.623047 0)"/>
       <use xlink:href="#DejaVuSans-35" transform="translate(95.410156 0)"/>
      </g>
     </g>
    </g>
    <g id="xtick_3">
     <g id="line2d_3">
      <g>
       <use xlink:href="#m1e228436b8" x="135.433286" y="278.307911" style="stroke: #000000; stroke-width: 0.8"/>
      </g>
     </g>
     <g id="text_3">
      <!-- 1.0 -->
      <g transform="translate(127.481724 292.906349) scale(0.1 -0.1)">
       <defs>
        <path id="DejaVuSans-31" d="M 794 531 
L 1825 531 
L 1825 4091 
L 703 3866 
L 703 4441 
L 1819 4666 
L 2450 4666 
L 2450 531 
L 3481 531 
L 3481 0 
L 794 0 
L 794 531 
z
" transform="scale(0.015625)"/>
       </defs>
       <use xlink:href="#DejaVuSans-31"/>
       <use xlink:href="#DejaVuSans-2e" transform="translate(63.623047 0)"/>
       <use xlink:href="#DejaVuSans-30" transform="translate(95.410156 0)"/>
      </g>
     </g>
    </g>
    <g id="xtick_4">
     <g id="line2d_4">
      <g>
       <use xlink:href="#m1e228436b8" x="174.893729" y="278.307911" style="stroke: #000000; stroke-width: 0.8"/>
      </g>
     </g>
     <g id="text_4">
      <!-- 1.5 -->
      <g transform="translate(166.942167 292.906349) scale(0.1 -0.1)">
       <use xlink:href="#DejaVuSans-31"/>
       <use xlink:href="#DejaVuSans-2e" transform="translate(63.623047 0)"/>
       <use xlink:href="#DejaVuSans-35" transform="translate(95.410156 0)"/>
      </g>
     </g>
    </g>
    <g id="xtick_5">
     <g id="line2d_5">
      <g>
       <use xlink:href="#m1e228436b8" x="214.354172" y="278.307911" style="stroke: #000000; stroke-width: 0.8"/>
      </g>
     </g>
     <g id="text_5">
      <!-- 2.0 -->
      <g transform="translate(206.402609 292.906349) scale(0.1 -0.1)">
       <defs>
        <path id="DejaVuSans-32" d="M 1228 531 
L 3431 531 
L 3431 0 
L 469 0 
L 469 531 
Q 828 903 1448 1529 
Q 2069 2156 2228 2338 
Q 2531 2678 2651 2914 
Q 2772 3150 2772 3378 
Q 2772 3750 2511 3984 
Q 2250 4219 1831 4219 
Q 1534 4219 1204 4116 
Q 875 4013 500 3803 
L 500 4441 
Q 881 4594 1212 4672 
Q 1544 4750 1819 4750 
Q 2544 4750 2975 4387 
Q 3406 4025 3406 3419 
Q 3406 3131 3298 2873 
Q 3191 2616 2906 2266 
Q 2828 2175 2409 1742 
Q 1991 1309 1228 531 
z
" transform="scale(0.015625)"/>
       </defs>
       <use xlink:href="#DejaVuSans-32"/>
       <use xlink:href="#DejaVuSans-2e" transform="translate(63.623047 0)"/>
       <use xlink:href="#DejaVuSans-30" transform="translate(95.410156 0)"/>
      </g>
     </g>
    </g>
    <g id="xtick_6">
     <g id="line2d_6">
      <g>
       <use xlink:href="#m1e228436b8" x="253.814614" y="278.307911" style="stroke: #000000; stroke-width: 0.8"/>
      </g>
     </g>
     <g id="text_6">
      <!-- 2.5 -->
      <g transform="translate(245.863052 292.906349) scale(0.1 -0.1)">
       <use xlink:href="#DejaVuSans-32"/>
       <use xlink:href="#DejaVuSans-2e" transform="translate(63.623047 0)"/>
       <use xlink:href="#DejaVuSans-35" transform="translate(95.410156 0)"/>
      </g>
     </g>
    </g>
    <g id="xtick_7">
     <g id="line2d_7">
      <g>
       <use xlink:href="#m1e228436b8" x="293.275057" y="278.307911" style="stroke: #000000; stroke-width: 0.8"/>
      </g>
     </g>
     <g id="text_7">
      <!-- 3.0 -->
      <g transform="translate(285.323495 292.906349) scale(0.1 -0.1)">
       <defs>
        <path id="DejaVuSans-33" d="M 2597 2516 
Q 3050 2419 3304 2112 
Q 3559 1806 3559 1356 
Q 3559 666 3084 287 
Q 2609 -91 1734 -91 
Q 1441 -91 1130 -33 
Q 819 25 488 141 
L 488 750 
Q 750 597 1062 519 
Q 1375 441 1716 441 
Q 2309 441 2620 675 
Q 2931 909 2931 1356 
Q 2931 1769 2642 2001 
Q 2353 2234 1838 2234 
L 1294 2234 
L 1294 2753 
L 1863 2753 
Q 2328 2753 2575 2939 
Q 2822 3125 2822 3475 
Q 2822 3834 2567 4026 
Q 2313 4219 1838 4219 
Q 1578 4219 1281 4162 
Q 984 4106 628 3988 
L 628 4550 
Q 988 4650 1302 4700 
Q 1616 4750 1894 4750 
Q 2613 4750 3031 4423 
Q 3450 4097 3450 3541 
Q 3450 3153 3228 2886 
Q 3006 2619 2597 2516 
z
" transform="scale(0.015625)"/>
       </defs>
       <use xlink:href="#DejaVuSans-33"/>
       <use xlink:href="#DejaVuSans-2e" transform="translate(63.623047 0)"/>
       <use xlink:href="#DejaVuSans-30" transform="translate(95.410156 0)"/>
      </g>
     </g>
    </g>
    <g id="text_8">
     <!-- $ \mathit{Z^{\prime}} \,/\, \mathrm{M\Omega}$ -->
     <g transform="translate(163.595313 310.383693) scale(0.15 -0.15)">
      <defs>
       <path id="DejaVuSans-Oblique-5a" d="M 838 4666 
L 4500 4666 
L 4409 4184 
L 794 531 
L 3769 531 
L 3669 0 
L -141 0 
L -50 481 
L 3566 4134 
L 738 4134 
L 838 4666 
z
" transform="scale(0.015625)"/>
       <path id="Cmsy10-30" d="M 225 347 
Q 184 359 184 409 
L 966 3316 
Q 1003 3434 1093 3506 
Q 1184 3578 1300 3578 
Q 1450 3578 1564 3479 
Q 1678 3381 1678 3231 
Q 1678 3166 1644 3084 
L 488 319 
Q 466 275 428 275 
Q 394 275 320 306 
Q 247 338 225 347 
z
" transform="scale(0.015625)"/>
       <path id="DejaVuSans-2f" d="M 1625 4666 
L 2156 4666 
L 531 -594 
L 0 -594 
L 1625 4666 
z
" transform="scale(0.015625)"/>
       <path id="DejaVuSans-4d" d="M 628 4666 
L 1569 4666 
L 2759 1491 
L 3956 4666 
L 4897 4666 
L 4897 0 
L 4281 0 
L 4281 4097 
L 3078 897 
L 2444 897 
L 1241 4097 
L 1241 0 
L 628 0 
L 628 4666 
z
" transform="scale(0.015625)"/>
       <path id="DejaVuSans-3a9" d="M 4647 556 
L 4647 0 
L 2772 0 
L 2772 556 
Q 3325 859 3634 1378 
Q 3944 1897 3944 2528 
Q 3944 3278 3531 3731 
Q 3119 4184 2444 4184 
Q 1769 4184 1355 3729 
Q 941 3275 941 2528 
Q 941 1897 1250 1378 
Q 1563 859 2119 556 
L 2119 0 
L 244 0 
L 244 556 
L 1241 556 
Q 747 991 519 1456 
Q 294 1922 294 2497 
Q 294 3491 894 4106 
Q 1491 4722 2444 4722 
Q 3391 4722 3994 4106 
Q 4594 3494 4594 2528 
Q 4594 1922 4372 1459 
Q 4150 997 3647 556 
L 4647 556 
z
" transform="scale(0.015625)"/>
      </defs>
      <use xlink:href="#DejaVuSans-Oblique-5a" transform="translate(0 0.584375)"/>
      <use xlink:href="#Cmsy10-30" transform="translate(75.52263 38.865625) scale(0.7)"/>
      <use xlink:href="#DejaVuSans-2f" transform="translate(113.735846 0.584375)"/>
      <use xlink:href="#DejaVuSans-4d" transform="translate(163.662928 0.584375)"/>
      <use xlink:href="#DejaVuSans-3a9" transform="translate(249.942225 0.584375)"/>
     </g>
    </g>
   </g>
   <g id="matplotlib.axis_2">
    <g id="ytick_1">
     <g id="line2d_8">
      <defs>
       <path id="m2eb3642669" d="M 0 0 
L -3.5 0 
" style="stroke: #000000; stroke-width: 0.8"/>
      </defs>
      <g>
       <use xlink:href="#m2eb3642669" x="48.620313" y="278.307911" style="stroke: #000000; stroke-width: 0.8"/>
      </g>
     </g>
     <g id="text_9">
      <!-- 0.0 -->
      <g transform="translate(25.717188 282.10713) scale(0.1 -0.1)">
       <use xlink:href="#DejaVuSans-30"/>
       <use xlink:href="#DejaVuSans-2e" transform="translate(63.623047 0)"/>
       <use xlink:href="#DejaVuSans-30" transform="translate(95.410156 0)"/>
      </g>
     </g>
    </g>
    <g id="ytick_2">
     <g id="line2d_9">
      <g>
       <use xlink:href="#m2eb3642669" x="48.620313" y="238.847469" style="stroke: #000000; stroke-width: 0.8"/>
      </g>
     </g>
     <g id="text_10">
      <!-- 0.5 -->
      <g transform="translate(25.717188 242.646688) scale(0.1 -0.1)">
       <use xlink:href="#DejaVuSans-30"/>
       <use xlink:href="#DejaVuSans-2e" transform="translate(63.623047 0)"/>
       <use xlink:href="#DejaVuSans-35" transform="translate(95.410156 0)"/>
      </g>
     </g>
    </g>
    <g id="ytick_3">
     <g id="line2d_10">
      <g>
       <use xlink:href="#m2eb3642669" x="48.620313" y="199.387026" style="stroke: #000000; stroke-width: 0.8"/>
      </g>
     </g>
     <g id="text_11">
      <!-- 1.0 -->
      <g transform="translate(25.717188 203.186245) scale(0.1 -0.1)">
       <use xlink:href="#DejaVuSans-31"/>
       <use xlink:href="#DejaVuSans-2e" transform="translate(63.623047 0)"/>
       <use xlink:href="#DejaVuSans-30" transform="translate(95.410156 0)"/>
      </g>
     </g>
    </g>
    <g id="ytick_4">
     <g id="line2d_11">
      <g>
       <use xlink:href="#m2eb3642669" x="48.620313" y="159.926583" style="stroke: #000000; stroke-width: 0.8"/>
      </g>
     </g>
     <g id="text_12">
      <!-- 1.5 -->
      <g transform="translate(25.717188 163.725802) scale(0.1 -0.1)">
       <use xlink:href="#DejaVuSans-31"/>
       <use xlink:href="#DejaVuSans-2e" transform="translate(63.623047 0)"/>
       <use xlink:href="#DejaVuSans-35" transform="translate(95.410156 0)"/>
      </g>
     </g>
    </g>
    <g id="ytick_5">
     <g id="line2d_12">
      <g>
       <use xlink:href="#m2eb3642669" x="48.620313" y="120.466141" style="stroke: #000000; stroke-width: 0.8"/>
      </g>
     </g>
     <g id="text_13">
      <!-- 2.0 -->
      <g transform="translate(25.717188 124.265359) scale(0.1 -0.1)">
       <use xlink:href="#DejaVuSans-32"/>
       <use xlink:href="#DejaVuSans-2e" transform="translate(63.623047 0)"/>
       <use xlink:href="#DejaVuSans-30" transform="translate(95.410156 0)"/>
      </g>
     </g>
    </g>
    <g id="ytick_6">
     <g id="line2d_13">
      <g>
       <use xlink:href="#m2eb3642669" x="48.620313" y="81.005698" style="stroke: #000000; stroke-width: 0.8"/>
      </g>
     </g>
     <g id="text_14">
      <!-- 2.5 -->
      <g transform="translate(25.717188 84.804917) scale(0.1 -0.1)">
       <use xlink:href="#DejaVuSans-32"/>
       <use xlink:href="#DejaVuSans-2e" transform="translate(63.623047 0)"/>
       <use xlink:href="#DejaVuSans-35" transform="translate(95.410156 0)"/>
      </g>
     </g>
    </g>
    <g id="ytick_7">
     <g id="line2d_14">
      <g>
       <use xlink:href="#m2eb3642669" x="48.620313" y="41.545255" style="stroke: #000000; stroke-width: 0.8"/>
      </g>
     </g>
     <g id="text_15">
      <!-- 3.0 -->
      <g transform="translate(25.717188 45.344474) scale(0.1 -0.1)">
       <use xlink:href="#DejaVuSans-33"/>
       <use xlink:href="#DejaVuSans-2e" transform="translate(63.623047 0)"/>
       <use xlink:href="#DejaVuSans-30" transform="translate(95.410156 0)"/>
      </g>
     </g>
    </g>
    <g id="text_16">
     <!-- $ \mathit{-Z^{\prime\prime}} \,/\, \mathrm{M\Omega}$ -->
     <g transform="translate(18.597656 175.003956) rotate(-90) scale(0.15 -0.15)">
      <defs>
       <path id="DejaVuSans-2212" d="M 678 2272 
L 4684 2272 
L 4684 1741 
L 678 1741 
L 678 2272 
z
" transform="scale(0.015625)"/>
      </defs>
      <use xlink:href="#DejaVuSans-2212" transform="translate(0 0.584375)"/>
      <use xlink:href="#DejaVuSans-Oblique-5a" transform="translate(83.789062 0.584375)"/>
      <use xlink:href="#Cmsy10-30" transform="translate(159.311693 38.865625) scale(0.7)"/>
      <use xlink:href="#Cmsy10-30" transform="translate(178.554857 38.865625) scale(0.7)"/>
      <use xlink:href="#DejaVuSans-2f" transform="translate(216.768072 0.584375)"/>
      <use xlink:href="#DejaVuSans-4d" transform="translate(266.695155 0.584375)"/>
      <use xlink:href="#DejaVuSans-3a9" transform="translate(352.974451 0.584375)"/>
     </g>
    </g>
   </g>
   <g id="line2d_15">
    <defs>
     <path id="m135eaadafe" d="M 0 3 
C 0.795609 3 1.55874 2.683901 2.12132 2.12132 
C 2.683901 1.55874 3 0.795609 3 0 
C 3 -0.795609 2.683901 -1.55874 2.12132 -2.12132 
C 1.55874 -2.683901 0.795609 -3 0 -3 
C -0.795609 -3 -1.55874 -2.683901 -2.12132 -2.12132 
C -2.683901 -1.55874 -3 -0.795609 -3 0 
C -3 0.795609 -2.683901 1.55874 -2.12132 2.12132 
C -1.55874 2.683901 -0.795609 3 0 3 
z
" style="stroke: #000000"/>
    </defs>
    <g clip-path="url(#pb57c7e04a2)">
     <use xlink:href="#m135eaadafe" x="58.259891" y="274.0216" style="fill: #808080; stroke: #000000"/>
     <use xlink:href="#m135eaadafe" x="59.091046" y="272.570174" style="fill: #808080; stroke: #000000"/>
     <use xlink:href="#m135eaadafe" x="60.479501" y="270.861608" style="fill: #808080; stroke: #000000"/>
     <use xlink:href="#m135eaadafe" x="62.24287" y="268.611534" style="fill: #808080; stroke: #000000"/>
     <use xlink:href="#m135eaadafe" x="64.641647" y="266.176588" style="fill: #808080; stroke: #000000"/>
     <use xlink:href="#m135eaadafe" x="67.824763" y="263.139002" style="fill: #808080; stroke: #000000"/>
     <use xlink:href="#m135eaadafe" x="71.304858" y="259.564043" style="fill: #808080; stroke: #000000"/>
     <use xlink:href="#m135eaadafe" x="75.961822" y="255.237285" style="fill: #808080; stroke: #000000"/>
     <use xlink:href="#m135eaadafe" x="81.711524" y="249.674862" style="fill: #808080; stroke: #000000"/>
     <use xlink:href="#m135eaadafe" x="89.409625" y="243.17991" style="fill: #808080; stroke: #000000"/>
     <use xlink:href="#m135eaadafe" x="99.393669" y="235.166993" style="fill: #808080; stroke: #000000"/>
     <use xlink:href="#m135eaadafe" x="113.785682" y="227.390208" style="fill: #808080; stroke: #000000"/>
     <use xlink:href="#m135eaadafe" x="131.952323" y="221.284415" style="fill: #808080; stroke: #000000"/>
     <use xlink:href="#m135eaadafe" x="152.869278" y="219.938419" style="fill: #808080; stroke: #000000"/>
     <use xlink:href="#m135eaadafe" x="173.033564" y="224.606669" style="fill: #808080; stroke: #000000"/>
     <use xlink:href="#m135eaadafe" x="188.906132" y="232.795973" style="fill: #808080; stroke: #000000"/>
     <use xlink:href="#m135eaadafe" x="200.086065" y="241.965396" style="fill: #808080; stroke: #000000"/>
     <use xlink:href="#m135eaadafe" x="207.172371" y="249.740998" style="fill: #808080; stroke: #000000"/>
     <use xlink:href="#m135eaadafe" x="212.717353" y="255.738117" style="fill: #808080; stroke: #000000"/>
     <use xlink:href="#m135eaadafe" x="216.472408" y="260.807126" style="fill: #808080; stroke: #000000"/>
     <use xlink:href="#m135eaadafe" x="219.507706" y="264.335758" style="fill: #808080; stroke: #000000"/>
     <use xlink:href="#m135eaadafe" x="221.853234" y="266.883955" style="fill: #808080; stroke: #000000"/>
     <use xlink:href="#m135eaadafe" x="223.710243" y="268.756906" style="fill: #808080; stroke: #000000"/>
     <use xlink:href="#m135eaadafe" x="225.389679" y="270.011274" style="fill: #808080; stroke: #000000"/>
     <use xlink:href="#m135eaadafe" x="226.904171" y="270.738744" style="fill: #808080; stroke: #000000"/>
     <use xlink:href="#m135eaadafe" x="228.406035" y="271.111408" style="fill: #808080; stroke: #000000"/>
     <use xlink:href="#m135eaadafe" x="229.982875" y="271.179998" style="fill: #808080; stroke: #000000"/>
     <use xlink:href="#m135eaadafe" x="231.489474" y="270.961948" style="fill: #808080; stroke: #000000"/>
     <use xlink:href="#m135eaadafe" x="233.089201" y="270.476016" style="fill: #808080; stroke: #000000"/>
     <use xlink:href="#m135eaadafe" x="234.849137" y="269.579577" style="fill: #808080; stroke: #000000"/>
     <use xlink:href="#m135eaadafe" x="236.71088" y="268.449667" style="fill: #808080; stroke: #000000"/>
     <use xlink:href="#m135eaadafe" x="238.72573" y="266.862252" style="fill: #808080; stroke: #000000"/>
     <use xlink:href="#m135eaadafe" x="241.514794" y="264.539453" style="fill: #808080; stroke: #000000"/>
     <use xlink:href="#m135eaadafe" x="244.471171" y="261.68812" style="fill: #808080; stroke: #000000"/>
     <use xlink:href="#m135eaadafe" x="247.238137" y="257.524096" style="fill: #808080; stroke: #000000"/>
     <use xlink:href="#m135eaadafe" x="251.62456" y="252.23766" style="fill: #808080; stroke: #000000"/>
     <use xlink:href="#m135eaadafe" x="256.913048" y="245.473745" style="fill: #808080; stroke: #000000"/>
     <use xlink:href="#m135eaadafe" x="263.648157" y="236.702557" style="fill: #808080; stroke: #000000"/>
     <use xlink:href="#m135eaadafe" x="272.357076" y="225.340396" style="fill: #808080; stroke: #000000"/>
     <use xlink:href="#m135eaadafe" x="283.540955" y="210.631674" style="fill: #808080; stroke: #000000"/>
     <use xlink:href="#m135eaadafe" x="297.622809" y="191.674088" style="fill: #808080; stroke: #000000"/>
     <use xlink:href="#m135eaadafe" x="314.793626" y="167.145477" style="fill: #808080; stroke: #000000"/>
    </g>
   </g>
   <g id="line2d_16">
    <defs>
     <path id="mec02bca762" d="M 0 -3 
L -0.673542 -0.927051 
L -2.85317 -0.927051 
L -1.089814 0.354102 
L -1.763356 2.427051 
L -0 1.145898 
L 1.763356 2.427051 
L 1.089814 0.354102 
L 2.85317 -0.927051 
L 0.673542 -0.927051 
z
" style="stroke: #8b0000; stroke-linejoin: bevel"/>
    </defs>
    <g clip-path="url(#pb57c7e04a2)">
     <use xlink:href="#mec02bca762" x="58.293835" y="274.149455" style="fill-opacity: 0; stroke: #8b0000; stroke-linejoin: bevel"/>
     <use xlink:href="#mec02bca762" x="59.167334" y="272.679705" style="fill-opacity: 0; stroke: #8b0000; stroke-linejoin: bevel"/>
     <use xlink:href="#mec02bca762" x="60.461563" y="270.832987" style="fill-opacity: 0; stroke: #8b0000; stroke-linejoin: bevel"/>
     <use xlink:href="#mec02bca762" x="62.297428" y="268.619953" style="fill-opacity: 0; stroke: #8b0000; stroke-linejoin: bevel"/>
     <use xlink:href="#mec02bca762" x="64.733283" y="266.071215" style="fill-opacity: 0; stroke: #8b0000; stroke-linejoin: bevel"/>
     <use xlink:href="#mec02bca762" x="67.749898" y="263.137139" style="fill-opacity: 0; stroke: #8b0000; stroke-linejoin: bevel"/>
     <use xlink:href="#mec02bca762" x="71.357703" y="259.594745" style="fill-opacity: 0; stroke: #8b0000; stroke-linejoin: bevel"/>
     <use xlink:href="#mec02bca762" x="75.779654" y="255.094544" style="fill-opacity: 0; stroke: #8b0000; stroke-linejoin: bevel"/>
     <use xlink:href="#mec02bca762" x="81.541052" y="249.356515" style="fill-opacity: 0; stroke: #8b0000; stroke-linejoin: bevel"/>
     <use xlink:href="#mec02bca762" x="89.423985" y="242.399053" style="fill-opacity: 0; stroke: #8b0000; stroke-linejoin: bevel"/>
     <use xlink:href="#mec02bca762" x="100.290241" y="234.763408" style="fill-opacity: 0; stroke: #8b0000; stroke-linejoin: bevel"/>
     <use xlink:href="#mec02bca762" x="114.710511" y="227.667814" style="fill-opacity: 0; stroke: #8b0000; stroke-linejoin: bevel"/>
     <use xlink:href="#mec02bca762" x="132.399858" y="222.850066" style="fill-opacity: 0; stroke: #8b0000; stroke-linejoin: bevel"/>
     <use xlink:href="#mec02bca762" x="151.842596" y="221.852878" style="fill-opacity: 0; stroke: #8b0000; stroke-linejoin: bevel"/>
     <use xlink:href="#mec02bca762" x="170.687127" y="225.082702" style="fill-opacity: 0; stroke: #8b0000; stroke-linejoin: bevel"/>
     <use xlink:href="#mec02bca762" x="186.858122" y="231.530799" style="fill-opacity: 0; stroke: #8b0000; stroke-linejoin: bevel"/>
     <use xlink:href="#mec02bca762" x="199.403107" y="239.46809" style="fill-opacity: 0; stroke: #8b0000; stroke-linejoin: bevel"/>
     <use xlink:href="#mec02bca762" x="208.466925" y="247.363259" style="fill-opacity: 0; stroke: #8b0000; stroke-linejoin: bevel"/>
     <use xlink:href="#mec02bca762" x="214.753546" y="254.311351" style="fill-opacity: 0; stroke: #8b0000; stroke-linejoin: bevel"/>
     <use xlink:href="#mec02bca762" x="219.047252" y="259.973104" style="fill-opacity: 0; stroke: #8b0000; stroke-linejoin: bevel"/>
     <use xlink:href="#mec02bca762" x="221.995238" y="264.35305" style="fill-opacity: 0; stroke: #8b0000; stroke-linejoin: bevel"/>
     <use xlink:href="#mec02bca762" x="224.06621" y="267.608773" style="fill-opacity: 0; stroke: #8b0000; stroke-linejoin: bevel"/>
     <use xlink:href="#mec02bca762" x="225.579694" y="269.93543" style="fill-opacity: 0; stroke: #8b0000; stroke-linejoin: bevel"/>
     <use xlink:href="#mec02bca762" x="226.751849" y="271.514805" style="fill-opacity: 0; stroke: #8b0000; stroke-linejoin: bevel"/>
     <use xlink:href="#mec02bca762" x="227.730712" y="272.493033" style="fill-opacity: 0; stroke: #8b0000; stroke-linejoin: bevel"/>
     <use xlink:href="#mec02bca762" x="228.622892" y="272.977554" style="fill-opacity: 0; stroke: #8b0000; stroke-linejoin: bevel"/>
     <use xlink:href="#mec02bca762" x="229.510874" y="273.03922" style="fill-opacity: 0; stroke: #8b0000; stroke-linejoin: bevel"/>
     <use xlink:href="#mec02bca762" x="230.464993" y="272.716287" style="fill-opacity: 0; stroke: #8b0000; stroke-linejoin: bevel"/>
     <use xlink:href="#mec02bca762" x="231.551412" y="272.017885" style="fill-opacity: 0; stroke: #8b0000; stroke-linejoin: bevel"/>
     <use xlink:href="#mec02bca762" x="232.838704" y="270.926145" style="fill-opacity: 0; stroke: #8b0000; stroke-linejoin: bevel"/>
     <use xlink:href="#mec02bca762" x="234.402999" y="269.396896" style="fill-opacity: 0; stroke: #8b0000; stroke-linejoin: bevel"/>
     <use xlink:href="#mec02bca762" x="236.333679" y="267.358043" style="fill-opacity: 0; stroke: #8b0000; stroke-linejoin: bevel"/>
     <use xlink:href="#mec02bca762" x="238.737693" y="264.70792" style="fill-opacity: 0; stroke: #8b0000; stroke-linejoin: bevel"/>
     <use xlink:href="#mec02bca762" x="241.747791" y="261.3084" style="fill-opacity: 0; stroke: #8b0000; stroke-linejoin: bevel"/>
     <use xlink:href="#mec02bca762" x="245.527566" y="256.980674" style="fill-opacity: 0; stroke: #8b0000; stroke-linejoin: bevel"/>
     <use xlink:href="#mec02bca762" x="250.282241" y="251.494078" style="fill-opacity: 0; stroke: #8b0000; stroke-linejoin: bevel"/>
     <use xlink:href="#mec02bca762" x="256.269678" y="244.55416" style="fill-opacity: 0; stroke: #8b0000; stroke-linejoin: bevel"/>
     <use xlink:href="#mec02bca762" x="263.812541" y="235.789169" style="fill-opacity: 0; stroke: #8b0000; stroke-linejoin: bevel"/>
     <use xlink:href="#mec02bca762" x="273.318976" y="224.726447" style="fill-opacity: 0; stroke: #8b0000; stroke-linejoin: bevel"/>
     <use xlink:href="#mec02bca762" x="285.304488" y="210.767256" style="fill-opacity: 0; stroke: #8b0000; stroke-linejoin: bevel"/>
     <use xlink:href="#mec02bca762" x="300.413172" y="193.162276" style="fill-opacity: 0; stroke: #8b0000; stroke-linejoin: bevel"/>
     <use xlink:href="#mec02bca762" x="319.462526" y="170.959543" style="fill-opacity: 0; stroke: #8b0000; stroke-linejoin: bevel"/>
    </g>
   </g>
   <g id="patch_3">
    <path d="M 48.620313 278.307911 
L 48.620313 7.2 
" style="fill: none; stroke: #000000; stroke-width: 0.8; stroke-linejoin: miter; stroke-linecap: square"/>
   </g>
   <g id="patch_4">
    <path d="M 327.620313 278.307911 
L 327.620313 7.2 
" style="fill: none; stroke: #000000; stroke-width: 0.8; stroke-linejoin: miter; stroke-linecap: square"/>
   </g>
   <g id="patch_5">
    <path d="M 48.620312 278.307911 
L 327.620313 278.307911 
" style="fill: none; stroke: #000000; stroke-width: 0.8; stroke-linejoin: miter; stroke-linecap: square"/>
   </g>
   <g id="patch_6">
    <path d="M 48.620312 7.2 
L 327.620313 7.2 
" style="fill: none; stroke: #000000; stroke-width: 0.8; stroke-linejoin: miter; stroke-linecap: square"/>
   </g>
   <g id="legend_1">
    <g id="patch_7">
     <path d="M 262.155 33.544062 
L 322.720313 33.544062 
Q 324.120313 33.544062 324.120313 32.144063 
L 324.120313 12.1 
Q 324.120313 10.7 322.720313 10.7 
L 262.155 10.7 
Q 260.755 10.7 260.755 12.1 
L 260.755 32.144063 
Q 260.755 33.544062 262.155 33.544062 
z
" style="fill: #ffffff; opacity: 0.8; stroke: #cccccc; stroke-linejoin: miter"/>
    </g>
    <g id="line2d_17">
     <g>
      <use xlink:href="#m135eaadafe" x="270.555" y="16.368906" style="fill: #808080; stroke: #000000"/>
     </g>
    </g>
    <g id="text_17">
     <!-- Data_413K -->
     <g transform="translate(283.155 18.818906) scale(0.07 -0.07)">
      <defs>
       <path id="DejaVuSans-44" d="M 1259 4147 
L 1259 519 
L 2022 519 
Q 2988 519 3436 956 
Q 3884 1394 3884 2338 
Q 3884 3275 3436 3711 
Q 2988 4147 2022 4147 
L 1259 4147 
z
M 628 4666 
L 1925 4666 
Q 3281 4666 3915 4102 
Q 4550 3538 4550 2338 
Q 4550 1131 3912 565 
Q 3275 0 1925 0 
L 628 0 
L 628 4666 
z
" transform="scale(0.015625)"/>
       <path id="DejaVuSans-61" d="M 2194 1759 
Q 1497 1759 1228 1600 
Q 959 1441 959 1056 
Q 959 750 1161 570 
Q 1363 391 1709 391 
Q 2188 391 2477 730 
Q 2766 1069 2766 1631 
L 2766 1759 
L 2194 1759 
z
M 3341 1997 
L 3341 0 
L 2766 0 
L 2766 531 
Q 2569 213 2275 61 
Q 1981 -91 1556 -91 
Q 1019 -91 701 211 
Q 384 513 384 1019 
Q 384 1609 779 1909 
Q 1175 2209 1959 2209 
L 2766 2209 
L 2766 2266 
Q 2766 2663 2505 2880 
Q 2244 3097 1772 3097 
Q 1472 3097 1187 3025 
Q 903 2953 641 2809 
L 641 3341 
Q 956 3463 1253 3523 
Q 1550 3584 1831 3584 
Q 2591 3584 2966 3190 
Q 3341 2797 3341 1997 
z
" transform="scale(0.015625)"/>
       <path id="DejaVuSans-74" d="M 1172 4494 
L 1172 3500 
L 2356 3500 
L 2356 3053 
L 1172 3053 
L 1172 1153 
Q 1172 725 1289 603 
Q 1406 481 1766 481 
L 2356 481 
L 2356 0 
L 1766 0 
Q 1100 0 847 248 
Q 594 497 594 1153 
L 594 3053 
L 172 3053 
L 172 3500 
L 594 3500 
L 594 4494 
L 1172 4494 
z
" transform="scale(0.015625)"/>
       <path id="DejaVuSans-5f" d="M 3263 -1063 
L 3263 -1509 
L -63 -1509 
L -63 -1063 
L 3263 -1063 
z
" transform="scale(0.015625)"/>
       <path id="DejaVuSans-34" d="M 2419 4116 
L 825 1625 
L 2419 1625 
L 2419 4116 
z
M 2253 4666 
L 3047 4666 
L 3047 1625 
L 3713 1625 
L 3713 1100 
L 3047 1100 
L 3047 0 
L 2419 0 
L 2419 1100 
L 313 1100 
L 313 1709 
L 2253 4666 
z
" transform="scale(0.015625)"/>
       <path id="DejaVuSans-4b" d="M 628 4666 
L 1259 4666 
L 1259 2694 
L 3353 4666 
L 4166 4666 
L 1850 2491 
L 4331 0 
L 3500 0 
L 1259 2247 
L 1259 0 
L 628 0 
L 628 4666 
z
" transform="scale(0.015625)"/>
      </defs>
      <use xlink:href="#DejaVuSans-44"/>
      <use xlink:href="#DejaVuSans-61" transform="translate(77.001953 0)"/>
      <use xlink:href="#DejaVuSans-74" transform="translate(138.28125 0)"/>
      <use xlink:href="#DejaVuSans-61" transform="translate(177.490234 0)"/>
      <use xlink:href="#DejaVuSans-5f" transform="translate(238.769531 0)"/>
      <use xlink:href="#DejaVuSans-34" transform="translate(288.769531 0)"/>
      <use xlink:href="#DejaVuSans-31" transform="translate(352.392578 0)"/>
      <use xlink:href="#DejaVuSans-33" transform="translate(416.015625 0)"/>
      <use xlink:href="#DejaVuSans-4b" transform="translate(479.638672 0)"/>
     </g>
    </g>
    <g id="line2d_18">
     <g>
      <use xlink:href="#mec02bca762" x="270.555" y="26.838281" style="fill-opacity: 0; stroke: #8b0000; stroke-linejoin: bevel"/>
     </g>
    </g>
    <g id="text_18">
     <!-- Fit -->
     <g transform="translate(283.155 29.288281) scale(0.07 -0.07)">
      <defs>
       <path id="DejaVuSans-46" d="M 628 4666 
L 3309 4666 
L 3309 4134 
L 1259 4134 
L 1259 2759 
L 3109 2759 
L 3109 2228 
L 1259 2228 
L 1259 0 
L 628 0 
L 628 4666 
z
" transform="scale(0.015625)"/>
       <path id="DejaVuSans-69" d="M 603 3500 
L 1178 3500 
L 1178 0 
L 603 0 
L 603 3500 
z
M 603 4863 
L 1178 4863 
L 1178 4134 
L 603 4134 
L 603 4863 
z
" transform="scale(0.015625)"/>
      </defs>
      <use xlink:href="#DejaVuSans-46"/>
      <use xlink:href="#DejaVuSans-69" transform="translate(50.269531 0)"/>
      <use xlink:href="#DejaVuSans-74" transform="translate(78.052734 0)"/>
     </g>
    </g>
   </g>
  </g>
 </g>
 <defs>
  <clipPath id="pb57c7e04a2">
   <rect x="48.620313" y="7.2" width="279" height="271.107911"/>
  </clipPath>
 </defs>
</svg>
