<?xml version="1.0" encoding="utf-8" standalone="no"?>
<!DOCTYPE svg PUBLIC "-//W3C//DTD SVG 1.1//EN"
  "http://www.w3.org/Graphics/SVG/1.1/DTD/svg11.dtd">
<svg xmlns:xlink="http://www.w3.org/1999/xlink" width="333.020312pt" height="326.795313pt" viewBox="0 0 333.020312 326.795313" xmlns="http://www.w3.org/2000/svg" version="1.1">
 <metadata>
  <rdf:RDF xmlns:dc="http://purl.org/dc/elements/1.1/" xmlns:cc="http://creativecommons.org/ns#" xmlns:rdf="http://www.w3.org/1999/02/22-rdf-syntax-ns#">
   <cc:Work>
    <dc:type rdf:resource="http://purl.org/dc/dcmitype/StillImage"/>
    <dc:date>2025-04-27T16:44:08.385453</dc:date>
    <dc:format>image/svg+xml</dc:format>
    <dc:creator>
     <cc:Agent>
      <dc:title>Matplotlib v3.7.2, https://matplotlib.org/</dc:title>
     </cc:Agent>
    </dc:creator>
   </cc:Work>
  </rdf:RDF>
 </metadata>
 <defs>
  <style type="text/css">*{stroke-linejoin: round; stroke-linecap: butt}</style>
 </defs>
 <g id="figure_1">
  <g id="patch_1">
   <path d="M 0 326.795313 
L 333.020312 326.795313 
L 333.020312 0 
L 0 0 
z
" style="fill: #ffffff"/>
  </g>
  <g id="axes_1">
   <g id="patch_2">
    <path d="M 48.620313 284.4 
L 325.820312 284.4 
L 325.820312 7.2 
L 48.620313 7.2 
z
" style="fill: #ffffff"/>
   </g>
   <g id="matplotlib.axis_1">
    <g id="xtick_1">
     <g id="line2d_1">
      <defs>
       <path id="mfe2203d8fc" d="M 0 0 
L 0 3.5 
" style="stroke: #000000; stroke-width: 0.8"/>
      </defs>
      <g>
       <use xlink:href="#mfe2203d8fc" x="48.620313" y="284.4" style="stroke: #000000; stroke-width: 0.8"/>
      </g>
     </g>
     <g id="text_1">
      <!-- 0.0 -->
      <g transform="translate(40.66875 298.998438) scale(0.1 -0.1)">
       <defs>
        <path id="DejaVuSans-30" d="M 2034 4250 
Q 1547 4250 1301 3770 
Q 1056 3291 1056 2328 
Q 1056 1369 1301 889 
Q 1547 409 2034 409 
Q 2525 409 2770 889 
Q 3016 1369 3016 2328 
Q 3016 3291 2770 3770 
Q 2525 4250 2034 4250 
z
M 2034 4750 
Q 2819 4750 3233 4129 
Q 3647 3509 3647 2328 
Q 3647 1150 3233 529 
Q 2819 -91 2034 -91 
Q 1250 -91 836 529 
Q 422 1150 422 2328 
Q 422 3509 836 4129 
Q 1250 4750 2034 4750 
z
" transform="scale(0.015625)"/>
        <path id="DejaVuSans-2e" d="M 684 794 
L 1344 794 
L 1344 0 
L 684 0 
L 684 794 
z
" transform="scale(0.015625)"/>
       </defs>
       <use xlink:href="#DejaVuSans-30"/>
       <use xlink:href="#DejaVuSans-2e" x="63.623047"/>
       <use xlink:href="#DejaVuSans-30" x="95.410156"/>
      </g>
     </g>
    </g>
    <g id="xtick_2">
     <g id="line2d_2">
      <g>
       <use xlink:href="#mfe2203d8fc" x="88.967474" y="284.4" style="stroke: #000000; stroke-width: 0.8"/>
      </g>
     </g>
     <g id="text_2">
      <!-- 0.5 -->
      <g transform="translate(81.015912 298.998438) scale(0.1 -0.1)">
       <defs>
        <path id="DejaVuSans-35" d="M 691 4666 
L 3169 4666 
L 3169 4134 
L 1269 4134 
L 1269 2991 
Q 1406 3038 1543 3061 
Q 1681 3084 1819 3084 
Q 2600 3084 3056 2656 
Q 3513 2228 3513 1497 
Q 3513 744 3044 326 
Q 2575 -91 1722 -91 
Q 1428 -91 1123 -41 
Q 819 9 494 109 
L 494 744 
Q 775 591 1075 516 
Q 1375 441 1709 441 
Q 2250 441 2565 725 
Q 2881 1009 2881 1497 
Q 2881 1984 2565 2268 
Q 2250 2553 1709 2553 
Q 1456 2553 1204 2497 
Q 953 2441 691 2322 
L 691 4666 
z
" transform="scale(0.015625)"/>
       </defs>
       <use xlink:href="#DejaVuSans-30"/>
       <use xlink:href="#DejaVuSans-2e" x="63.623047"/>
       <use xlink:href="#DejaVuSans-35" x="95.410156"/>
      </g>
     </g>
    </g>
    <g id="xtick_3">
     <g id="line2d_3">
      <g>
       <use xlink:href="#mfe2203d8fc" x="129.314636" y="284.4" style="stroke: #000000; stroke-width: 0.8"/>
      </g>
     </g>
     <g id="text_3">
      <!-- 1.0 -->
      <g transform="translate(121.363073 298.998438) scale(0.1 -0.1)">
       <defs>
        <path id="DejaVuSans-31" d="M 794 531 
L 1825 531 
L 1825 4091 
L 703 3866 
L 703 4441 
L 1819 4666 
L 2450 4666 
L 2450 531 
L 3481 531 
L 3481 0 
L 794 0 
L 794 531 
z
" transform="scale(0.015625)"/>
       </defs>
       <use xlink:href="#DejaVuSans-31"/>
       <use xlink:href="#DejaVuSans-2e" x="63.623047"/>
       <use xlink:href="#DejaVuSans-30" x="95.410156"/>
      </g>
     </g>
    </g>
    <g id="xtick_4">
     <g id="line2d_4">
      <g>
       <use xlink:href="#mfe2203d8fc" x="169.661797" y="284.4" style="stroke: #000000; stroke-width: 0.8"/>
      </g>
     </g>
     <g id="text_4">
      <!-- 1.5 -->
      <g transform="translate(161.710235 298.998438) scale(0.1 -0.1)">
       <use xlink:href="#DejaVuSans-31"/>
       <use xlink:href="#DejaVuSans-2e" x="63.623047"/>
       <use xlink:href="#DejaVuSans-35" x="95.410156"/>
      </g>
     </g>
    </g>
    <g id="xtick_5">
     <g id="line2d_5">
      <g>
       <use xlink:href="#mfe2203d8fc" x="210.008959" y="284.4" style="stroke: #000000; stroke-width: 0.8"/>
      </g>
     </g>
     <g id="text_5">
      <!-- 2.0 -->
      <g transform="translate(202.057396 298.998438) scale(0.1 -0.1)">
       <defs>
        <path id="DejaVuSans-32" d="M 1228 531 
L 3431 531 
L 3431 0 
L 469 0 
L 469 531 
Q 828 903 1448 1529 
Q 2069 2156 2228 2338 
Q 2531 2678 2651 2914 
Q 2772 3150 2772 3378 
Q 2772 3750 2511 3984 
Q 2250 4219 1831 4219 
Q 1534 4219 1204 4116 
Q 875 4013 500 3803 
L 500 4441 
Q 881 4594 1212 4672 
Q 1544 4750 1819 4750 
Q 2544 4750 2975 4387 
Q 3406 4025 3406 3419 
Q 3406 3131 3298 2873 
Q 3191 2616 2906 2266 
Q 2828 2175 2409 1742 
Q 1991 1309 1228 531 
z
" transform="scale(0.015625)"/>
       </defs>
       <use xlink:href="#DejaVuSans-32"/>
       <use xlink:href="#DejaVuSans-2e" x="63.623047"/>
       <use xlink:href="#DejaVuSans-30" x="95.410156"/>
      </g>
     </g>
    </g>
    <g id="xtick_6">
     <g id="line2d_6">
      <g>
       <use xlink:href="#mfe2203d8fc" x="250.35612" y="284.4" style="stroke: #000000; stroke-width: 0.8"/>
      </g>
     </g>
     <g id="text_6">
      <!-- 2.5 -->
      <g transform="translate(242.404558 298.998438) scale(0.1 -0.1)">
       <use xlink:href="#DejaVuSans-32"/>
       <use xlink:href="#DejaVuSans-2e" x="63.623047"/>
       <use xlink:href="#DejaVuSans-35" x="95.410156"/>
      </g>
     </g>
    </g>
    <g id="xtick_7">
     <g id="line2d_7">
      <g>
       <use xlink:href="#mfe2203d8fc" x="290.703282" y="284.4" style="stroke: #000000; stroke-width: 0.8"/>
      </g>
     </g>
     <g id="text_7">
      <!-- 3.0 -->
      <g transform="translate(282.75172 298.998438) scale(0.1 -0.1)">
       <defs>
        <path id="DejaVuSans-33" d="M 2597 2516 
Q 3050 2419 3304 2112 
Q 3559 1806 3559 1356 
Q 3559 666 3084 287 
Q 2609 -91 1734 -91 
Q 1441 -91 1130 -33 
Q 819 25 488 141 
L 488 750 
Q 750 597 1062 519 
Q 1375 441 1716 441 
Q 2309 441 2620 675 
Q 2931 909 2931 1356 
Q 2931 1769 2642 2001 
Q 2353 2234 1838 2234 
L 1294 2234 
L 1294 2753 
L 1863 2753 
Q 2328 2753 2575 2939 
Q 2822 3125 2822 3475 
Q 2822 3834 2567 4026 
Q 2313 4219 1838 4219 
Q 1578 4219 1281 4162 
Q 984 4106 628 3988 
L 628 4550 
Q 988 4650 1302 4700 
Q 1616 4750 1894 4750 
Q 2613 4750 3031 4423 
Q 3450 4097 3450 3541 
Q 3450 3153 3228 2886 
Q 3006 2619 2597 2516 
z
" transform="scale(0.015625)"/>
       </defs>
       <use xlink:href="#DejaVuSans-33"/>
       <use xlink:href="#DejaVuSans-2e" x="63.623047"/>
       <use xlink:href="#DejaVuSans-30" x="95.410156"/>
      </g>
     </g>
    </g>
    <g id="text_8">
     <!-- $ \mathit{Z^{\prime}} \,/\, \mathrm{M\Omega}$ -->
     <g transform="translate(162.695312 316.475781) scale(0.15 -0.15)">
      <defs>
       <path id="DejaVuSans-Oblique-5a" d="M 838 4666 
L 4500 4666 
L 4409 4184 
L 794 531 
L 3769 531 
L 3669 0 
L -141 0 
L -50 481 
L 3566 4134 
L 738 4134 
L 838 4666 
z
" transform="scale(0.015625)"/>
       <path id="Cmsy10-30" d="M 225 347 
Q 184 359 184 409 
L 966 3316 
Q 1003 3434 1093 3506 
Q 1184 3578 1300 3578 
Q 1450 3578 1564 3479 
Q 1678 3381 1678 3231 
Q 1678 3166 1644 3084 
L 488 319 
Q 466 275 428 275 
Q 394 275 320 306 
Q 247 338 225 347 
z
" transform="scale(0.015625)"/>
       <path id="DejaVuSans-2f" d="M 1625 4666 
L 2156 4666 
L 531 -594 
L 0 -594 
L 1625 4666 
z
" transform="scale(0.015625)"/>
       <path id="DejaVuSans-4d" d="M 628 4666 
L 1569 4666 
L 2759 1491 
L 3956 4666 
L 4897 4666 
L 4897 0 
L 4281 0 
L 4281 4097 
L 3078 897 
L 2444 897 
L 1241 4097 
L 1241 0 
L 628 0 
L 628 4666 
z
" transform="scale(0.015625)"/>
       <path id="DejaVuSans-3a9" d="M 4647 556 
L 4647 0 
L 2772 0 
L 2772 556 
Q 3325 859 3634 1378 
Q 3944 1897 3944 2528 
Q 3944 3278 3531 3731 
Q 3119 4184 2444 4184 
Q 1769 4184 1355 3729 
Q 941 3275 941 2528 
Q 941 1897 1250 1378 
Q 1563 859 2119 556 
L 2119 0 
L 244 0 
L 244 556 
L 1241 556 
Q 747 991 519 1456 
Q 294 1922 294 2497 
Q 294 3491 894 4106 
Q 1491 4722 2444 4722 
Q 3391 4722 3994 4106 
Q 4594 3494 4594 2528 
Q 4594 1922 4372 1459 
Q 4150 997 3647 556 
L 4647 556 
z
" transform="scale(0.015625)"/>
      </defs>
      <use xlink:href="#DejaVuSans-Oblique-5a" transform="translate(0 0.584375)"/>
      <use xlink:href="#Cmsy10-30" transform="translate(75.52263 38.865625) scale(0.7)"/>
      <use xlink:href="#DejaVuSans-2f" transform="translate(113.735846 0.584375)"/>
      <use xlink:href="#DejaVuSans-4d" transform="translate(163.662928 0.584375)"/>
      <use xlink:href="#DejaVuSans-3a9" transform="translate(249.942225 0.584375)"/>
     </g>
    </g>
   </g>
   <g id="matplotlib.axis_2">
    <g id="ytick_1">
     <g id="line2d_8">
      <defs>
       <path id="mfdfa60c27f" d="M 0 0 
L -3.5 0 
" style="stroke: #000000; stroke-width: 0.8"/>
      </defs>
      <g>
       <use xlink:href="#mfdfa60c27f" x="48.620313" y="284.4" style="stroke: #000000; stroke-width: 0.8"/>
      </g>
     </g>
     <g id="text_9">
      <!-- 0.0 -->
      <g transform="translate(25.717188 288.199219) scale(0.1 -0.1)">
       <use xlink:href="#DejaVuSans-30"/>
       <use xlink:href="#DejaVuSans-2e" x="63.623047"/>
       <use xlink:href="#DejaVuSans-30" x="95.410156"/>
      </g>
     </g>
    </g>
    <g id="ytick_2">
     <g id="line2d_9">
      <g>
       <use xlink:href="#mfdfa60c27f" x="48.620313" y="244.052838" style="stroke: #000000; stroke-width: 0.8"/>
      </g>
     </g>
     <g id="text_10">
      <!-- 0.5 -->
      <g transform="translate(25.717188 247.852057) scale(0.1 -0.1)">
       <use xlink:href="#DejaVuSans-30"/>
       <use xlink:href="#DejaVuSans-2e" x="63.623047"/>
       <use xlink:href="#DejaVuSans-35" x="95.410156"/>
      </g>
     </g>
    </g>
    <g id="ytick_3">
     <g id="line2d_10">
      <g>
       <use xlink:href="#mfdfa60c27f" x="48.620313" y="203.705677" style="stroke: #000000; stroke-width: 0.8"/>
      </g>
     </g>
     <g id="text_11">
      <!-- 1.0 -->
      <g transform="translate(25.717188 207.504896) scale(0.1 -0.1)">
       <use xlink:href="#DejaVuSans-31"/>
       <use xlink:href="#DejaVuSans-2e" x="63.623047"/>
       <use xlink:href="#DejaVuSans-30" x="95.410156"/>
      </g>
     </g>
    </g>
    <g id="ytick_4">
     <g id="line2d_11">
      <g>
       <use xlink:href="#mfdfa60c27f" x="48.620313" y="163.358515" style="stroke: #000000; stroke-width: 0.8"/>
      </g>
     </g>
     <g id="text_12">
      <!-- 1.5 -->
      <g transform="translate(25.717188 167.157734) scale(0.1 -0.1)">
       <use xlink:href="#DejaVuSans-31"/>
       <use xlink:href="#DejaVuSans-2e" x="63.623047"/>
       <use xlink:href="#DejaVuSans-35" x="95.410156"/>
      </g>
     </g>
    </g>
    <g id="ytick_5">
     <g id="line2d_12">
      <g>
       <use xlink:href="#mfdfa60c27f" x="48.620313" y="123.011354" style="stroke: #000000; stroke-width: 0.8"/>
      </g>
     </g>
     <g id="text_13">
      <!-- 2.0 -->
      <g transform="translate(25.717188 126.810572) scale(0.1 -0.1)">
       <use xlink:href="#DejaVuSans-32"/>
       <use xlink:href="#DejaVuSans-2e" x="63.623047"/>
       <use xlink:href="#DejaVuSans-30" x="95.410156"/>
      </g>
     </g>
    </g>
    <g id="ytick_6">
     <g id="line2d_13">
      <g>
       <use xlink:href="#mfdfa60c27f" x="48.620313" y="82.664192" style="stroke: #000000; stroke-width: 0.8"/>
      </g>
     </g>
     <g id="text_14">
      <!-- 2.5 -->
      <g transform="translate(25.717188 86.463411) scale(0.1 -0.1)">
       <use xlink:href="#DejaVuSans-32"/>
       <use xlink:href="#DejaVuSans-2e" x="63.623047"/>
       <use xlink:href="#DejaVuSans-35" x="95.410156"/>
      </g>
     </g>
    </g>
    <g id="ytick_7">
     <g id="line2d_14">
      <g>
       <use xlink:href="#mfdfa60c27f" x="48.620313" y="42.31703" style="stroke: #000000; stroke-width: 0.8"/>
      </g>
     </g>
     <g id="text_15">
      <!-- 3.0 -->
      <g transform="translate(25.717188 46.116249) scale(0.1 -0.1)">
       <use xlink:href="#DejaVuSans-33"/>
       <use xlink:href="#DejaVuSans-2e" x="63.623047"/>
       <use xlink:href="#DejaVuSans-30" x="95.410156"/>
      </g>
     </g>
    </g>
    <g id="text_16">
     <!-- $ \mathit{-Z^{\prime\prime}} \,/\, \mathrm{M\Omega}$ -->
     <g transform="translate(18.597656 178.05) rotate(-90) scale(0.15 -0.15)">
      <defs>
       <path id="DejaVuSans-2212" d="M 678 2272 
L 4684 2272 
L 4684 1741 
L 678 1741 
L 678 2272 
z
" transform="scale(0.015625)"/>
      </defs>
      <use xlink:href="#DejaVuSans-2212" transform="translate(0 0.584375)"/>
      <use xlink:href="#DejaVuSans-Oblique-5a" transform="translate(83.789062 0.584375)"/>
      <use xlink:href="#Cmsy10-30" transform="translate(159.311693 38.865625) scale(0.7)"/>
      <use xlink:href="#Cmsy10-30" transform="translate(178.554857 38.865625) scale(0.7)"/>
      <use xlink:href="#DejaVuSans-2f" transform="translate(216.768072 0.584375)"/>
      <use xlink:href="#DejaVuSans-4d" transform="translate(266.695155 0.584375)"/>
      <use xlink:href="#DejaVuSans-3a9" transform="translate(352.974451 0.584375)"/>
     </g>
    </g>
   </g>
   <g id="line2d_15">
    <defs>
     <path id="m9a805be1e1" d="M 0 3 
C 0.795609 3 1.55874 2.683901 2.12132 2.12132 
C 2.683901 1.55874 3 0.795609 3 0 
C 3 -0.795609 2.683901 -1.55874 2.12132 -2.12132 
C 1.55874 -2.683901 0.795609 -3 0 -3 
C -0.795609 -3 -1.55874 -2.683901 -2.12132 -2.12132 
C -2.683901 -1.55874 -3 -0.795609 -3 0 
C -3 0.795609 -2.683901 1.55874 -2.12132 2.12132 
C -1.55874 2.683901 -0.795609 3 0 3 
z
" style="stroke: #000000"/>
    </defs>
    <g clip-path="url(#pf4585028de)">
     <use xlink:href="#m9a805be1e1" x="50.40707" y="280.01737" style="fill: #808080; stroke: #000000"/>
     <use xlink:href="#m9a805be1e1" x="51.256903" y="278.533329" style="fill: #808080; stroke: #000000"/>
     <use xlink:href="#m9a805be1e1" x="52.676558" y="276.78637" style="fill: #808080; stroke: #000000"/>
     <use xlink:href="#m9a805be1e1" x="54.479552" y="274.485734" style="fill: #808080; stroke: #000000"/>
     <use xlink:href="#m9a805be1e1" x="56.932231" y="271.996072" style="fill: #808080; stroke: #000000"/>
     <use xlink:href="#m9a805be1e1" x="60.186875" y="268.890228" style="fill: #808080; stroke: #000000"/>
     <use xlink:href="#m9a805be1e1" x="63.745172" y="265.234937" style="fill: #808080; stroke: #000000"/>
     <use xlink:href="#m9a805be1e1" x="68.506783" y="260.810951" style="fill: #808080; stroke: #000000"/>
     <use xlink:href="#m9a805be1e1" x="74.385687" y="255.123535" style="fill: #808080; stroke: #000000"/>
     <use xlink:href="#m9a805be1e1" x="82.256773" y="248.482634" style="fill: #808080; stroke: #000000"/>
     <use xlink:href="#m9a805be1e1" x="92.46517" y="240.289659" style="fill: #808080; stroke: #000000"/>
     <use xlink:href="#m9a805be1e1" x="107.180586" y="232.338121" style="fill: #808080; stroke: #000000"/>
     <use xlink:href="#m9a805be1e1" x="125.755451" y="226.095124" style="fill: #808080; stroke: #000000"/>
     <use xlink:href="#m9a805be1e1" x="147.142433" y="224.718882" style="fill: #808080; stroke: #000000"/>
     <use xlink:href="#m9a805be1e1" x="167.759832" y="229.492032" style="fill: #808080; stroke: #000000"/>
     <use xlink:href="#m9a805be1e1" x="183.989074" y="237.865359" style="fill: #808080; stroke: #000000"/>
     <use xlink:href="#m9a805be1e1" x="195.420232" y="247.240829" style="fill: #808080; stroke: #000000"/>
     <use xlink:href="#m9a805be1e1" x="202.665775" y="255.191157" style="fill: #808080; stroke: #000000"/>
     <use xlink:href="#m9a805be1e1" x="208.335359" y="261.323037" style="fill: #808080; stroke: #000000"/>
     <use xlink:href="#m9a805be1e1" x="212.174795" y="266.505953" style="fill: #808080; stroke: #000000"/>
     <use xlink:href="#m9a805be1e1" x="215.278298" y="270.113877" style="fill: #808080; stroke: #000000"/>
     <use xlink:href="#m9a805be1e1" x="217.676533" y="272.719335" style="fill: #808080; stroke: #000000"/>
     <use xlink:href="#m9a805be1e1" x="219.575271" y="274.634373" style="fill: #808080; stroke: #000000"/>
     <use xlink:href="#m9a805be1e1" x="221.292446" y="275.916929" style="fill: #808080; stroke: #000000"/>
     <use xlink:href="#m9a805be1e1" x="222.84097" y="276.660745" style="fill: #808080; stroke: #000000"/>
     <use xlink:href="#m9a805be1e1" x="224.376583" y="277.041783" style="fill: #808080; stroke: #000000"/>
     <use xlink:href="#m9a805be1e1" x="225.988856" y="277.111915" style="fill: #808080; stroke: #000000"/>
     <use xlink:href="#m9a805be1e1" x="227.52931" y="276.888964" style="fill: #808080; stroke: #000000"/>
     <use xlink:href="#m9a805be1e1" x="229.164984" y="276.392113" style="fill: #808080; stroke: #000000"/>
     <use xlink:href="#m9a805be1e1" x="230.964468" y="275.475531" style="fill: #808080; stroke: #000000"/>
     <use xlink:href="#m9a805be1e1" x="232.868047" y="274.32023" style="fill: #808080; stroke: #000000"/>
     <use xlink:href="#m9a805be1e1" x="234.928173" y="272.697144" style="fill: #808080; stroke: #000000"/>
     <use xlink:href="#m9a805be1e1" x="237.77991" y="270.322149" style="fill: #808080; stroke: #000000"/>
     <use xlink:href="#m9a805be1e1" x="240.80272" y="267.406744" style="fill: #808080; stroke: #000000"/>
     <use xlink:href="#m9a805be1e1" x="243.631863" y="263.14915" style="fill: #808080; stroke: #000000"/>
     <use xlink:href="#m9a805be1e1" x="248.116853" y="257.743921" style="fill: #808080; stroke: #000000"/>
     <use xlink:href="#m9a805be1e1" x="253.52418" y="250.828014" style="fill: #808080; stroke: #000000"/>
     <use xlink:href="#m9a805be1e1" x="260.410633" y="241.859728" style="fill: #808080; stroke: #000000"/>
     <use xlink:href="#m9a805be1e1" x="269.315252" y="230.242247" style="fill: #808080; stroke: #000000"/>
     <use xlink:href="#m9a805be1e1" x="280.750444" y="215.203004" style="fill: #808080; stroke: #000000"/>
     <use xlink:href="#m9a805be1e1" x="295.148732" y="195.819421" style="fill: #808080; stroke: #000000"/>
     <use xlink:href="#m9a805be1e1" x="312.705396" y="170.739625" style="fill: #808080; stroke: #000000"/>
    </g>
   </g>
   <g id="line2d_16">
    <defs>
     <path id="m91a25f280c" d="M 0 -3 
L -0.673542 -0.927051 
L -2.85317 -0.927051 
L -1.089814 0.354102 
L -1.763356 2.427051 
L -0 1.145898 
L 1.763356 2.427051 
L 1.089814 0.354102 
L 2.85317 -0.927051 
L 0.673542 -0.927051 
z
" style="stroke: #8b0000; stroke-linejoin: bevel"/>
    </defs>
    <g clip-path="url(#pf4585028de)">
     <use xlink:href="#m91a25f280c" x="50.412419" y="280.127781" style="fill-opacity: 0; stroke: #8b0000; stroke-linejoin: bevel"/>
     <use xlink:href="#m91a25f280c" x="51.313662" y="278.608527" style="fill-opacity: 0; stroke: #8b0000; stroke-linejoin: bevel"/>
     <use xlink:href="#m91a25f280c" x="52.657582" y="276.704425" style="fill-opacity: 0; stroke: #8b0000; stroke-linejoin: bevel"/>
     <use xlink:href="#m91a25f280c" x="54.570472" y="274.436839" style="fill-opacity: 0; stroke: #8b0000; stroke-linejoin: bevel"/>
     <use xlink:href="#m91a25f280c" x="57.105236" y="271.852518" style="fill-opacity: 0; stroke: #8b0000; stroke-linejoin: bevel"/>
     <use xlink:href="#m91a25f280c" x="60.220405" y="268.911039" style="fill-opacity: 0; stroke: #8b0000; stroke-linejoin: bevel"/>
     <use xlink:href="#m91a25f280c" x="63.896563" y="265.374934" style="fill-opacity: 0; stroke: #8b0000; stroke-linejoin: bevel"/>
     <use xlink:href="#m91a25f280c" x="68.341698" y="260.853799" style="fill-opacity: 0; stroke: #8b0000; stroke-linejoin: bevel"/>
     <use xlink:href="#m91a25f280c" x="74.097818" y="255.015064" style="fill-opacity: 0; stroke: #8b0000; stroke-linejoin: bevel"/>
     <use xlink:href="#m91a25f280c" x="82.00119" y="247.833239" style="fill-opacity: 0; stroke: #8b0000; stroke-linejoin: bevel"/>
     <use xlink:href="#m91a25f280c" x="93.00387" y="239.840828" style="fill-opacity: 0; stroke: #8b0000; stroke-linejoin: bevel"/>
     <use xlink:href="#m91a25f280c" x="107.779119" y="232.319785" style="fill-opacity: 0; stroke: #8b0000; stroke-linejoin: bevel"/>
     <use xlink:href="#m91a25f280c" x="126.08624" y="227.161056" style="fill-opacity: 0; stroke: #8b0000; stroke-linejoin: bevel"/>
     <use xlink:href="#m91a25f280c" x="146.31342" y="226.080797" style="fill-opacity: 0; stroke: #8b0000; stroke-linejoin: bevel"/>
     <use xlink:href="#m91a25f280c" x="165.895544" y="229.540637" style="fill-opacity: 0; stroke: #8b0000; stroke-linejoin: bevel"/>
     <use xlink:href="#m91a25f280c" x="182.577542" y="236.418789" style="fill-opacity: 0; stroke: #8b0000; stroke-linejoin: bevel"/>
     <use xlink:href="#m91a25f280c" x="195.369613" y="244.811897" style="fill-opacity: 0; stroke: #8b0000; stroke-linejoin: bevel"/>
     <use xlink:href="#m91a25f280c" x="204.487103" y="253.073271" style="fill-opacity: 0; stroke: #8b0000; stroke-linejoin: bevel"/>
     <use xlink:href="#m91a25f280c" x="210.725673" y="260.266037" style="fill-opacity: 0; stroke: #8b0000; stroke-linejoin: bevel"/>
     <use xlink:href="#m91a25f280c" x="214.935444" y="266.067433" style="fill-opacity: 0; stroke: #8b0000; stroke-linejoin: bevel"/>
     <use xlink:href="#m91a25f280c" x="217.79872" y="270.512278" style="fill-opacity: 0; stroke: #8b0000; stroke-linejoin: bevel"/>
     <use xlink:href="#m91a25f280c" x="219.798836" y="273.785255" style="fill-opacity: 0; stroke: #8b0000; stroke-linejoin: bevel"/>
     <use xlink:href="#m91a25f280c" x="221.259461" y="276.100906" style="fill-opacity: 0; stroke: #8b0000; stroke-linejoin: bevel"/>
     <use xlink:href="#m91a25f280c" x="222.396457" y="277.65333" style="fill-opacity: 0; stroke: #8b0000; stroke-linejoin: bevel"/>
     <use xlink:href="#m91a25f280c" x="223.356223" y="278.5958" style="fill-opacity: 0; stroke: #8b0000; stroke-linejoin: bevel"/>
     <use xlink:href="#m91a25f280c" x="224.243695" y="279.039458" style="fill-opacity: 0; stroke: #8b0000; stroke-linejoin: bevel"/>
     <use xlink:href="#m91a25f280c" x="225.140149" y="279.056696" style="fill-opacity: 0; stroke: #8b0000; stroke-linejoin: bevel"/>
     <use xlink:href="#m91a25f280c" x="226.115318" y="278.685965" style="fill-opacity: 0; stroke: #8b0000; stroke-linejoin: bevel"/>
     <use xlink:href="#m91a25f280c" x="227.235374" y="277.935784" style="fill-opacity: 0; stroke: #8b0000; stroke-linejoin: bevel"/>
     <use xlink:href="#m91a25f280c" x="228.569492" y="276.787165" style="fill-opacity: 0; stroke: #8b0000; stroke-linejoin: bevel"/>
     <use xlink:href="#m91a25f280c" x="230.194964" y="275.194503" style="fill-opacity: 0; stroke: #8b0000; stroke-linejoin: bevel"/>
     <use xlink:href="#m91a25f280c" x="232.202908" y="273.084045" style="fill-opacity: 0; stroke: #8b0000; stroke-linejoin: bevel"/>
     <use xlink:href="#m91a25f280c" x="234.702538" y="270.352354" style="fill-opacity: 0; stroke: #8b0000; stroke-linejoin: bevel"/>
     <use xlink:href="#m91a25f280c" x="237.829506" y="266.859402" style="fill-opacity: 0; stroke: #8b0000; stroke-linejoin: bevel"/>
     <use xlink:href="#m91a25f280c" x="241.750869" y="262.424491" style="fill-opacity: 0; stroke: #8b0000; stroke-linejoin: bevel"/>
     <use xlink:href="#m91a25f280c" x="246.675995" y="256.815096" style="fill-opacity: 0; stroke: #8b0000; stroke-linejoin: bevel"/>
     <use xlink:href="#m91a25f280c" x="252.867586" y="249.73507" style="fill-opacity: 0; stroke: #8b0000; stroke-linejoin: bevel"/>
     <use xlink:href="#m91a25f280c" x="260.653815" y="240.811345" style="fill-opacity: 0; stroke: #8b0000; stroke-linejoin: bevel"/>
     <use xlink:href="#m91a25f280c" x="270.449114" y="229.57052" style="fill-opacity: 0; stroke: #8b0000; stroke-linejoin: bevel"/>
     <use xlink:href="#m91a25f280c" x="282.776008" y="215.414082" style="fill-opacity: 0; stroke: #8b0000; stroke-linejoin: bevel"/>
     <use xlink:href="#m91a25f280c" x="298.28608" y="197.59455" style="fill-opacity: 0; stroke: #8b0000; stroke-linejoin: bevel"/>
     <use xlink:href="#m91a25f280c" x="317.804901" y="175.164004" style="fill-opacity: 0; stroke: #8b0000; stroke-linejoin: bevel"/>
    </g>
   </g>
   <g id="patch_3">
    <path d="M 48.620313 284.4 
L 48.620313 7.2 
" style="fill: none; stroke: #000000; stroke-width: 0.8; stroke-linejoin: miter; stroke-linecap: square"/>
   </g>
   <g id="patch_4">
    <path d="M 325.820312 284.4 
L 325.820312 7.2 
" style="fill: none; stroke: #000000; stroke-width: 0.8; stroke-linejoin: miter; stroke-linecap: square"/>
   </g>
   <g id="patch_5">
    <path d="M 48.620313 284.4 
L 325.820312 284.4 
" style="fill: none; stroke: #000000; stroke-width: 0.8; stroke-linejoin: miter; stroke-linecap: square"/>
   </g>
   <g id="patch_6">
    <path d="M 48.620313 7.2 
L 325.820312 7.2 
" style="fill: none; stroke: #000000; stroke-width: 0.8; stroke-linejoin: miter; stroke-linecap: square"/>
   </g>
   <g id="legend_1">
    <g id="patch_7">
     <path d="M 269.707187 29.780625 
L 321.620312 29.780625 
Q 322.820312 29.780625 322.820312 28.580625 
L 322.820312 11.4 
Q 322.820312 10.2 321.620312 10.2 
L 269.707187 10.2 
Q 268.507187 10.2 268.507187 11.4 
L 268.507187 28.580625 
Q 268.507187 29.780625 269.707187 29.780625 
z
" style="fill: #ffffff; opacity: 0.8; stroke: #cccccc; stroke-linejoin: miter"/>
    </g>
    <g id="line2d_17">
     <g>
      <use xlink:href="#m9a805be1e1" x="276.907187" y="15.059063" style="fill: #808080; stroke: #000000"/>
     </g>
    </g>
    <g id="text_17">
     <!-- Data_413K -->
     <g transform="translate(287.707187 17.159063) scale(0.06 -0.06)">
      <defs>
       <path id="DejaVuSans-44" d="M 1259 4147 
L 1259 519 
L 2022 519 
Q 2988 519 3436 956 
Q 3884 1394 3884 2338 
Q 3884 3275 3436 3711 
Q 2988 4147 2022 4147 
L 1259 4147 
z
M 628 4666 
L 1925 4666 
Q 3281 4666 3915 4102 
Q 4550 3538 4550 2338 
Q 4550 1131 3912 565 
Q 3275 0 1925 0 
L 628 0 
L 628 4666 
z
" transform="scale(0.015625)"/>
       <path id="DejaVuSans-61" d="M 2194 1759 
Q 1497 1759 1228 1600 
Q 959 1441 959 1056 
Q 959 750 1161 570 
Q 1363 391 1709 391 
Q 2188 391 2477 730 
Q 2766 1069 2766 1631 
L 2766 1759 
L 2194 1759 
z
M 3341 1997 
L 3341 0 
L 2766 0 
L 2766 531 
Q 2569 213 2275 61 
Q 1981 -91 1556 -91 
Q 1019 -91 701 211 
Q 384 513 384 1019 
Q 384 1609 779 1909 
Q 1175 2209 1959 2209 
L 2766 2209 
L 2766 2266 
Q 2766 2663 2505 2880 
Q 2244 3097 1772 3097 
Q 1472 3097 1187 3025 
Q 903 2953 641 2809 
L 641 3341 
Q 956 3463 1253 3523 
Q 1550 3584 1831 3584 
Q 2591 3584 2966 3190 
Q 3341 2797 3341 1997 
z
" transform="scale(0.015625)"/>
       <path id="DejaVuSans-74" d="M 1172 4494 
L 1172 3500 
L 2356 3500 
L 2356 3053 
L 1172 3053 
L 1172 1153 
Q 1172 725 1289 603 
Q 1406 481 1766 481 
L 2356 481 
L 2356 0 
L 1766 0 
Q 1100 0 847 248 
Q 594 497 594 1153 
L 594 3053 
L 172 3053 
L 172 3500 
L 594 3500 
L 594 4494 
L 1172 4494 
z
" transform="scale(0.015625)"/>
       <path id="DejaVuSans-5f" d="M 3263 -1063 
L 3263 -1509 
L -63 -1509 
L -63 -1063 
L 3263 -1063 
z
" transform="scale(0.015625)"/>
       <path id="DejaVuSans-34" d="M 2419 4116 
L 825 1625 
L 2419 1625 
L 2419 4116 
z
M 2253 4666 
L 3047 4666 
L 3047 1625 
L 3713 1625 
L 3713 1100 
L 3047 1100 
L 3047 0 
L 2419 0 
L 2419 1100 
L 313 1100 
L 313 1709 
L 2253 4666 
z
" transform="scale(0.015625)"/>
       <path id="DejaVuSans-4b" d="M 628 4666 
L 1259 4666 
L 1259 2694 
L 3353 4666 
L 4166 4666 
L 1850 2491 
L 4331 0 
L 3500 0 
L 1259 2247 
L 1259 0 
L 628 0 
L 628 4666 
z
" transform="scale(0.015625)"/>
      </defs>
      <use xlink:href="#DejaVuSans-44"/>
      <use xlink:href="#DejaVuSans-61" x="77.001953"/>
      <use xlink:href="#DejaVuSans-74" x="138.28125"/>
      <use xlink:href="#DejaVuSans-61" x="177.490234"/>
      <use xlink:href="#DejaVuSans-5f" x="238.769531"/>
      <use xlink:href="#DejaVuSans-34" x="288.769531"/>
      <use xlink:href="#DejaVuSans-31" x="352.392578"/>
      <use xlink:href="#DejaVuSans-33" x="416.015625"/>
      <use xlink:href="#DejaVuSans-4b" x="479.638672"/>
     </g>
    </g>
    <g id="line2d_18">
     <g>
      <use xlink:href="#m91a25f280c" x="276.907187" y="24.032812" style="fill-opacity: 0; stroke: #8b0000; stroke-linejoin: bevel"/>
     </g>
    </g>
    <g id="text_18">
     <!-- Fit -->
     <g transform="translate(287.707187 26.132812) scale(0.06 -0.06)">
      <defs>
       <path id="DejaVuSans-46" d="M 628 4666 
L 3309 4666 
L 3309 4134 
L 1259 4134 
L 1259 2759 
L 3109 2759 
L 3109 2228 
L 1259 2228 
L 1259 0 
L 628 0 
L 628 4666 
z
" transform="scale(0.015625)"/>
       <path id="DejaVuSans-69" d="M 603 3500 
L 1178 3500 
L 1178 0 
L 603 0 
L 603 3500 
z
M 603 4863 
L 1178 4863 
L 1178 4134 
L 603 4134 
L 603 4863 
z
" transform="scale(0.015625)"/>
      </defs>
      <use xlink:href="#DejaVuSans-46"/>
      <use xlink:href="#DejaVuSans-69" x="50.269531"/>
      <use xlink:href="#DejaVuSans-74" x="78.052734"/>
     </g>
    </g>
   </g>
  </g>
 </g>
 <defs>
  <clipPath id="pf4585028de">
   <rect x="48.620313" y="7.2" width="277.2" height="277.2"/>
  </clipPath>
 </defs>
</svg>
