<?xml version="1.0" encoding="utf-8" standalone="no"?>
<!DOCTYPE svg PUBLIC "-//W3C//DTD SVG 1.1//EN"
  "http://www.w3.org/Graphics/SVG/1.1/DTD/svg11.dtd">
<svg xmlns:xlink="http://www.w3.org/1999/xlink" width="339.382812pt" height="326.795313pt" viewBox="0 0 339.382812 326.795313" xmlns="http://www.w3.org/2000/svg" version="1.1">
 <metadata>
  <rdf:RDF xmlns:dc="http://purl.org/dc/elements/1.1/" xmlns:cc="http://creativecommons.org/ns#" xmlns:rdf="http://www.w3.org/1999/02/22-rdf-syntax-ns#">
   <cc:Work>
    <dc:type rdf:resource="http://purl.org/dc/dcmitype/StillImage"/>
    <dc:date>2025-04-27T16:44:34.802698</dc:date>
    <dc:format>image/svg+xml</dc:format>
    <dc:creator>
     <cc:Agent>
      <dc:title>Matplotlib v3.7.2, https://matplotlib.org/</dc:title>
     </cc:Agent>
    </dc:creator>
   </cc:Work>
  </rdf:RDF>
 </metadata>
 <defs>
  <style type="text/css">*{stroke-linejoin: round; stroke-linecap: butt}</style>
 </defs>
 <g id="figure_1">
  <g id="patch_1">
   <path d="M 0 326.795313 
L 339.382812 326.795313 
L 339.382812 0 
L 0 0 
z
" style="fill: #ffffff"/>
  </g>
  <g id="axes_1">
   <g id="patch_2">
    <path d="M 54.982813 284.4 
L 332.182812 284.4 
L 332.182812 7.2 
L 54.982813 7.2 
z
" style="fill: #ffffff"/>
   </g>
   <g id="matplotlib.axis_1">
    <g id="xtick_1">
     <g id="line2d_1">
      <defs>
       <path id="m79ecb164ea" d="M 0 0 
L 0 3.5 
" style="stroke: #000000; stroke-width: 0.8"/>
      </defs>
      <g>
       <use xlink:href="#m79ecb164ea" x="54.982813" y="284.4" style="stroke: #000000; stroke-width: 0.8"/>
      </g>
     </g>
     <g id="text_1">
      <!-- 0.00 -->
      <g transform="translate(43.85 298.998438) scale(0.1 -0.1)">
       <defs>
        <path id="DejaVuSans-30" d="M 2034 4250 
Q 1547 4250 1301 3770 
Q 1056 3291 1056 2328 
Q 1056 1369 1301 889 
Q 1547 409 2034 409 
Q 2525 409 2770 889 
Q 3016 1369 3016 2328 
Q 3016 3291 2770 3770 
Q 2525 4250 2034 4250 
z
M 2034 4750 
Q 2819 4750 3233 4129 
Q 3647 3509 3647 2328 
Q 3647 1150 3233 529 
Q 2819 -91 2034 -91 
Q 1250 -91 836 529 
Q 422 1150 422 2328 
Q 422 3509 836 4129 
Q 1250 4750 2034 4750 
z
" transform="scale(0.015625)"/>
        <path id="DejaVuSans-2e" d="M 684 794 
L 1344 794 
L 1344 0 
L 684 0 
L 684 794 
z
" transform="scale(0.015625)"/>
       </defs>
       <use xlink:href="#DejaVuSans-30"/>
       <use xlink:href="#DejaVuSans-2e" x="63.623047"/>
       <use xlink:href="#DejaVuSans-30" x="95.410156"/>
       <use xlink:href="#DejaVuSans-30" x="159.033203"/>
      </g>
     </g>
    </g>
    <g id="xtick_2">
     <g id="line2d_2">
      <g>
       <use xlink:href="#m79ecb164ea" x="87.457387" y="284.4" style="stroke: #000000; stroke-width: 0.8"/>
      </g>
     </g>
     <g id="text_2">
      <!-- 0.25 -->
      <g transform="translate(76.324574 298.998438) scale(0.1 -0.1)">
       <defs>
        <path id="DejaVuSans-32" d="M 1228 531 
L 3431 531 
L 3431 0 
L 469 0 
L 469 531 
Q 828 903 1448 1529 
Q 2069 2156 2228 2338 
Q 2531 2678 2651 2914 
Q 2772 3150 2772 3378 
Q 2772 3750 2511 3984 
Q 2250 4219 1831 4219 
Q 1534 4219 1204 4116 
Q 875 4013 500 3803 
L 500 4441 
Q 881 4594 1212 4672 
Q 1544 4750 1819 4750 
Q 2544 4750 2975 4387 
Q 3406 4025 3406 3419 
Q 3406 3131 3298 2873 
Q 3191 2616 2906 2266 
Q 2828 2175 2409 1742 
Q 1991 1309 1228 531 
z
" transform="scale(0.015625)"/>
        <path id="DejaVuSans-35" d="M 691 4666 
L 3169 4666 
L 3169 4134 
L 1269 4134 
L 1269 2991 
Q 1406 3038 1543 3061 
Q 1681 3084 1819 3084 
Q 2600 3084 3056 2656 
Q 3513 2228 3513 1497 
Q 3513 744 3044 326 
Q 2575 -91 1722 -91 
Q 1428 -91 1123 -41 
Q 819 9 494 109 
L 494 744 
Q 775 591 1075 516 
Q 1375 441 1709 441 
Q 2250 441 2565 725 
Q 2881 1009 2881 1497 
Q 2881 1984 2565 2268 
Q 2250 2553 1709 2553 
Q 1456 2553 1204 2497 
Q 953 2441 691 2322 
L 691 4666 
z
" transform="scale(0.015625)"/>
       </defs>
       <use xlink:href="#DejaVuSans-30"/>
       <use xlink:href="#DejaVuSans-2e" x="63.623047"/>
       <use xlink:href="#DejaVuSans-32" x="95.410156"/>
       <use xlink:href="#DejaVuSans-35" x="159.033203"/>
      </g>
     </g>
    </g>
    <g id="xtick_3">
     <g id="line2d_3">
      <g>
       <use xlink:href="#m79ecb164ea" x="119.931961" y="284.4" style="stroke: #000000; stroke-width: 0.8"/>
      </g>
     </g>
     <g id="text_3">
      <!-- 0.50 -->
      <g transform="translate(108.799149 298.998438) scale(0.1 -0.1)">
       <use xlink:href="#DejaVuSans-30"/>
       <use xlink:href="#DejaVuSans-2e" x="63.623047"/>
       <use xlink:href="#DejaVuSans-35" x="95.410156"/>
       <use xlink:href="#DejaVuSans-30" x="159.033203"/>
      </g>
     </g>
    </g>
    <g id="xtick_4">
     <g id="line2d_4">
      <g>
       <use xlink:href="#m79ecb164ea" x="152.406536" y="284.4" style="stroke: #000000; stroke-width: 0.8"/>
      </g>
     </g>
     <g id="text_4">
      <!-- 0.75 -->
      <g transform="translate(141.273723 298.998438) scale(0.1 -0.1)">
       <defs>
        <path id="DejaVuSans-37" d="M 525 4666 
L 3525 4666 
L 3525 4397 
L 1831 0 
L 1172 0 
L 2766 4134 
L 525 4134 
L 525 4666 
z
" transform="scale(0.015625)"/>
       </defs>
       <use xlink:href="#DejaVuSans-30"/>
       <use xlink:href="#DejaVuSans-2e" x="63.623047"/>
       <use xlink:href="#DejaVuSans-37" x="95.410156"/>
       <use xlink:href="#DejaVuSans-35" x="159.033203"/>
      </g>
     </g>
    </g>
    <g id="xtick_5">
     <g id="line2d_5">
      <g>
       <use xlink:href="#m79ecb164ea" x="184.88111" y="284.4" style="stroke: #000000; stroke-width: 0.8"/>
      </g>
     </g>
     <g id="text_5">
      <!-- 1.00 -->
      <g transform="translate(173.748298 298.998438) scale(0.1 -0.1)">
       <defs>
        <path id="DejaVuSans-31" d="M 794 531 
L 1825 531 
L 1825 4091 
L 703 3866 
L 703 4441 
L 1819 4666 
L 2450 4666 
L 2450 531 
L 3481 531 
L 3481 0 
L 794 0 
L 794 531 
z
" transform="scale(0.015625)"/>
       </defs>
       <use xlink:href="#DejaVuSans-31"/>
       <use xlink:href="#DejaVuSans-2e" x="63.623047"/>
       <use xlink:href="#DejaVuSans-30" x="95.410156"/>
       <use xlink:href="#DejaVuSans-30" x="159.033203"/>
      </g>
     </g>
    </g>
    <g id="xtick_6">
     <g id="line2d_6">
      <g>
       <use xlink:href="#m79ecb164ea" x="217.355684" y="284.4" style="stroke: #000000; stroke-width: 0.8"/>
      </g>
     </g>
     <g id="text_6">
      <!-- 1.25 -->
      <g transform="translate(206.222872 298.998438) scale(0.1 -0.1)">
       <use xlink:href="#DejaVuSans-31"/>
       <use xlink:href="#DejaVuSans-2e" x="63.623047"/>
       <use xlink:href="#DejaVuSans-32" x="95.410156"/>
       <use xlink:href="#DejaVuSans-35" x="159.033203"/>
      </g>
     </g>
    </g>
    <g id="xtick_7">
     <g id="line2d_7">
      <g>
       <use xlink:href="#m79ecb164ea" x="249.830259" y="284.4" style="stroke: #000000; stroke-width: 0.8"/>
      </g>
     </g>
     <g id="text_7">
      <!-- 1.50 -->
      <g transform="translate(238.697446 298.998438) scale(0.1 -0.1)">
       <use xlink:href="#DejaVuSans-31"/>
       <use xlink:href="#DejaVuSans-2e" x="63.623047"/>
       <use xlink:href="#DejaVuSans-35" x="95.410156"/>
       <use xlink:href="#DejaVuSans-30" x="159.033203"/>
      </g>
     </g>
    </g>
    <g id="xtick_8">
     <g id="line2d_8">
      <g>
       <use xlink:href="#m79ecb164ea" x="282.304833" y="284.4" style="stroke: #000000; stroke-width: 0.8"/>
      </g>
     </g>
     <g id="text_8">
      <!-- 1.75 -->
      <g transform="translate(271.172021 298.998438) scale(0.1 -0.1)">
       <use xlink:href="#DejaVuSans-31"/>
       <use xlink:href="#DejaVuSans-2e" x="63.623047"/>
       <use xlink:href="#DejaVuSans-37" x="95.410156"/>
       <use xlink:href="#DejaVuSans-35" x="159.033203"/>
      </g>
     </g>
    </g>
    <g id="xtick_9">
     <g id="line2d_9">
      <g>
       <use xlink:href="#m79ecb164ea" x="314.779408" y="284.4" style="stroke: #000000; stroke-width: 0.8"/>
      </g>
     </g>
     <g id="text_9">
      <!-- 2.00 -->
      <g transform="translate(303.646595 298.998438) scale(0.1 -0.1)">
       <use xlink:href="#DejaVuSans-32"/>
       <use xlink:href="#DejaVuSans-2e" x="63.623047"/>
       <use xlink:href="#DejaVuSans-30" x="95.410156"/>
       <use xlink:href="#DejaVuSans-30" x="159.033203"/>
      </g>
     </g>
    </g>
    <g id="text_10">
     <!-- $ \mathit{Z^{\prime}} \,/\, \mathrm{M\Omega}$ -->
     <g transform="translate(169.057812 316.475781) scale(0.15 -0.15)">
      <defs>
       <path id="DejaVuSans-Oblique-5a" d="M 838 4666 
L 4500 4666 
L 4409 4184 
L 794 531 
L 3769 531 
L 3669 0 
L -141 0 
L -50 481 
L 3566 4134 
L 738 4134 
L 838 4666 
z
" transform="scale(0.015625)"/>
       <path id="Cmsy10-30" d="M 225 347 
Q 184 359 184 409 
L 966 3316 
Q 1003 3434 1093 3506 
Q 1184 3578 1300 3578 
Q 1450 3578 1564 3479 
Q 1678 3381 1678 3231 
Q 1678 3166 1644 3084 
L 488 319 
Q 466 275 428 275 
Q 394 275 320 306 
Q 247 338 225 347 
z
" transform="scale(0.015625)"/>
       <path id="DejaVuSans-2f" d="M 1625 4666 
L 2156 4666 
L 531 -594 
L 0 -594 
L 1625 4666 
z
" transform="scale(0.015625)"/>
       <path id="DejaVuSans-4d" d="M 628 4666 
L 1569 4666 
L 2759 1491 
L 3956 4666 
L 4897 4666 
L 4897 0 
L 4281 0 
L 4281 4097 
L 3078 897 
L 2444 897 
L 1241 4097 
L 1241 0 
L 628 0 
L 628 4666 
z
" transform="scale(0.015625)"/>
       <path id="DejaVuSans-3a9" d="M 4647 556 
L 4647 0 
L 2772 0 
L 2772 556 
Q 3325 859 3634 1378 
Q 3944 1897 3944 2528 
Q 3944 3278 3531 3731 
Q 3119 4184 2444 4184 
Q 1769 4184 1355 3729 
Q 941 3275 941 2528 
Q 941 1897 1250 1378 
Q 1563 859 2119 556 
L 2119 0 
L 244 0 
L 244 556 
L 1241 556 
Q 747 991 519 1456 
Q 294 1922 294 2497 
Q 294 3491 894 4106 
Q 1491 4722 2444 4722 
Q 3391 4722 3994 4106 
Q 4594 3494 4594 2528 
Q 4594 1922 4372 1459 
Q 4150 997 3647 556 
L 4647 556 
z
" transform="scale(0.015625)"/>
      </defs>
      <use xlink:href="#DejaVuSans-Oblique-5a" transform="translate(0 0.584375)"/>
      <use xlink:href="#Cmsy10-30" transform="translate(75.52263 38.865625) scale(0.7)"/>
      <use xlink:href="#DejaVuSans-2f" transform="translate(113.735846 0.584375)"/>
      <use xlink:href="#DejaVuSans-4d" transform="translate(163.662928 0.584375)"/>
      <use xlink:href="#DejaVuSans-3a9" transform="translate(249.942225 0.584375)"/>
     </g>
    </g>
   </g>
   <g id="matplotlib.axis_2">
    <g id="ytick_1">
     <g id="line2d_10">
      <defs>
       <path id="m349c05952b" d="M 0 0 
L -3.5 0 
" style="stroke: #000000; stroke-width: 0.8"/>
      </defs>
      <g>
       <use xlink:href="#m349c05952b" x="54.982813" y="284.4" style="stroke: #000000; stroke-width: 0.8"/>
      </g>
     </g>
     <g id="text_11">
      <!-- 0.00 -->
      <g transform="translate(25.717188 288.199219) scale(0.1 -0.1)">
       <use xlink:href="#DejaVuSans-30"/>
       <use xlink:href="#DejaVuSans-2e" x="63.623047"/>
       <use xlink:href="#DejaVuSans-30" x="95.410156"/>
       <use xlink:href="#DejaVuSans-30" x="159.033203"/>
      </g>
     </g>
    </g>
    <g id="ytick_2">
     <g id="line2d_11">
      <g>
       <use xlink:href="#m349c05952b" x="54.982813" y="251.925426" style="stroke: #000000; stroke-width: 0.8"/>
      </g>
     </g>
     <g id="text_12">
      <!-- 0.25 -->
      <g transform="translate(25.717188 255.724644) scale(0.1 -0.1)">
       <use xlink:href="#DejaVuSans-30"/>
       <use xlink:href="#DejaVuSans-2e" x="63.623047"/>
       <use xlink:href="#DejaVuSans-32" x="95.410156"/>
       <use xlink:href="#DejaVuSans-35" x="159.033203"/>
      </g>
     </g>
    </g>
    <g id="ytick_3">
     <g id="line2d_12">
      <g>
       <use xlink:href="#m349c05952b" x="54.982813" y="219.450851" style="stroke: #000000; stroke-width: 0.8"/>
      </g>
     </g>
     <g id="text_13">
      <!-- 0.50 -->
      <g transform="translate(25.717188 223.25007) scale(0.1 -0.1)">
       <use xlink:href="#DejaVuSans-30"/>
       <use xlink:href="#DejaVuSans-2e" x="63.623047"/>
       <use xlink:href="#DejaVuSans-35" x="95.410156"/>
       <use xlink:href="#DejaVuSans-30" x="159.033203"/>
      </g>
     </g>
    </g>
    <g id="ytick_4">
     <g id="line2d_13">
      <g>
       <use xlink:href="#m349c05952b" x="54.982813" y="186.976277" style="stroke: #000000; stroke-width: 0.8"/>
      </g>
     </g>
     <g id="text_14">
      <!-- 0.75 -->
      <g transform="translate(25.717188 190.775496) scale(0.1 -0.1)">
       <use xlink:href="#DejaVuSans-30"/>
       <use xlink:href="#DejaVuSans-2e" x="63.623047"/>
       <use xlink:href="#DejaVuSans-37" x="95.410156"/>
       <use xlink:href="#DejaVuSans-35" x="159.033203"/>
      </g>
     </g>
    </g>
    <g id="ytick_5">
     <g id="line2d_14">
      <g>
       <use xlink:href="#m349c05952b" x="54.982813" y="154.501702" style="stroke: #000000; stroke-width: 0.8"/>
      </g>
     </g>
     <g id="text_15">
      <!-- 1.00 -->
      <g transform="translate(25.717188 158.300921) scale(0.1 -0.1)">
       <use xlink:href="#DejaVuSans-31"/>
       <use xlink:href="#DejaVuSans-2e" x="63.623047"/>
       <use xlink:href="#DejaVuSans-30" x="95.410156"/>
       <use xlink:href="#DejaVuSans-30" x="159.033203"/>
      </g>
     </g>
    </g>
    <g id="ytick_6">
     <g id="line2d_15">
      <g>
       <use xlink:href="#m349c05952b" x="54.982813" y="122.027128" style="stroke: #000000; stroke-width: 0.8"/>
      </g>
     </g>
     <g id="text_16">
      <!-- 1.25 -->
      <g transform="translate(25.717188 125.826347) scale(0.1 -0.1)">
       <use xlink:href="#DejaVuSans-31"/>
       <use xlink:href="#DejaVuSans-2e" x="63.623047"/>
       <use xlink:href="#DejaVuSans-32" x="95.410156"/>
       <use xlink:href="#DejaVuSans-35" x="159.033203"/>
      </g>
     </g>
    </g>
    <g id="ytick_7">
     <g id="line2d_16">
      <g>
       <use xlink:href="#m349c05952b" x="54.982813" y="89.552554" style="stroke: #000000; stroke-width: 0.8"/>
      </g>
     </g>
     <g id="text_17">
      <!-- 1.50 -->
      <g transform="translate(25.717188 93.351772) scale(0.1 -0.1)">
       <use xlink:href="#DejaVuSans-31"/>
       <use xlink:href="#DejaVuSans-2e" x="63.623047"/>
       <use xlink:href="#DejaVuSans-35" x="95.410156"/>
       <use xlink:href="#DejaVuSans-30" x="159.033203"/>
      </g>
     </g>
    </g>
    <g id="ytick_8">
     <g id="line2d_17">
      <g>
       <use xlink:href="#m349c05952b" x="54.982813" y="57.077979" style="stroke: #000000; stroke-width: 0.8"/>
      </g>
     </g>
     <g id="text_18">
      <!-- 1.75 -->
      <g transform="translate(25.717188 60.877198) scale(0.1 -0.1)">
       <use xlink:href="#DejaVuSans-31"/>
       <use xlink:href="#DejaVuSans-2e" x="63.623047"/>
       <use xlink:href="#DejaVuSans-37" x="95.410156"/>
       <use xlink:href="#DejaVuSans-35" x="159.033203"/>
      </g>
     </g>
    </g>
    <g id="ytick_9">
     <g id="line2d_18">
      <g>
       <use xlink:href="#m349c05952b" x="54.982813" y="24.603405" style="stroke: #000000; stroke-width: 0.8"/>
      </g>
     </g>
     <g id="text_19">
      <!-- 2.00 -->
      <g transform="translate(25.717188 28.402624) scale(0.1 -0.1)">
       <use xlink:href="#DejaVuSans-32"/>
       <use xlink:href="#DejaVuSans-2e" x="63.623047"/>
       <use xlink:href="#DejaVuSans-30" x="95.410156"/>
       <use xlink:href="#DejaVuSans-30" x="159.033203"/>
      </g>
     </g>
    </g>
    <g id="text_20">
     <!-- $ \mathit{-Z^{\prime\prime}} \,/\, \mathrm{M\Omega}$ -->
     <g transform="translate(18.597656 178.05) rotate(-90) scale(0.15 -0.15)">
      <defs>
       <path id="DejaVuSans-2212" d="M 678 2272 
L 4684 2272 
L 4684 1741 
L 678 1741 
L 678 2272 
z
" transform="scale(0.015625)"/>
      </defs>
      <use xlink:href="#DejaVuSans-2212" transform="translate(0 0.584375)"/>
      <use xlink:href="#DejaVuSans-Oblique-5a" transform="translate(83.789062 0.584375)"/>
      <use xlink:href="#Cmsy10-30" transform="translate(159.311693 38.865625) scale(0.7)"/>
      <use xlink:href="#Cmsy10-30" transform="translate(178.554857 38.865625) scale(0.7)"/>
      <use xlink:href="#DejaVuSans-2f" transform="translate(216.768072 0.584375)"/>
      <use xlink:href="#DejaVuSans-4d" transform="translate(266.695155 0.584375)"/>
      <use xlink:href="#DejaVuSans-3a9" transform="translate(352.974451 0.584375)"/>
     </g>
    </g>
   </g>
   <g id="line2d_19">
    <defs>
     <path id="me48d77d659" d="M 0 -3 
L -2.598076 -1.5 
L -2.598076 1.5 
L -0 3 
L 2.598076 1.5 
L 2.598076 -1.5 
z
" style="stroke: #000000; stroke-linejoin: miter"/>
    </defs>
    <g clip-path="url(#pec9edc5563)">
     <use xlink:href="#me48d77d659" x="57.931088" y="278.376226" style="fill: #808080; stroke: #000000; stroke-linejoin: miter"/>
     <use xlink:href="#me48d77d659" x="59.18992" y="276.4025" style="fill: #808080; stroke: #000000; stroke-linejoin: miter"/>
     <use xlink:href="#me48d77d659" x="61.072808" y="274.268452" style="fill: #808080; stroke: #000000; stroke-linejoin: miter"/>
     <use xlink:href="#me48d77d659" x="63.630324" y="271.565256" style="fill: #808080; stroke: #000000; stroke-linejoin: miter"/>
     <use xlink:href="#me48d77d659" x="67.018851" y="268.605017" style="fill: #808080; stroke: #000000; stroke-linejoin: miter"/>
     <use xlink:href="#me48d77d659" x="70.955367" y="264.8707" style="fill: #808080; stroke: #000000; stroke-linejoin: miter"/>
     <use xlink:href="#me48d77d659" x="75.565717" y="260.29854" style="fill: #808080; stroke: #000000; stroke-linejoin: miter"/>
     <use xlink:href="#me48d77d659" x="81.761217" y="254.735515" style="fill: #808080; stroke: #000000; stroke-linejoin: miter"/>
     <use xlink:href="#me48d77d659" x="89.647472" y="248.216959" style="fill: #808080; stroke: #000000; stroke-linejoin: miter"/>
     <use xlink:href="#me48d77d659" x="100.544381" y="240.606088" style="fill: #808080; stroke: #000000; stroke-linejoin: miter"/>
     <use xlink:href="#me48d77d659" x="115.281732" y="233.32295" style="fill: #808080; stroke: #000000; stroke-linejoin: miter"/>
     <use xlink:href="#me48d77d659" x="134.005013" y="228.691816" style="fill: #808080; stroke: #000000; stroke-linejoin: miter"/>
     <use xlink:href="#me48d77d659" x="154.456461" y="229.285711" style="fill: #808080; stroke: #000000; stroke-linejoin: miter"/>
     <use xlink:href="#me48d77d659" x="172.948133" y="235.00981" style="fill: #808080; stroke: #000000; stroke-linejoin: miter"/>
     <use xlink:href="#me48d77d659" x="186.734759" y="243.913688" style="fill: #808080; stroke: #000000; stroke-linejoin: miter"/>
     <use xlink:href="#me48d77d659" x="196.045869" y="252.555822" style="fill: #808080; stroke: #000000; stroke-linejoin: miter"/>
     <use xlink:href="#me48d77d659" x="202.300472" y="259.787" style="fill: #808080; stroke: #000000; stroke-linejoin: miter"/>
     <use xlink:href="#me48d77d659" x="206.740396" y="265.38237" style="fill: #808080; stroke: #000000; stroke-linejoin: miter"/>
     <use xlink:href="#me48d77d659" x="209.729355" y="269.859834" style="fill: #808080; stroke: #000000; stroke-linejoin: miter"/>
     <use xlink:href="#me48d77d659" x="211.863584" y="273.00258" style="fill: #808080; stroke: #000000; stroke-linejoin: miter"/>
     <use xlink:href="#me48d77d659" x="213.678264" y="275.178507" style="fill: #808080; stroke: #000000; stroke-linejoin: miter"/>
     <use xlink:href="#me48d77d659" x="215.192878" y="276.773957" style="fill: #808080; stroke: #000000; stroke-linejoin: miter"/>
     <use xlink:href="#me48d77d659" x="216.49316" y="277.818196" style="fill: #808080; stroke: #000000; stroke-linejoin: miter"/>
     <use xlink:href="#me48d77d659" x="217.60379" y="278.493057" style="fill: #808080; stroke: #000000; stroke-linejoin: miter"/>
     <use xlink:href="#me48d77d659" x="218.7404" y="278.754256" style="fill: #808080; stroke: #000000; stroke-linejoin: miter"/>
     <use xlink:href="#me48d77d659" x="219.897794" y="278.769987" style="fill: #808080; stroke: #000000; stroke-linejoin: miter"/>
     <use xlink:href="#me48d77d659" x="221.117539" y="278.519868" style="fill: #808080; stroke: #000000; stroke-linejoin: miter"/>
     <use xlink:href="#me48d77d659" x="222.412625" y="278.014667" style="fill: #808080; stroke: #000000; stroke-linejoin: miter"/>
     <use xlink:href="#me48d77d659" x="223.779155" y="277.241928" style="fill: #808080; stroke: #000000; stroke-linejoin: miter"/>
     <use xlink:href="#me48d77d659" x="225.336636" y="276.052255" style="fill: #808080; stroke: #000000; stroke-linejoin: miter"/>
     <use xlink:href="#me48d77d659" x="227.114943" y="274.389868" style="fill: #808080; stroke: #000000; stroke-linejoin: miter"/>
     <use xlink:href="#me48d77d659" x="229.238781" y="272.194379" style="fill: #808080; stroke: #000000; stroke-linejoin: miter"/>
     <use xlink:href="#me48d77d659" x="231.812066" y="269.212681" style="fill: #808080; stroke: #000000; stroke-linejoin: miter"/>
     <use xlink:href="#me48d77d659" x="235.043936" y="265.499018" style="fill: #808080; stroke: #000000; stroke-linejoin: miter"/>
     <use xlink:href="#me48d77d659" x="239.213671" y="260.358813" style="fill: #808080; stroke: #000000; stroke-linejoin: miter"/>
     <use xlink:href="#me48d77d659" x="244.279705" y="253.546297" style="fill: #808080; stroke: #000000; stroke-linejoin: miter"/>
     <use xlink:href="#me48d77d659" x="250.665505" y="244.798036" style="fill: #808080; stroke: #000000; stroke-linejoin: miter"/>
     <use xlink:href="#me48d77d659" x="258.823118" y="233.601582" style="fill: #808080; stroke: #000000; stroke-linejoin: miter"/>
     <use xlink:href="#me48d77d659" x="268.353756" y="219.596207" style="fill: #808080; stroke: #000000; stroke-linejoin: miter"/>
     <use xlink:href="#me48d77d659" x="281.580001" y="201.510338" style="fill: #808080; stroke: #000000; stroke-linejoin: miter"/>
     <use xlink:href="#me48d77d659" x="298.268035" y="178.205414" style="fill: #808080; stroke: #000000; stroke-linejoin: miter"/>
     <use xlink:href="#me48d77d659" x="319.123207" y="147.772971" style="fill: #808080; stroke: #000000; stroke-linejoin: miter"/>
    </g>
   </g>
   <g id="line2d_20">
    <defs>
     <path id="mee079ba976" d="M 0 -3 
L -0.673542 -0.927051 
L -2.85317 -0.927051 
L -1.089814 0.354102 
L -1.763356 2.427051 
L -0 1.145898 
L 1.763356 2.427051 
L 1.089814 0.354102 
L 2.85317 -0.927051 
L 0.673542 -0.927051 
z
" style="stroke: #8b0000; stroke-linejoin: bevel"/>
    </defs>
    <g clip-path="url(#pec9edc5563)">
     <use xlink:href="#mee079ba976" x="57.803089" y="278.416827" style="fill-opacity: 0; stroke: #8b0000; stroke-linejoin: bevel"/>
     <use xlink:href="#mee079ba976" x="59.207331" y="276.472447" style="fill-opacity: 0; stroke: #8b0000; stroke-linejoin: bevel"/>
     <use xlink:href="#mee079ba976" x="61.192339" y="274.171751" style="fill-opacity: 0; stroke: #8b0000; stroke-linejoin: bevel"/>
     <use xlink:href="#mee079ba976" x="63.802386" y="271.55842" style="fill-opacity: 0; stroke: #8b0000; stroke-linejoin: bevel"/>
     <use xlink:href="#mee079ba976" x="66.994592" y="268.577634" style="fill-opacity: 0; stroke: #8b0000; stroke-linejoin: bevel"/>
     <use xlink:href="#mee079ba976" x="70.776749" y="264.977329" style="fill-opacity: 0; stroke: #8b0000; stroke-linejoin: bevel"/>
     <use xlink:href="#mee079ba976" x="75.402527" y="260.386536" style="fill-opacity: 0; stroke: #8b0000; stroke-linejoin: bevel"/>
     <use xlink:href="#mee079ba976" x="81.460089" y="254.539607" style="fill-opacity: 0; stroke: #8b0000; stroke-linejoin: bevel"/>
     <use xlink:href="#mee079ba976" x="89.795151" y="247.539325" style="fill-opacity: 0; stroke: #8b0000; stroke-linejoin: bevel"/>
     <use xlink:href="#mee079ba976" x="101.276835" y="240.098879" style="fill-opacity: 0; stroke: #8b0000; stroke-linejoin: bevel"/>
     <use xlink:href="#mee079ba976" x="116.327681" y="233.655998" style="fill-opacity: 0; stroke: #8b0000; stroke-linejoin: bevel"/>
     <use xlink:href="#mee079ba976" x="134.308506" y="230.046373" style="fill-opacity: 0; stroke: #8b0000; stroke-linejoin: bevel"/>
     <use xlink:href="#mee079ba976" x="153.298095" y="230.581707" style="fill-opacity: 0; stroke: #8b0000; stroke-linejoin: bevel"/>
     <use xlink:href="#mee079ba976" x="170.840887" y="235.155016" style="fill-opacity: 0; stroke: #8b0000; stroke-linejoin: bevel"/>
     <use xlink:href="#mee079ba976" x="185.177117" y="242.333327" style="fill-opacity: 0; stroke: #8b0000; stroke-linejoin: bevel"/>
     <use xlink:href="#mee079ba976" x="195.829325" y="250.323156" style="fill-opacity: 0; stroke: #8b0000; stroke-linejoin: bevel"/>
     <use xlink:href="#mee079ba976" x="203.265146" y="257.799026" style="fill-opacity: 0; stroke: #8b0000; stroke-linejoin: bevel"/>
     <use xlink:href="#mee079ba976" x="208.29108" y="264.111393" style="fill-opacity: 0; stroke: #8b0000; stroke-linejoin: bevel"/>
     <use xlink:href="#mee079ba976" x="211.661891" y="269.108373" style="fill-opacity: 0; stroke: #8b0000; stroke-linejoin: bevel"/>
     <use xlink:href="#mee079ba976" x="213.947434" y="272.893153" style="fill-opacity: 0; stroke: #8b0000; stroke-linejoin: bevel"/>
     <use xlink:href="#mee079ba976" x="215.539615" y="275.660461" style="fill-opacity: 0; stroke: #8b0000; stroke-linejoin: bevel"/>
     <use xlink:href="#mee079ba976" x="216.698175" y="277.611241" style="fill-opacity: 0; stroke: #8b0000; stroke-linejoin: bevel"/>
     <use xlink:href="#mee079ba976" x="217.594585" y="278.916181" style="fill-opacity: 0; stroke: #8b0000; stroke-linejoin: bevel"/>
     <use xlink:href="#mee079ba976" x="218.346087" y="279.707493" style="fill-opacity: 0; stroke: #8b0000; stroke-linejoin: bevel"/>
     <use xlink:href="#mee079ba976" x="219.036975" y="280.078346" style="fill-opacity: 0; stroke: #8b0000; stroke-linejoin: bevel"/>
     <use xlink:href="#mee079ba976" x="219.733371" y="280.0876" style="fill-opacity: 0; stroke: #8b0000; stroke-linejoin: bevel"/>
     <use xlink:href="#mee079ba976" x="220.49267" y="279.764079" style="fill-opacity: 0; stroke: #8b0000; stroke-linejoin: bevel"/>
     <use xlink:href="#mee079ba976" x="221.370497" y="279.109789" style="fill-opacity: 0; stroke: #8b0000; stroke-linejoin: bevel"/>
     <use xlink:href="#mee079ba976" x="222.425792" y="278.101733" style="fill-opacity: 0; stroke: #8b0000; stroke-linejoin: bevel"/>
     <use xlink:href="#mee079ba976" x="223.725784" y="276.691753" style="fill-opacity: 0; stroke: #8b0000; stroke-linejoin: bevel"/>
     <use xlink:href="#mee079ba976" x="225.350512" y="274.804967" style="fill-opacity: 0; stroke: #8b0000; stroke-linejoin: bevel"/>
     <use xlink:href="#mee079ba976" x="227.398596" y="272.335541" style="fill-opacity: 0; stroke: #8b0000; stroke-linejoin: bevel"/>
     <use xlink:href="#mee079ba976" x="229.992123" y="269.142562" style="fill-opacity: 0; stroke: #8b0000; stroke-linejoin: bevel"/>
     <use xlink:href="#mee079ba976" x="233.286248" y="265.039548" style="fill-opacity: 0; stroke: #8b0000; stroke-linejoin: bevel"/>
     <use xlink:href="#mee079ba976" x="237.47588" y="259.786976" style="fill-opacity: 0; stroke: #8b0000; stroke-linejoin: bevel"/>
     <use xlink:href="#mee079ba976" x="242.809207" y="253.076027" style="fill-opacity: 0; stroke: #8b0000; stroke-linejoin: bevel"/>
     <use xlink:href="#mee079ba976" x="249.60223" y="244.510746" style="fill-opacity: 0; stroke: #8b0000; stroke-linejoin: bevel"/>
     <use xlink:href="#mee079ba976" x="258.255369" y="233.587448" style="fill-opacity: 0; stroke: #8b0000; stroke-linejoin: bevel"/>
     <use xlink:href="#mee079ba976" x="269.280788" y="219.660463" style="fill-opacity: 0; stroke: #8b0000; stroke-linejoin: bevel"/>
     <use xlink:href="#mee079ba976" x="283.332557" y="201.9042" style="fill-opacity: 0; stroke: #8b0000; stroke-linejoin: bevel"/>
     <use xlink:href="#mee079ba976" x="301.2375" y="179.274302" style="fill-opacity: 0; stroke: #8b0000; stroke-linejoin: bevel"/>
     <use xlink:href="#mee079ba976" x="324.055826" y="150.431094" style="fill-opacity: 0; stroke: #8b0000; stroke-linejoin: bevel"/>
    </g>
   </g>
   <g id="patch_3">
    <path d="M 54.982813 284.4 
L 54.982813 7.2 
" style="fill: none; stroke: #000000; stroke-width: 0.8; stroke-linejoin: miter; stroke-linecap: square"/>
   </g>
   <g id="patch_4">
    <path d="M 332.182812 284.4 
L 332.182812 7.2 
" style="fill: none; stroke: #000000; stroke-width: 0.8; stroke-linejoin: miter; stroke-linecap: square"/>
   </g>
   <g id="patch_5">
    <path d="M 54.982813 284.4 
L 332.182812 284.4 
" style="fill: none; stroke: #000000; stroke-width: 0.8; stroke-linejoin: miter; stroke-linecap: square"/>
   </g>
   <g id="patch_6">
    <path d="M 54.982813 7.2 
L 332.182812 7.2 
" style="fill: none; stroke: #000000; stroke-width: 0.8; stroke-linejoin: miter; stroke-linecap: square"/>
   </g>
   <g id="legend_1">
    <g id="patch_7">
     <path d="M 266.7175 33.544062 
L 327.282812 33.544062 
Q 328.682812 33.544062 328.682812 32.144063 
L 328.682812 12.1 
Q 328.682812 10.7 327.282812 10.7 
L 266.7175 10.7 
Q 265.3175 10.7 265.3175 12.1 
L 265.3175 32.144063 
Q 265.3175 33.544062 266.7175 33.544062 
z
" style="fill: #ffffff; opacity: 0.8; stroke: #cccccc; stroke-linejoin: miter"/>
    </g>
    <g id="line2d_21">
     <g>
      <use xlink:href="#me48d77d659" x="275.1175" y="16.368906" style="fill: #808080; stroke: #000000; stroke-linejoin: miter"/>
     </g>
    </g>
    <g id="text_21">
     <!-- Data_423K -->
     <g transform="translate(287.7175 18.818906) scale(0.07 -0.07)">
      <defs>
       <path id="DejaVuSans-44" d="M 1259 4147 
L 1259 519 
L 2022 519 
Q 2988 519 3436 956 
Q 3884 1394 3884 2338 
Q 3884 3275 3436 3711 
Q 2988 4147 2022 4147 
L 1259 4147 
z
M 628 4666 
L 1925 4666 
Q 3281 4666 3915 4102 
Q 4550 3538 4550 2338 
Q 4550 1131 3912 565 
Q 3275 0 1925 0 
L 628 0 
L 628 4666 
z
" transform="scale(0.015625)"/>
       <path id="DejaVuSans-61" d="M 2194 1759 
Q 1497 1759 1228 1600 
Q 959 1441 959 1056 
Q 959 750 1161 570 
Q 1363 391 1709 391 
Q 2188 391 2477 730 
Q 2766 1069 2766 1631 
L 2766 1759 
L 2194 1759 
z
M 3341 1997 
L 3341 0 
L 2766 0 
L 2766 531 
Q 2569 213 2275 61 
Q 1981 -91 1556 -91 
Q 1019 -91 701 211 
Q 384 513 384 1019 
Q 384 1609 779 1909 
Q 1175 2209 1959 2209 
L 2766 2209 
L 2766 2266 
Q 2766 2663 2505 2880 
Q 2244 3097 1772 3097 
Q 1472 3097 1187 3025 
Q 903 2953 641 2809 
L 641 3341 
Q 956 3463 1253 3523 
Q 1550 3584 1831 3584 
Q 2591 3584 2966 3190 
Q 3341 2797 3341 1997 
z
" transform="scale(0.015625)"/>
       <path id="DejaVuSans-74" d="M 1172 4494 
L 1172 3500 
L 2356 3500 
L 2356 3053 
L 1172 3053 
L 1172 1153 
Q 1172 725 1289 603 
Q 1406 481 1766 481 
L 2356 481 
L 2356 0 
L 1766 0 
Q 1100 0 847 248 
Q 594 497 594 1153 
L 594 3053 
L 172 3053 
L 172 3500 
L 594 3500 
L 594 4494 
L 1172 4494 
z
" transform="scale(0.015625)"/>
       <path id="DejaVuSans-5f" d="M 3263 -1063 
L 3263 -1509 
L -63 -1509 
L -63 -1063 
L 3263 -1063 
z
" transform="scale(0.015625)"/>
       <path id="DejaVuSans-34" d="M 2419 4116 
L 825 1625 
L 2419 1625 
L 2419 4116 
z
M 2253 4666 
L 3047 4666 
L 3047 1625 
L 3713 1625 
L 3713 1100 
L 3047 1100 
L 3047 0 
L 2419 0 
L 2419 1100 
L 313 1100 
L 313 1709 
L 2253 4666 
z
" transform="scale(0.015625)"/>
       <path id="DejaVuSans-33" d="M 2597 2516 
Q 3050 2419 3304 2112 
Q 3559 1806 3559 1356 
Q 3559 666 3084 287 
Q 2609 -91 1734 -91 
Q 1441 -91 1130 -33 
Q 819 25 488 141 
L 488 750 
Q 750 597 1062 519 
Q 1375 441 1716 441 
Q 2309 441 2620 675 
Q 2931 909 2931 1356 
Q 2931 1769 2642 2001 
Q 2353 2234 1838 2234 
L 1294 2234 
L 1294 2753 
L 1863 2753 
Q 2328 2753 2575 2939 
Q 2822 3125 2822 3475 
Q 2822 3834 2567 4026 
Q 2313 4219 1838 4219 
Q 1578 4219 1281 4162 
Q 984 4106 628 3988 
L 628 4550 
Q 988 4650 1302 4700 
Q 1616 4750 1894 4750 
Q 2613 4750 3031 4423 
Q 3450 4097 3450 3541 
Q 3450 3153 3228 2886 
Q 3006 2619 2597 2516 
z
" transform="scale(0.015625)"/>
       <path id="DejaVuSans-4b" d="M 628 4666 
L 1259 4666 
L 1259 2694 
L 3353 4666 
L 4166 4666 
L 1850 2491 
L 4331 0 
L 3500 0 
L 1259 2247 
L 1259 0 
L 628 0 
L 628 4666 
z
" transform="scale(0.015625)"/>
      </defs>
      <use xlink:href="#DejaVuSans-44"/>
      <use xlink:href="#DejaVuSans-61" x="77.001953"/>
      <use xlink:href="#DejaVuSans-74" x="138.28125"/>
      <use xlink:href="#DejaVuSans-61" x="177.490234"/>
      <use xlink:href="#DejaVuSans-5f" x="238.769531"/>
      <use xlink:href="#DejaVuSans-34" x="288.769531"/>
      <use xlink:href="#DejaVuSans-32" x="352.392578"/>
      <use xlink:href="#DejaVuSans-33" x="416.015625"/>
      <use xlink:href="#DejaVuSans-4b" x="479.638672"/>
     </g>
    </g>
    <g id="line2d_22">
     <g>
      <use xlink:href="#mee079ba976" x="275.1175" y="26.838281" style="fill-opacity: 0; stroke: #8b0000; stroke-linejoin: bevel"/>
     </g>
    </g>
    <g id="text_22">
     <!-- Fit -->
     <g transform="translate(287.7175 29.288281) scale(0.07 -0.07)">
      <defs>
       <path id="DejaVuSans-46" d="M 628 4666 
L 3309 4666 
L 3309 4134 
L 1259 4134 
L 1259 2759 
L 3109 2759 
L 3109 2228 
L 1259 2228 
L 1259 0 
L 628 0 
L 628 4666 
z
" transform="scale(0.015625)"/>
       <path id="DejaVuSans-69" d="M 603 3500 
L 1178 3500 
L 1178 0 
L 603 0 
L 603 3500 
z
M 603 4863 
L 1178 4863 
L 1178 4134 
L 603 4134 
L 603 4863 
z
" transform="scale(0.015625)"/>
      </defs>
      <use xlink:href="#DejaVuSans-46"/>
      <use xlink:href="#DejaVuSans-69" x="50.269531"/>
      <use xlink:href="#DejaVuSans-74" x="78.052734"/>
     </g>
    </g>
   </g>
  </g>
 </g>
 <defs>
  <clipPath id="pec9edc5563">
   <rect x="54.982813" y="7.2" width="277.2" height="277.2"/>
  </clipPath>
 </defs>
</svg>
