<?xml version="1.0" encoding="utf-8" standalone="no"?>
<!DOCTYPE svg PUBLIC "-//W3C//DTD SVG 1.1//EN"
  "http://www.w3.org/Graphics/SVG/1.1/DTD/svg11.dtd">
<svg xmlns:xlink="http://www.w3.org/1999/xlink" width="336.204687pt" height="326.795313pt" viewBox="0 0 336.204687 326.795313" xmlns="http://www.w3.org/2000/svg" version="1.1">
 <metadata>
  <rdf:RDF xmlns:dc="http://purl.org/dc/elements/1.1/" xmlns:cc="http://creativecommons.org/ns#" xmlns:rdf="http://www.w3.org/1999/02/22-rdf-syntax-ns#">
   <cc:Work>
    <dc:type rdf:resource="http://purl.org/dc/dcmitype/StillImage"/>
    <dc:date>2025-04-27T16:44:35.992257</dc:date>
    <dc:format>image/svg+xml</dc:format>
    <dc:creator>
     <cc:Agent>
      <dc:title>Matplotlib v3.7.2, https://matplotlib.org/</dc:title>
     </cc:Agent>
    </dc:creator>
   </cc:Work>
  </rdf:RDF>
 </metadata>
 <defs>
  <style type="text/css">*{stroke-linejoin: round; stroke-linecap: butt}</style>
 </defs>
 <g id="figure_1">
  <g id="patch_1">
   <path d="M 0 326.795313 
L 336.204687 326.795313 
L 336.204687 0 
L 0 0 
z
" style="fill: #ffffff"/>
  </g>
  <g id="axes_1">
   <g id="patch_2">
    <path d="M 51.804688 284.4 
L 329.004687 284.4 
L 329.004687 7.2 
L 51.804688 7.2 
z
" style="fill: #ffffff"/>
   </g>
   <g id="matplotlib.axis_1">
    <g id="xtick_1">
     <g id="line2d_1">
      <defs>
       <path id="m53494c5384" d="M 0 0 
L 0 3.5 
" style="stroke: #000000; stroke-width: 0.8"/>
      </defs>
      <g>
       <use xlink:href="#m53494c5384" x="51.804688" y="284.4" style="stroke: #000000; stroke-width: 0.8"/>
      </g>
     </g>
     <g id="text_1">
      <!-- 0 -->
      <g transform="translate(48.623438 298.998438) scale(0.1 -0.1)">
       <defs>
        <path id="DejaVuSans-30" d="M 2034 4250 
Q 1547 4250 1301 3770 
Q 1056 3291 1056 2328 
Q 1056 1369 1301 889 
Q 1547 409 2034 409 
Q 2525 409 2770 889 
Q 3016 1369 3016 2328 
Q 3016 3291 2770 3770 
Q 2525 4250 2034 4250 
z
M 2034 4750 
Q 2819 4750 3233 4129 
Q 3647 3509 3647 2328 
Q 3647 1150 3233 529 
Q 2819 -91 2034 -91 
Q 1250 -91 836 529 
Q 422 1150 422 2328 
Q 422 3509 836 4129 
Q 1250 4750 2034 4750 
z
" transform="scale(0.015625)"/>
       </defs>
       <use xlink:href="#DejaVuSans-30"/>
      </g>
     </g>
    </g>
    <g id="xtick_2">
     <g id="line2d_2">
      <g>
       <use xlink:href="#m53494c5384" x="86.465418" y="284.4" style="stroke: #000000; stroke-width: 0.8"/>
      </g>
     </g>
     <g id="text_2">
      <!-- 50 -->
      <g transform="translate(80.102918 298.998438) scale(0.1 -0.1)">
       <defs>
        <path id="DejaVuSans-35" d="M 691 4666 
L 3169 4666 
L 3169 4134 
L 1269 4134 
L 1269 2991 
Q 1406 3038 1543 3061 
Q 1681 3084 1819 3084 
Q 2600 3084 3056 2656 
Q 3513 2228 3513 1497 
Q 3513 744 3044 326 
Q 2575 -91 1722 -91 
Q 1428 -91 1123 -41 
Q 819 9 494 109 
L 494 744 
Q 775 591 1075 516 
Q 1375 441 1709 441 
Q 2250 441 2565 725 
Q 2881 1009 2881 1497 
Q 2881 1984 2565 2268 
Q 2250 2553 1709 2553 
Q 1456 2553 1204 2497 
Q 953 2441 691 2322 
L 691 4666 
z
" transform="scale(0.015625)"/>
       </defs>
       <use xlink:href="#DejaVuSans-35"/>
       <use xlink:href="#DejaVuSans-30" x="63.623047"/>
      </g>
     </g>
    </g>
    <g id="xtick_3">
     <g id="line2d_3">
      <g>
       <use xlink:href="#m53494c5384" x="121.126149" y="284.4" style="stroke: #000000; stroke-width: 0.8"/>
      </g>
     </g>
     <g id="text_3">
      <!-- 100 -->
      <g transform="translate(111.582399 298.998438) scale(0.1 -0.1)">
       <defs>
        <path id="DejaVuSans-31" d="M 794 531 
L 1825 531 
L 1825 4091 
L 703 3866 
L 703 4441 
L 1819 4666 
L 2450 4666 
L 2450 531 
L 3481 531 
L 3481 0 
L 794 0 
L 794 531 
z
" transform="scale(0.015625)"/>
       </defs>
       <use xlink:href="#DejaVuSans-31"/>
       <use xlink:href="#DejaVuSans-30" x="63.623047"/>
       <use xlink:href="#DejaVuSans-30" x="127.246094"/>
      </g>
     </g>
    </g>
    <g id="xtick_4">
     <g id="line2d_4">
      <g>
       <use xlink:href="#m53494c5384" x="155.78688" y="284.4" style="stroke: #000000; stroke-width: 0.8"/>
      </g>
     </g>
     <g id="text_4">
      <!-- 150 -->
      <g transform="translate(146.24313 298.998438) scale(0.1 -0.1)">
       <use xlink:href="#DejaVuSans-31"/>
       <use xlink:href="#DejaVuSans-35" x="63.623047"/>
       <use xlink:href="#DejaVuSans-30" x="127.246094"/>
      </g>
     </g>
    </g>
    <g id="xtick_5">
     <g id="line2d_5">
      <g>
       <use xlink:href="#m53494c5384" x="190.447611" y="284.4" style="stroke: #000000; stroke-width: 0.8"/>
      </g>
     </g>
     <g id="text_5">
      <!-- 200 -->
      <g transform="translate(180.903861 298.998438) scale(0.1 -0.1)">
       <defs>
        <path id="DejaVuSans-32" d="M 1228 531 
L 3431 531 
L 3431 0 
L 469 0 
L 469 531 
Q 828 903 1448 1529 
Q 2069 2156 2228 2338 
Q 2531 2678 2651 2914 
Q 2772 3150 2772 3378 
Q 2772 3750 2511 3984 
Q 2250 4219 1831 4219 
Q 1534 4219 1204 4116 
Q 875 4013 500 3803 
L 500 4441 
Q 881 4594 1212 4672 
Q 1544 4750 1819 4750 
Q 2544 4750 2975 4387 
Q 3406 4025 3406 3419 
Q 3406 3131 3298 2873 
Q 3191 2616 2906 2266 
Q 2828 2175 2409 1742 
Q 1991 1309 1228 531 
z
" transform="scale(0.015625)"/>
       </defs>
       <use xlink:href="#DejaVuSans-32"/>
       <use xlink:href="#DejaVuSans-30" x="63.623047"/>
       <use xlink:href="#DejaVuSans-30" x="127.246094"/>
      </g>
     </g>
    </g>
    <g id="xtick_6">
     <g id="line2d_6">
      <g>
       <use xlink:href="#m53494c5384" x="225.108342" y="284.4" style="stroke: #000000; stroke-width: 0.8"/>
      </g>
     </g>
     <g id="text_6">
      <!-- 250 -->
      <g transform="translate(215.564592 298.998438) scale(0.1 -0.1)">
       <use xlink:href="#DejaVuSans-32"/>
       <use xlink:href="#DejaVuSans-35" x="63.623047"/>
       <use xlink:href="#DejaVuSans-30" x="127.246094"/>
      </g>
     </g>
    </g>
    <g id="xtick_7">
     <g id="line2d_7">
      <g>
       <use xlink:href="#m53494c5384" x="259.769073" y="284.4" style="stroke: #000000; stroke-width: 0.8"/>
      </g>
     </g>
     <g id="text_7">
      <!-- 300 -->
      <g transform="translate(250.225323 298.998438) scale(0.1 -0.1)">
       <defs>
        <path id="DejaVuSans-33" d="M 2597 2516 
Q 3050 2419 3304 2112 
Q 3559 1806 3559 1356 
Q 3559 666 3084 287 
Q 2609 -91 1734 -91 
Q 1441 -91 1130 -33 
Q 819 25 488 141 
L 488 750 
Q 750 597 1062 519 
Q 1375 441 1716 441 
Q 2309 441 2620 675 
Q 2931 909 2931 1356 
Q 2931 1769 2642 2001 
Q 2353 2234 1838 2234 
L 1294 2234 
L 1294 2753 
L 1863 2753 
Q 2328 2753 2575 2939 
Q 2822 3125 2822 3475 
Q 2822 3834 2567 4026 
Q 2313 4219 1838 4219 
Q 1578 4219 1281 4162 
Q 984 4106 628 3988 
L 628 4550 
Q 988 4650 1302 4700 
Q 1616 4750 1894 4750 
Q 2613 4750 3031 4423 
Q 3450 4097 3450 3541 
Q 3450 3153 3228 2886 
Q 3006 2619 2597 2516 
z
" transform="scale(0.015625)"/>
       </defs>
       <use xlink:href="#DejaVuSans-33"/>
       <use xlink:href="#DejaVuSans-30" x="63.623047"/>
       <use xlink:href="#DejaVuSans-30" x="127.246094"/>
      </g>
     </g>
    </g>
    <g id="xtick_8">
     <g id="line2d_8">
      <g>
       <use xlink:href="#m53494c5384" x="294.429804" y="284.4" style="stroke: #000000; stroke-width: 0.8"/>
      </g>
     </g>
     <g id="text_8">
      <!-- 350 -->
      <g transform="translate(284.886054 298.998438) scale(0.1 -0.1)">
       <use xlink:href="#DejaVuSans-33"/>
       <use xlink:href="#DejaVuSans-35" x="63.623047"/>
       <use xlink:href="#DejaVuSans-30" x="127.246094"/>
      </g>
     </g>
    </g>
    <g id="text_9">
     <!-- $ \mathit{Z^{\prime}} \,/\, \mathrm{k\Omega}$ -->
     <g transform="translate(168.054688 316.475781) scale(0.15 -0.15)">
      <defs>
       <path id="DejaVuSans-Oblique-5a" d="M 838 4666 
L 4500 4666 
L 4409 4184 
L 794 531 
L 3769 531 
L 3669 0 
L -141 0 
L -50 481 
L 3566 4134 
L 738 4134 
L 838 4666 
z
" transform="scale(0.015625)"/>
       <path id="Cmsy10-30" d="M 225 347 
Q 184 359 184 409 
L 966 3316 
Q 1003 3434 1093 3506 
Q 1184 3578 1300 3578 
Q 1450 3578 1564 3479 
Q 1678 3381 1678 3231 
Q 1678 3166 1644 3084 
L 488 319 
Q 466 275 428 275 
Q 394 275 320 306 
Q 247 338 225 347 
z
" transform="scale(0.015625)"/>
       <path id="DejaVuSans-2f" d="M 1625 4666 
L 2156 4666 
L 531 -594 
L 0 -594 
L 1625 4666 
z
" transform="scale(0.015625)"/>
       <path id="DejaVuSans-6b" d="M 581 4863 
L 1159 4863 
L 1159 1991 
L 2875 3500 
L 3609 3500 
L 1753 1863 
L 3688 0 
L 2938 0 
L 1159 1709 
L 1159 0 
L 581 0 
L 581 4863 
z
" transform="scale(0.015625)"/>
       <path id="DejaVuSans-3a9" d="M 4647 556 
L 4647 0 
L 2772 0 
L 2772 556 
Q 3325 859 3634 1378 
Q 3944 1897 3944 2528 
Q 3944 3278 3531 3731 
Q 3119 4184 2444 4184 
Q 1769 4184 1355 3729 
Q 941 3275 941 2528 
Q 941 1897 1250 1378 
Q 1563 859 2119 556 
L 2119 0 
L 244 0 
L 244 556 
L 1241 556 
Q 747 991 519 1456 
Q 294 1922 294 2497 
Q 294 3491 894 4106 
Q 1491 4722 2444 4722 
Q 3391 4722 3994 4106 
Q 4594 3494 4594 2528 
Q 4594 1922 4372 1459 
Q 4150 997 3647 556 
L 4647 556 
z
" transform="scale(0.015625)"/>
      </defs>
      <use xlink:href="#DejaVuSans-Oblique-5a" transform="translate(0 0.584375)"/>
      <use xlink:href="#Cmsy10-30" transform="translate(75.52263 38.865625) scale(0.7)"/>
      <use xlink:href="#DejaVuSans-2f" transform="translate(113.735846 0.584375)"/>
      <use xlink:href="#DejaVuSans-6b" transform="translate(163.662928 0.584375)"/>
      <use xlink:href="#DejaVuSans-3a9" transform="translate(221.573084 0.584375)"/>
     </g>
    </g>
   </g>
   <g id="matplotlib.axis_2">
    <g id="ytick_1">
     <g id="line2d_9">
      <defs>
       <path id="m4a1fdf35ff" d="M 0 0 
L -3.5 0 
" style="stroke: #000000; stroke-width: 0.8"/>
      </defs>
      <g>
       <use xlink:href="#m4a1fdf35ff" x="51.804688" y="284.4" style="stroke: #000000; stroke-width: 0.8"/>
      </g>
     </g>
     <g id="text_10">
      <!-- 0 -->
      <g transform="translate(38.442188 288.199219) scale(0.1 -0.1)">
       <use xlink:href="#DejaVuSans-30"/>
      </g>
     </g>
    </g>
    <g id="ytick_2">
     <g id="line2d_10">
      <g>
       <use xlink:href="#m4a1fdf35ff" x="51.804688" y="249.739269" style="stroke: #000000; stroke-width: 0.8"/>
      </g>
     </g>
     <g id="text_11">
      <!-- 50 -->
      <g transform="translate(32.079687 253.538488) scale(0.1 -0.1)">
       <use xlink:href="#DejaVuSans-35"/>
       <use xlink:href="#DejaVuSans-30" x="63.623047"/>
      </g>
     </g>
    </g>
    <g id="ytick_3">
     <g id="line2d_11">
      <g>
       <use xlink:href="#m4a1fdf35ff" x="51.804688" y="215.078538" style="stroke: #000000; stroke-width: 0.8"/>
      </g>
     </g>
     <g id="text_12">
      <!-- 100 -->
      <g transform="translate(25.717187 218.877757) scale(0.1 -0.1)">
       <use xlink:href="#DejaVuSans-31"/>
       <use xlink:href="#DejaVuSans-30" x="63.623047"/>
       <use xlink:href="#DejaVuSans-30" x="127.246094"/>
      </g>
     </g>
    </g>
    <g id="ytick_4">
     <g id="line2d_12">
      <g>
       <use xlink:href="#m4a1fdf35ff" x="51.804688" y="180.417807" style="stroke: #000000; stroke-width: 0.8"/>
      </g>
     </g>
     <g id="text_13">
      <!-- 150 -->
      <g transform="translate(25.717187 184.217026) scale(0.1 -0.1)">
       <use xlink:href="#DejaVuSans-31"/>
       <use xlink:href="#DejaVuSans-35" x="63.623047"/>
       <use xlink:href="#DejaVuSans-30" x="127.246094"/>
      </g>
     </g>
    </g>
    <g id="ytick_5">
     <g id="line2d_13">
      <g>
       <use xlink:href="#m4a1fdf35ff" x="51.804688" y="145.757076" style="stroke: #000000; stroke-width: 0.8"/>
      </g>
     </g>
     <g id="text_14">
      <!-- 200 -->
      <g transform="translate(25.717187 149.556295) scale(0.1 -0.1)">
       <use xlink:href="#DejaVuSans-32"/>
       <use xlink:href="#DejaVuSans-30" x="63.623047"/>
       <use xlink:href="#DejaVuSans-30" x="127.246094"/>
      </g>
     </g>
    </g>
    <g id="ytick_6">
     <g id="line2d_14">
      <g>
       <use xlink:href="#m4a1fdf35ff" x="51.804688" y="111.096345" style="stroke: #000000; stroke-width: 0.8"/>
      </g>
     </g>
     <g id="text_15">
      <!-- 250 -->
      <g transform="translate(25.717187 114.895564) scale(0.1 -0.1)">
       <use xlink:href="#DejaVuSans-32"/>
       <use xlink:href="#DejaVuSans-35" x="63.623047"/>
       <use xlink:href="#DejaVuSans-30" x="127.246094"/>
      </g>
     </g>
    </g>
    <g id="ytick_7">
     <g id="line2d_15">
      <g>
       <use xlink:href="#m4a1fdf35ff" x="51.804688" y="76.435614" style="stroke: #000000; stroke-width: 0.8"/>
      </g>
     </g>
     <g id="text_16">
      <!-- 300 -->
      <g transform="translate(25.717187 80.234833) scale(0.1 -0.1)">
       <use xlink:href="#DejaVuSans-33"/>
       <use xlink:href="#DejaVuSans-30" x="63.623047"/>
       <use xlink:href="#DejaVuSans-30" x="127.246094"/>
      </g>
     </g>
    </g>
    <g id="ytick_8">
     <g id="line2d_16">
      <g>
       <use xlink:href="#m4a1fdf35ff" x="51.804688" y="41.774883" style="stroke: #000000; stroke-width: 0.8"/>
      </g>
     </g>
     <g id="text_17">
      <!-- 350 -->
      <g transform="translate(25.717187 45.574102) scale(0.1 -0.1)">
       <use xlink:href="#DejaVuSans-33"/>
       <use xlink:href="#DejaVuSans-35" x="63.623047"/>
       <use xlink:href="#DejaVuSans-30" x="127.246094"/>
      </g>
     </g>
    </g>
    <g id="text_18">
     <!-- $ \mathit{-Z^{\prime\prime}} \,/\, \mathrm{k\Omega}$ -->
     <g transform="translate(18.597656 175.95) rotate(-90) scale(0.15 -0.15)">
      <defs>
       <path id="DejaVuSans-2212" d="M 678 2272 
L 4684 2272 
L 4684 1741 
L 678 1741 
L 678 2272 
z
" transform="scale(0.015625)"/>
      </defs>
      <use xlink:href="#DejaVuSans-2212" transform="translate(0 0.584375)"/>
      <use xlink:href="#DejaVuSans-Oblique-5a" transform="translate(83.789062 0.584375)"/>
      <use xlink:href="#Cmsy10-30" transform="translate(159.311693 38.865625) scale(0.7)"/>
      <use xlink:href="#Cmsy10-30" transform="translate(178.554857 38.865625) scale(0.7)"/>
      <use xlink:href="#DejaVuSans-2f" transform="translate(216.768072 0.584375)"/>
      <use xlink:href="#DejaVuSans-6b" transform="translate(266.695155 0.584375)"/>
      <use xlink:href="#DejaVuSans-3a9" transform="translate(324.605311 0.584375)"/>
     </g>
    </g>
   </g>
   <g id="line2d_17">
    <defs>
     <path id="m980bfe6f95" d="M -0 4.242641 
L 2.545584 0 
L 0 -4.242641 
L -2.545584 -0 
z
" style="stroke: #000000; stroke-linejoin: miter"/>
    </defs>
    <g clip-path="url(#p66de988d52)">
     <use xlink:href="#m980bfe6f95" x="64.070288" y="268.724546" style="fill: #808080; stroke: #000000; stroke-linejoin: miter"/>
     <use xlink:href="#m980bfe6f95" x="67.619339" y="265.865035" style="fill: #808080; stroke: #000000; stroke-linejoin: miter"/>
     <use xlink:href="#m980bfe6f95" x="72.390527" y="261.817147" style="fill: #808080; stroke: #000000; stroke-linejoin: miter"/>
     <use xlink:href="#m980bfe6f95" x="78.593065" y="256.701154" style="fill: #808080; stroke: #000000; stroke-linejoin: miter"/>
     <use xlink:href="#m980bfe6f95" x="86.338422" y="251.164865" style="fill: #808080; stroke: #000000; stroke-linejoin: miter"/>
     <use xlink:href="#m980bfe6f95" x="97.395333" y="245.038789" style="fill: #808080; stroke: #000000; stroke-linejoin: miter"/>
     <use xlink:href="#m980bfe6f95" x="111.302189" y="240.697601" style="fill: #808080; stroke: #000000; stroke-linejoin: miter"/>
     <use xlink:href="#m980bfe6f95" x="127.440641" y="240.080571" style="fill: #808080; stroke: #000000; stroke-linejoin: miter"/>
     <use xlink:href="#m980bfe6f95" x="143.125315" y="243.919524" style="fill: #808080; stroke: #000000; stroke-linejoin: miter"/>
     <use xlink:href="#m980bfe6f95" x="155.077722" y="250.803977" style="fill: #808080; stroke: #000000; stroke-linejoin: miter"/>
     <use xlink:href="#m980bfe6f95" x="163.225073" y="258.330971" style="fill: #808080; stroke: #000000; stroke-linejoin: miter"/>
     <use xlink:href="#m980bfe6f95" x="168.321587" y="264.99006" style="fill: #808080; stroke: #000000; stroke-linejoin: miter"/>
     <use xlink:href="#m980bfe6f95" x="171.431348" y="270.189794" style="fill: #808080; stroke: #000000; stroke-linejoin: miter"/>
     <use xlink:href="#m980bfe6f95" x="173.36819" y="274.022716" style="fill: #808080; stroke: #000000; stroke-linejoin: miter"/>
     <use xlink:href="#m980bfe6f95" x="174.634693" y="276.829265" style="fill: #808080; stroke: #000000; stroke-linejoin: miter"/>
     <use xlink:href="#m980bfe6f95" x="175.517848" y="278.813543" style="fill: #808080; stroke: #000000; stroke-linejoin: miter"/>
     <use xlink:href="#m980bfe6f95" x="176.152139" y="280.152917" style="fill: #808080; stroke: #000000; stroke-linejoin: miter"/>
     <use xlink:href="#m980bfe6f95" x="176.610354" y="281.084569" style="fill: #808080; stroke: #000000; stroke-linejoin: miter"/>
     <use xlink:href="#m980bfe6f95" x="177.135811" y="281.571546" style="fill: #808080; stroke: #000000; stroke-linejoin: miter"/>
     <use xlink:href="#m980bfe6f95" x="177.544808" y="281.887444" style="fill: #808080; stroke: #000000; stroke-linejoin: miter"/>
     <use xlink:href="#m980bfe6f95" x="177.975987" y="281.961708" style="fill: #808080; stroke: #000000; stroke-linejoin: miter"/>
     <use xlink:href="#m980bfe6f95" x="178.28724" y="281.887437" style="fill: #808080; stroke: #000000; stroke-linejoin: miter"/>
     <use xlink:href="#m980bfe6f95" x="178.730898" y="281.636417" style="fill: #808080; stroke: #000000; stroke-linejoin: miter"/>
     <use xlink:href="#m980bfe6f95" x="179.273685" y="281.216793" style="fill: #808080; stroke: #000000; stroke-linejoin: miter"/>
     <use xlink:href="#m980bfe6f95" x="179.901737" y="280.611416" style="fill: #808080; stroke: #000000; stroke-linejoin: miter"/>
     <use xlink:href="#m980bfe6f95" x="180.678138" y="279.780598" style="fill: #808080; stroke: #000000; stroke-linejoin: miter"/>
     <use xlink:href="#m980bfe6f95" x="181.631308" y="278.643102" style="fill: #808080; stroke: #000000; stroke-linejoin: miter"/>
     <use xlink:href="#m980bfe6f95" x="182.828489" y="277.133447" style="fill: #808080; stroke: #000000; stroke-linejoin: miter"/>
     <use xlink:href="#m980bfe6f95" x="184.322367" y="275.163054" style="fill: #808080; stroke: #000000; stroke-linejoin: miter"/>
     <use xlink:href="#m980bfe6f95" x="186.242571" y="272.515182" style="fill: #808080; stroke: #000000; stroke-linejoin: miter"/>
     <use xlink:href="#m980bfe6f95" x="188.695165" y="268.991849" style="fill: #808080; stroke: #000000; stroke-linejoin: miter"/>
     <use xlink:href="#m980bfe6f95" x="191.907521" y="264.424189" style="fill: #808080; stroke: #000000; stroke-linejoin: miter"/>
     <use xlink:href="#m980bfe6f95" x="196.106322" y="258.580944" style="fill: #808080; stroke: #000000; stroke-linejoin: miter"/>
     <use xlink:href="#m980bfe6f95" x="201.97785" y="250.944631" style="fill: #808080; stroke: #000000; stroke-linejoin: miter"/>
     <use xlink:href="#m980bfe6f95" x="209.377916" y="241.166908" style="fill: #808080; stroke: #000000; stroke-linejoin: miter"/>
     <use xlink:href="#m980bfe6f95" x="219.000428" y="229.308016" style="fill: #808080; stroke: #000000; stroke-linejoin: miter"/>
     <use xlink:href="#m980bfe6f95" x="231.437392" y="214.849777" style="fill: #808080; stroke: #000000; stroke-linejoin: miter"/>
     <use xlink:href="#m980bfe6f95" x="247.080473" y="197.031389" style="fill: #808080; stroke: #000000; stroke-linejoin: miter"/>
     <use xlink:href="#m980bfe6f95" x="266.077326" y="174.570542" style="fill: #808080; stroke: #000000; stroke-linejoin: miter"/>
     <use xlink:href="#m980bfe6f95" x="288.78981" y="145.404923" style="fill: #808080; stroke: #000000; stroke-linejoin: miter"/>
     <use xlink:href="#m980bfe6f95" x="316.388764" y="106.582132" style="fill: #808080; stroke: #000000; stroke-linejoin: miter"/>
    </g>
   </g>
   <g id="line2d_18">
    <defs>
     <path id="m146362b931" d="M 0 -3 
L -0.673542 -0.927051 
L -2.85317 -0.927051 
L -1.089814 0.354102 
L -1.763356 2.427051 
L -0 1.145898 
L 1.763356 2.427051 
L 1.089814 0.354102 
L 2.85317 -0.927051 
L 0.673542 -0.927051 
z
" style="stroke: #8b0000; stroke-linejoin: bevel"/>
    </defs>
    <g clip-path="url(#p66de988d52)">
     <use xlink:href="#m146362b931" x="64.074011" y="268.820514" style="fill-opacity: 0; stroke: #8b0000; stroke-linejoin: bevel"/>
     <use xlink:href="#m146362b931" x="68.018477" y="265.764465" style="fill-opacity: 0; stroke: #8b0000; stroke-linejoin: bevel"/>
     <use xlink:href="#m146362b931" x="72.559044" y="261.948751" style="fill-opacity: 0; stroke: #8b0000; stroke-linejoin: bevel"/>
     <use xlink:href="#m146362b931" x="78.267388" y="256.972364" style="fill-opacity: 0; stroke: #8b0000; stroke-linejoin: bevel"/>
     <use xlink:href="#m146362b931" x="86.142068" y="250.918673" style="fill-opacity: 0; stroke: #8b0000; stroke-linejoin: bevel"/>
     <use xlink:href="#m146362b931" x="97.199235" y="244.78028" style="fill-opacity: 0; stroke: #8b0000; stroke-linejoin: bevel"/>
     <use xlink:href="#m146362b931" x="111.596291" y="240.521641" style="fill-opacity: 0; stroke: #8b0000; stroke-linejoin: bevel"/>
     <use xlink:href="#m146362b931" x="127.78759" y="240.141645" style="fill-opacity: 0; stroke: #8b0000; stroke-linejoin: bevel"/>
     <use xlink:href="#m146362b931" x="142.974425" y="244.074088" style="fill-opacity: 0; stroke: #8b0000; stroke-linejoin: bevel"/>
     <use xlink:href="#m146362b931" x="154.949079" y="250.794372" style="fill-opacity: 0; stroke: #8b0000; stroke-linejoin: bevel"/>
     <use xlink:href="#m146362b931" x="163.209105" y="258.180802" style="fill-opacity: 0; stroke: #8b0000; stroke-linejoin: bevel"/>
     <use xlink:href="#m146362b931" x="168.452347" y="264.798939" style="fill-opacity: 0; stroke: #8b0000; stroke-linejoin: bevel"/>
     <use xlink:href="#m146362b931" x="171.655266" y="270.103081" style="fill-opacity: 0; stroke: #8b0000; stroke-linejoin: bevel"/>
     <use xlink:href="#m146362b931" x="173.603429" y="274.091319" style="fill-opacity: 0; stroke: #8b0000; stroke-linejoin: bevel"/>
     <use xlink:href="#m146362b931" x="174.813214" y="276.974197" style="fill-opacity: 0; stroke: #8b0000; stroke-linejoin: bevel"/>
     <use xlink:href="#m146362b931" x="175.596515" y="278.998998" style="fill-opacity: 0; stroke: #8b0000; stroke-linejoin: bevel"/>
     <use xlink:href="#m146362b931" x="176.136486" y="280.380604" style="fill-opacity: 0; stroke: #8b0000; stroke-linejoin: bevel"/>
     <use xlink:href="#m146362b931" x="176.541915" y="281.285262" style="fill-opacity: 0; stroke: #8b0000; stroke-linejoin: bevel"/>
     <use xlink:href="#m146362b931" x="176.880267" y="281.833446" style="fill-opacity: 0; stroke: #8b0000; stroke-linejoin: bevel"/>
     <use xlink:href="#m146362b931" x="177.196484" y="282.107491" style="fill-opacity: 0; stroke: #8b0000; stroke-linejoin: bevel"/>
     <use xlink:href="#m146362b931" x="177.523934" y="282.159911" style="fill-opacity: 0; stroke: #8b0000; stroke-linejoin: bevel"/>
     <use xlink:href="#m146362b931" x="177.890885" y="282.019767" style="fill-opacity: 0; stroke: #8b0000; stroke-linejoin: bevel"/>
     <use xlink:href="#m146362b931" x="178.324376" y="281.697256" style="fill-opacity: 0; stroke: #8b0000; stroke-linejoin: bevel"/>
     <use xlink:href="#m146362b931" x="178.85351" y="281.186316" style="fill-opacity: 0; stroke: #8b0000; stroke-linejoin: bevel"/>
     <use xlink:href="#m146362b931" x="179.511651" y="280.466012" style="fill-opacity: 0; stroke: #8b0000; stroke-linejoin: bevel"/>
     <use xlink:href="#m146362b931" x="180.339004" y="279.500338" style="fill-opacity: 0; stroke: #8b0000; stroke-linejoin: bevel"/>
     <use xlink:href="#m146362b931" x="181.385132" y="278.237047" style="fill-opacity: 0; stroke: #8b0000; stroke-linejoin: bevel"/>
     <use xlink:href="#m146362b931" x="182.71226" y="276.604903" style="fill-opacity: 0; stroke: #8b0000; stroke-linejoin: bevel"/>
     <use xlink:href="#m146362b931" x="184.398678" y="274.510332" style="fill-opacity: 0; stroke: #8b0000; stroke-linejoin: bevel"/>
     <use xlink:href="#m146362b931" x="186.543764" y="271.831794" style="fill-opacity: 0; stroke: #8b0000; stroke-linejoin: bevel"/>
     <use xlink:href="#m146362b931" x="189.273493" y="268.413292" style="fill-opacity: 0; stroke: #8b0000; stroke-linejoin: bevel"/>
     <use xlink:href="#m146362b931" x="192.748787" y="264.054207" style="fill-opacity: 0; stroke: #8b0000; stroke-linejoin: bevel"/>
     <use xlink:href="#m146362b931" x="197.172841" y="258.500302" style="fill-opacity: 0; stroke: #8b0000; stroke-linejoin: bevel"/>
     <use xlink:href="#m146362b931" x="202.80675" y="251.424237" style="fill-opacity: 0; stroke: #8b0000; stroke-linejoin: bevel"/>
     <use xlink:href="#m146362b931" x="209.980381" y="242.412009" style="fill-opacity: 0; stroke: #8b0000; stroke-linejoin: bevel"/>
     <use xlink:href="#m146362b931" x="219.114995" y="230.9346" style="fill-opacity: 0; stroke: #8b0000; stroke-linejoin: bevel"/>
     <use xlink:href="#m146362b931" x="230.74765" y="216.317355" style="fill-opacity: 0; stroke: #8b0000; stroke-linejoin: bevel"/>
     <use xlink:href="#m146362b931" x="245.559103" y="197.704959" style="fill-opacity: 0; stroke: #8b0000; stroke-linejoin: bevel"/>
     <use xlink:href="#m146362b931" x="264.420002" y="174.003404" style="fill-opacity: 0; stroke: #8b0000; stroke-linejoin: bevel"/>
     <use xlink:href="#m146362b931" x="288.441776" y="143.816064" style="fill-opacity: 0; stroke: #8b0000; stroke-linejoin: bevel"/>
     <use xlink:href="#m146362b931" x="319.028517" y="105.378495" style="fill-opacity: 0; stroke: #8b0000; stroke-linejoin: bevel"/>
    </g>
   </g>
   <g id="patch_3">
    <path d="M 51.804688 284.4 
L 51.804688 7.2 
" style="fill: none; stroke: #000000; stroke-width: 0.8; stroke-linejoin: miter; stroke-linecap: square"/>
   </g>
   <g id="patch_4">
    <path d="M 329.004687 284.4 
L 329.004687 7.2 
" style="fill: none; stroke: #000000; stroke-width: 0.8; stroke-linejoin: miter; stroke-linecap: square"/>
   </g>
   <g id="patch_5">
    <path d="M 51.804688 284.4 
L 329.004687 284.4 
" style="fill: none; stroke: #000000; stroke-width: 0.8; stroke-linejoin: miter; stroke-linecap: square"/>
   </g>
   <g id="patch_6">
    <path d="M 51.804688 7.2 
L 329.004687 7.2 
" style="fill: none; stroke: #000000; stroke-width: 0.8; stroke-linejoin: miter; stroke-linecap: square"/>
   </g>
   <g id="legend_1">
    <g id="patch_7">
     <path d="M 263.539375 33.544062 
L 324.104688 33.544062 
Q 325.504687 33.544062 325.504687 32.144063 
L 325.504687 12.1 
Q 325.504687 10.7 324.104688 10.7 
L 263.539375 10.7 
Q 262.139375 10.7 262.139375 12.1 
L 262.139375 32.144063 
Q 262.139375 33.544062 263.539375 33.544062 
z
" style="fill: #ffffff; opacity: 0.8; stroke: #cccccc; stroke-linejoin: miter"/>
    </g>
    <g id="line2d_19">
     <g>
      <use xlink:href="#m980bfe6f95" x="271.939375" y="16.368906" style="fill: #808080; stroke: #000000; stroke-linejoin: miter"/>
     </g>
    </g>
    <g id="text_19">
     <!-- Data_463K -->
     <g transform="translate(284.539375 18.818906) scale(0.07 -0.07)">
      <defs>
       <path id="DejaVuSans-44" d="M 1259 4147 
L 1259 519 
L 2022 519 
Q 2988 519 3436 956 
Q 3884 1394 3884 2338 
Q 3884 3275 3436 3711 
Q 2988 4147 2022 4147 
L 1259 4147 
z
M 628 4666 
L 1925 4666 
Q 3281 4666 3915 4102 
Q 4550 3538 4550 2338 
Q 4550 1131 3912 565 
Q 3275 0 1925 0 
L 628 0 
L 628 4666 
z
" transform="scale(0.015625)"/>
       <path id="DejaVuSans-61" d="M 2194 1759 
Q 1497 1759 1228 1600 
Q 959 1441 959 1056 
Q 959 750 1161 570 
Q 1363 391 1709 391 
Q 2188 391 2477 730 
Q 2766 1069 2766 1631 
L 2766 1759 
L 2194 1759 
z
M 3341 1997 
L 3341 0 
L 2766 0 
L 2766 531 
Q 2569 213 2275 61 
Q 1981 -91 1556 -91 
Q 1019 -91 701 211 
Q 384 513 384 1019 
Q 384 1609 779 1909 
Q 1175 2209 1959 2209 
L 2766 2209 
L 2766 2266 
Q 2766 2663 2505 2880 
Q 2244 3097 1772 3097 
Q 1472 3097 1187 3025 
Q 903 2953 641 2809 
L 641 3341 
Q 956 3463 1253 3523 
Q 1550 3584 1831 3584 
Q 2591 3584 2966 3190 
Q 3341 2797 3341 1997 
z
" transform="scale(0.015625)"/>
       <path id="DejaVuSans-74" d="M 1172 4494 
L 1172 3500 
L 2356 3500 
L 2356 3053 
L 1172 3053 
L 1172 1153 
Q 1172 725 1289 603 
Q 1406 481 1766 481 
L 2356 481 
L 2356 0 
L 1766 0 
Q 1100 0 847 248 
Q 594 497 594 1153 
L 594 3053 
L 172 3053 
L 172 3500 
L 594 3500 
L 594 4494 
L 1172 4494 
z
" transform="scale(0.015625)"/>
       <path id="DejaVuSans-5f" d="M 3263 -1063 
L 3263 -1509 
L -63 -1509 
L -63 -1063 
L 3263 -1063 
z
" transform="scale(0.015625)"/>
       <path id="DejaVuSans-34" d="M 2419 4116 
L 825 1625 
L 2419 1625 
L 2419 4116 
z
M 2253 4666 
L 3047 4666 
L 3047 1625 
L 3713 1625 
L 3713 1100 
L 3047 1100 
L 3047 0 
L 2419 0 
L 2419 1100 
L 313 1100 
L 313 1709 
L 2253 4666 
z
" transform="scale(0.015625)"/>
       <path id="DejaVuSans-36" d="M 2113 2584 
Q 1688 2584 1439 2293 
Q 1191 2003 1191 1497 
Q 1191 994 1439 701 
Q 1688 409 2113 409 
Q 2538 409 2786 701 
Q 3034 994 3034 1497 
Q 3034 2003 2786 2293 
Q 2538 2584 2113 2584 
z
M 3366 4563 
L 3366 3988 
Q 3128 4100 2886 4159 
Q 2644 4219 2406 4219 
Q 1781 4219 1451 3797 
Q 1122 3375 1075 2522 
Q 1259 2794 1537 2939 
Q 1816 3084 2150 3084 
Q 2853 3084 3261 2657 
Q 3669 2231 3669 1497 
Q 3669 778 3244 343 
Q 2819 -91 2113 -91 
Q 1303 -91 875 529 
Q 447 1150 447 2328 
Q 447 3434 972 4092 
Q 1497 4750 2381 4750 
Q 2619 4750 2861 4703 
Q 3103 4656 3366 4563 
z
" transform="scale(0.015625)"/>
       <path id="DejaVuSans-4b" d="M 628 4666 
L 1259 4666 
L 1259 2694 
L 3353 4666 
L 4166 4666 
L 1850 2491 
L 4331 0 
L 3500 0 
L 1259 2247 
L 1259 0 
L 628 0 
L 628 4666 
z
" transform="scale(0.015625)"/>
      </defs>
      <use xlink:href="#DejaVuSans-44"/>
      <use xlink:href="#DejaVuSans-61" x="77.001953"/>
      <use xlink:href="#DejaVuSans-74" x="138.28125"/>
      <use xlink:href="#DejaVuSans-61" x="177.490234"/>
      <use xlink:href="#DejaVuSans-5f" x="238.769531"/>
      <use xlink:href="#DejaVuSans-34" x="288.769531"/>
      <use xlink:href="#DejaVuSans-36" x="352.392578"/>
      <use xlink:href="#DejaVuSans-33" x="416.015625"/>
      <use xlink:href="#DejaVuSans-4b" x="479.638672"/>
     </g>
    </g>
    <g id="line2d_20">
     <g>
      <use xlink:href="#m146362b931" x="271.939375" y="26.838281" style="fill-opacity: 0; stroke: #8b0000; stroke-linejoin: bevel"/>
     </g>
    </g>
    <g id="text_20">
     <!-- Fit -->
     <g transform="translate(284.539375 29.288281) scale(0.07 -0.07)">
      <defs>
       <path id="DejaVuSans-46" d="M 628 4666 
L 3309 4666 
L 3309 4134 
L 1259 4134 
L 1259 2759 
L 3109 2759 
L 3109 2228 
L 1259 2228 
L 1259 0 
L 628 0 
L 628 4666 
z
" transform="scale(0.015625)"/>
       <path id="DejaVuSans-69" d="M 603 3500 
L 1178 3500 
L 1178 0 
L 603 0 
L 603 3500 
z
M 603 4863 
L 1178 4863 
L 1178 4134 
L 603 4134 
L 603 4863 
z
" transform="scale(0.015625)"/>
      </defs>
      <use xlink:href="#DejaVuSans-46"/>
      <use xlink:href="#DejaVuSans-69" x="50.269531"/>
      <use xlink:href="#DejaVuSans-74" x="78.052734"/>
     </g>
    </g>
   </g>
  </g>
 </g>
 <defs>
  <clipPath id="p66de988d52">
   <rect x="51.804688" y="7.2" width="277.2" height="277.2"/>
  </clipPath>
 </defs>
</svg>
