<?xml version="1.0" encoding="utf-8" standalone="no"?>
<!DOCTYPE svg PUBLIC "-//W3C//DTD SVG 1.1//EN"
  "http://www.w3.org/Graphics/SVG/1.1/DTD/svg11.dtd">
<svg xmlns:xlink="http://www.w3.org/1999/xlink" width="393.804688pt" height="493.115312pt" viewBox="0 0 393.804688 493.115312" xmlns="http://www.w3.org/2000/svg" version="1.1">
 <metadata>
  <rdf:RDF xmlns:dc="http://purl.org/dc/elements/1.1/" xmlns:cc="http://creativecommons.org/ns#" xmlns:rdf="http://www.w3.org/1999/02/22-rdf-syntax-ns#">
   <cc:Work>
    <dc:type rdf:resource="http://purl.org/dc/dcmitype/StillImage"/>
    <dc:date>2025-05-18T11:08:36.884184</dc:date>
    <dc:format>image/svg+xml</dc:format>
    <dc:creator>
     <cc:Agent>
      <dc:title>Matplotlib v3.10.1, https://matplotlib.org/</dc:title>
     </cc:Agent>
    </dc:creator>
   </cc:Work>
  </rdf:RDF>
 </metadata>
 <defs>
  <style type="text/css">*{stroke-linejoin: round; stroke-linecap: butt}</style>
 </defs>
 <g id="figure_1">
  <g id="patch_1">
   <path d="M 0 493.115312 
L 393.804688 493.115312 
L 393.804688 0 
L 0 0 
z
" style="fill: #ffffff"/>
  </g>
  <g id="axes_1">
   <g id="patch_2">
    <path d="M 51.804688 208.8 
L 386.604688 208.8 
L 386.604688 7.2 
L 51.804688 7.2 
z
" style="fill: #ffffff"/>
   </g>
   <g id="matplotlib.axis_1">
    <g id="xtick_1">
     <g id="line2d_1">
      <defs>
       <path id="m43788d0506" d="M 0 0 
L 0 3.5 
" style="stroke: #000000; stroke-width: 0.8"/>
      </defs>
      <g>
       <use xlink:href="#m43788d0506" x="115.696062" y="208.8" style="stroke: #000000; stroke-width: 0.8"/>
      </g>
     </g>
     <g id="text_1">
      <!-- $\mathdefault{10^{-1}}$ -->
      <g transform="translate(103.946062 223.398437) scale(0.1 -0.1)">
       <defs>
        <path id="DejaVuSans-31" d="M 794 531 
L 1825 531 
L 1825 4091 
L 703 3866 
L 703 4441 
L 1819 4666 
L 2450 4666 
L 2450 531 
L 3481 531 
L 3481 0 
L 794 0 
L 794 531 
z
" transform="scale(0.015625)"/>
        <path id="DejaVuSans-30" d="M 2034 4250 
Q 1547 4250 1301 3770 
Q 1056 3291 1056 2328 
Q 1056 1369 1301 889 
Q 1547 409 2034 409 
Q 2525 409 2770 889 
Q 3016 1369 3016 2328 
Q 3016 3291 2770 3770 
Q 2525 4250 2034 4250 
z
M 2034 4750 
Q 2819 4750 3233 4129 
Q 3647 3509 3647 2328 
Q 3647 1150 3233 529 
Q 2819 -91 2034 -91 
Q 1250 -91 836 529 
Q 422 1150 422 2328 
Q 422 3509 836 4129 
Q 1250 4750 2034 4750 
z
" transform="scale(0.015625)"/>
        <path id="DejaVuSans-2212" d="M 678 2272 
L 4684 2272 
L 4684 1741 
L 678 1741 
L 678 2272 
z
" transform="scale(0.015625)"/>
       </defs>
       <use xlink:href="#DejaVuSans-31" transform="translate(0 0.684375)"/>
       <use xlink:href="#DejaVuSans-30" transform="translate(63.623047 0.684375)"/>
       <use xlink:href="#DejaVuSans-2212" transform="translate(128.203125 38.965625) scale(0.7)"/>
       <use xlink:href="#DejaVuSans-31" transform="translate(186.855469 38.965625) scale(0.7)"/>
      </g>
     </g>
    </g>
    <g id="xtick_2">
     <g id="line2d_2">
      <g>
       <use xlink:href="#m43788d0506" x="179.618673" y="208.8" style="stroke: #000000; stroke-width: 0.8"/>
      </g>
     </g>
     <g id="text_2">
      <!-- $\mathdefault{10^{1}}$ -->
      <g transform="translate(170.818673 223.398437) scale(0.1 -0.1)">
       <use xlink:href="#DejaVuSans-31" transform="translate(0 0.684375)"/>
       <use xlink:href="#DejaVuSans-30" transform="translate(63.623047 0.684375)"/>
       <use xlink:href="#DejaVuSans-31" transform="translate(128.203125 38.965625) scale(0.7)"/>
      </g>
     </g>
    </g>
    <g id="xtick_3">
     <g id="line2d_3">
      <g>
       <use xlink:href="#m43788d0506" x="243.541284" y="208.8" style="stroke: #000000; stroke-width: 0.8"/>
      </g>
     </g>
     <g id="text_3">
      <!-- $\mathdefault{10^{3}}$ -->
      <g transform="translate(234.741284 223.398437) scale(0.1 -0.1)">
       <defs>
        <path id="DejaVuSans-33" d="M 2597 2516 
Q 3050 2419 3304 2112 
Q 3559 1806 3559 1356 
Q 3559 666 3084 287 
Q 2609 -91 1734 -91 
Q 1441 -91 1130 -33 
Q 819 25 488 141 
L 488 750 
Q 750 597 1062 519 
Q 1375 441 1716 441 
Q 2309 441 2620 675 
Q 2931 909 2931 1356 
Q 2931 1769 2642 2001 
Q 2353 2234 1838 2234 
L 1294 2234 
L 1294 2753 
L 1863 2753 
Q 2328 2753 2575 2939 
Q 2822 3125 2822 3475 
Q 2822 3834 2567 4026 
Q 2313 4219 1838 4219 
Q 1578 4219 1281 4162 
Q 984 4106 628 3988 
L 628 4550 
Q 988 4650 1302 4700 
Q 1616 4750 1894 4750 
Q 2613 4750 3031 4423 
Q 3450 4097 3450 3541 
Q 3450 3153 3228 2886 
Q 3006 2619 2597 2516 
z
" transform="scale(0.015625)"/>
       </defs>
       <use xlink:href="#DejaVuSans-31" transform="translate(0 0.765625)"/>
       <use xlink:href="#DejaVuSans-30" transform="translate(63.623047 0.765625)"/>
       <use xlink:href="#DejaVuSans-33" transform="translate(128.203125 39.046875) scale(0.7)"/>
      </g>
     </g>
    </g>
    <g id="xtick_4">
     <g id="line2d_4">
      <g>
       <use xlink:href="#m43788d0506" x="307.463895" y="208.8" style="stroke: #000000; stroke-width: 0.8"/>
      </g>
     </g>
     <g id="text_4">
      <!-- $\mathdefault{10^{5}}$ -->
      <g transform="translate(298.663895 223.398437) scale(0.1 -0.1)">
       <defs>
        <path id="DejaVuSans-35" d="M 691 4666 
L 3169 4666 
L 3169 4134 
L 1269 4134 
L 1269 2991 
Q 1406 3038 1543 3061 
Q 1681 3084 1819 3084 
Q 2600 3084 3056 2656 
Q 3513 2228 3513 1497 
Q 3513 744 3044 326 
Q 2575 -91 1722 -91 
Q 1428 -91 1123 -41 
Q 819 9 494 109 
L 494 744 
Q 775 591 1075 516 
Q 1375 441 1709 441 
Q 2250 441 2565 725 
Q 2881 1009 2881 1497 
Q 2881 1984 2565 2268 
Q 2250 2553 1709 2553 
Q 1456 2553 1204 2497 
Q 953 2441 691 2322 
L 691 4666 
z
" transform="scale(0.015625)"/>
       </defs>
       <use xlink:href="#DejaVuSans-31" transform="translate(0 0.684375)"/>
       <use xlink:href="#DejaVuSans-30" transform="translate(63.623047 0.684375)"/>
       <use xlink:href="#DejaVuSans-35" transform="translate(128.203125 38.965625) scale(0.7)"/>
      </g>
     </g>
    </g>
    <g id="xtick_5">
     <g id="line2d_5">
      <g>
       <use xlink:href="#m43788d0506" x="371.386506" y="208.8" style="stroke: #000000; stroke-width: 0.8"/>
      </g>
     </g>
     <g id="text_5">
      <!-- $\mathdefault{10^{7}}$ -->
      <g transform="translate(362.586506 223.398437) scale(0.1 -0.1)">
       <defs>
        <path id="DejaVuSans-37" d="M 525 4666 
L 3525 4666 
L 3525 4397 
L 1831 0 
L 1172 0 
L 2766 4134 
L 525 4134 
L 525 4666 
z
" transform="scale(0.015625)"/>
       </defs>
       <use xlink:href="#DejaVuSans-31" transform="translate(0 0.684375)"/>
       <use xlink:href="#DejaVuSans-30" transform="translate(63.623047 0.684375)"/>
       <use xlink:href="#DejaVuSans-37" transform="translate(128.203125 38.965625) scale(0.7)"/>
      </g>
     </g>
    </g>
    <g id="text_6">
     <!-- $ \it\nu \it$/Hz  -->
     <g transform="translate(200.604688 240.875781) scale(0.15 -0.15)">
      <defs>
       <path id="DejaVuSans-Oblique-3bd" d="M 959 0 
L 572 3500 
L 1191 3500 
L 1522 563 
Q 1972 950 2391 1488 
Q 2706 1891 2788 2241 
Q 2825 2406 2809 2719 
Q 2794 3091 2544 3500 
L 3125 3500 
L 3125 3500 
Q 3288 3222 3353 2834 
Q 3416 2478 3369 2234 
Q 3250 1622 2719 1075 
Q 2025 363 1572 0 
L 959 0 
z
" transform="scale(0.015625)"/>
       <path id="DejaVuSans-2f" d="M 1625 4666 
L 2156 4666 
L 531 -594 
L 0 -594 
L 1625 4666 
z
" transform="scale(0.015625)"/>
       <path id="DejaVuSans-48" d="M 628 4666 
L 1259 4666 
L 1259 2753 
L 3553 2753 
L 3553 4666 
L 4184 4666 
L 4184 0 
L 3553 0 
L 3553 2222 
L 1259 2222 
L 1259 0 
L 628 0 
L 628 4666 
z
" transform="scale(0.015625)"/>
       <path id="DejaVuSans-7a" d="M 353 3500 
L 3084 3500 
L 3084 2975 
L 922 459 
L 3084 459 
L 3084 0 
L 275 0 
L 275 525 
L 2438 3041 
L 353 3041 
L 353 3500 
z
" transform="scale(0.015625)"/>
       <path id="DejaVuSans-20" transform="scale(0.015625)"/>
      </defs>
      <use xlink:href="#DejaVuSans-Oblique-3bd" transform="translate(0 0.09375)"/>
      <use xlink:href="#DejaVuSans-2f" transform="translate(55.859375 0.09375)"/>
      <use xlink:href="#DejaVuSans-48" transform="translate(87.800781 0.09375)"/>
      <use xlink:href="#DejaVuSans-7a" transform="translate(162.996094 0.09375)"/>
      <use xlink:href="#DejaVuSans-20" transform="translate(215.486328 0.09375)"/>
     </g>
    </g>
   </g>
   <g id="matplotlib.axis_2">
    <g id="ytick_1">
     <g id="line2d_6">
      <defs>
       <path id="mc217101ed3" d="M 0 0 
L -3.5 0 
" style="stroke: #000000; stroke-width: 0.8"/>
      </defs>
      <g>
       <use xlink:href="#mc217101ed3" x="51.804688" y="199.78639" style="stroke: #000000; stroke-width: 0.8"/>
      </g>
     </g>
     <g id="text_7">
      <!-- 0 -->
      <g transform="translate(38.442188 203.585609) scale(0.1 -0.1)">
       <use xlink:href="#DejaVuSans-30"/>
      </g>
     </g>
    </g>
    <g id="ytick_2">
     <g id="line2d_7">
      <g>
       <use xlink:href="#mc217101ed3" x="51.804688" y="174.262355" style="stroke: #000000; stroke-width: 0.8"/>
      </g>
     </g>
     <g id="text_8">
      <!-- 20 -->
      <g transform="translate(32.079687 178.061573) scale(0.1 -0.1)">
       <defs>
        <path id="DejaVuSans-32" d="M 1228 531 
L 3431 531 
L 3431 0 
L 469 0 
L 469 531 
Q 828 903 1448 1529 
Q 2069 2156 2228 2338 
Q 2531 2678 2651 2914 
Q 2772 3150 2772 3378 
Q 2772 3750 2511 3984 
Q 2250 4219 1831 4219 
Q 1534 4219 1204 4116 
Q 875 4013 500 3803 
L 500 4441 
Q 881 4594 1212 4672 
Q 1544 4750 1819 4750 
Q 2544 4750 2975 4387 
Q 3406 4025 3406 3419 
Q 3406 3131 3298 2873 
Q 3191 2616 2906 2266 
Q 2828 2175 2409 1742 
Q 1991 1309 1228 531 
z
" transform="scale(0.015625)"/>
       </defs>
       <use xlink:href="#DejaVuSans-32"/>
       <use xlink:href="#DejaVuSans-30" transform="translate(63.623047 0)"/>
      </g>
     </g>
    </g>
    <g id="ytick_3">
     <g id="line2d_8">
      <g>
       <use xlink:href="#mc217101ed3" x="51.804688" y="148.738319" style="stroke: #000000; stroke-width: 0.8"/>
      </g>
     </g>
     <g id="text_9">
      <!-- 40 -->
      <g transform="translate(32.079687 152.537538) scale(0.1 -0.1)">
       <defs>
        <path id="DejaVuSans-34" d="M 2419 4116 
L 825 1625 
L 2419 1625 
L 2419 4116 
z
M 2253 4666 
L 3047 4666 
L 3047 1625 
L 3713 1625 
L 3713 1100 
L 3047 1100 
L 3047 0 
L 2419 0 
L 2419 1100 
L 313 1100 
L 313 1709 
L 2253 4666 
z
" transform="scale(0.015625)"/>
       </defs>
       <use xlink:href="#DejaVuSans-34"/>
       <use xlink:href="#DejaVuSans-30" transform="translate(63.623047 0)"/>
      </g>
     </g>
    </g>
    <g id="ytick_4">
     <g id="line2d_9">
      <g>
       <use xlink:href="#mc217101ed3" x="51.804688" y="123.214284" style="stroke: #000000; stroke-width: 0.8"/>
      </g>
     </g>
     <g id="text_10">
      <!-- 60 -->
      <g transform="translate(32.079687 127.013502) scale(0.1 -0.1)">
       <defs>
        <path id="DejaVuSans-36" d="M 2113 2584 
Q 1688 2584 1439 2293 
Q 1191 2003 1191 1497 
Q 1191 994 1439 701 
Q 1688 409 2113 409 
Q 2538 409 2786 701 
Q 3034 994 3034 1497 
Q 3034 2003 2786 2293 
Q 2538 2584 2113 2584 
z
M 3366 4563 
L 3366 3988 
Q 3128 4100 2886 4159 
Q 2644 4219 2406 4219 
Q 1781 4219 1451 3797 
Q 1122 3375 1075 2522 
Q 1259 2794 1537 2939 
Q 1816 3084 2150 3084 
Q 2853 3084 3261 2657 
Q 3669 2231 3669 1497 
Q 3669 778 3244 343 
Q 2819 -91 2113 -91 
Q 1303 -91 875 529 
Q 447 1150 447 2328 
Q 447 3434 972 4092 
Q 1497 4750 2381 4750 
Q 2619 4750 2861 4703 
Q 3103 4656 3366 4563 
z
" transform="scale(0.015625)"/>
       </defs>
       <use xlink:href="#DejaVuSans-36"/>
       <use xlink:href="#DejaVuSans-30" transform="translate(63.623047 0)"/>
      </g>
     </g>
    </g>
    <g id="ytick_5">
     <g id="line2d_10">
      <g>
       <use xlink:href="#mc217101ed3" x="51.804688" y="97.690248" style="stroke: #000000; stroke-width: 0.8"/>
      </g>
     </g>
     <g id="text_11">
      <!-- 80 -->
      <g transform="translate(32.079687 101.489467) scale(0.1 -0.1)">
       <defs>
        <path id="DejaVuSans-38" d="M 2034 2216 
Q 1584 2216 1326 1975 
Q 1069 1734 1069 1313 
Q 1069 891 1326 650 
Q 1584 409 2034 409 
Q 2484 409 2743 651 
Q 3003 894 3003 1313 
Q 3003 1734 2745 1975 
Q 2488 2216 2034 2216 
z
M 1403 2484 
Q 997 2584 770 2862 
Q 544 3141 544 3541 
Q 544 4100 942 4425 
Q 1341 4750 2034 4750 
Q 2731 4750 3128 4425 
Q 3525 4100 3525 3541 
Q 3525 3141 3298 2862 
Q 3072 2584 2669 2484 
Q 3125 2378 3379 2068 
Q 3634 1759 3634 1313 
Q 3634 634 3220 271 
Q 2806 -91 2034 -91 
Q 1263 -91 848 271 
Q 434 634 434 1313 
Q 434 1759 690 2068 
Q 947 2378 1403 2484 
z
M 1172 3481 
Q 1172 3119 1398 2916 
Q 1625 2713 2034 2713 
Q 2441 2713 2670 2916 
Q 2900 3119 2900 3481 
Q 2900 3844 2670 4047 
Q 2441 4250 2034 4250 
Q 1625 4250 1398 4047 
Q 1172 3844 1172 3481 
z
" transform="scale(0.015625)"/>
       </defs>
       <use xlink:href="#DejaVuSans-38"/>
       <use xlink:href="#DejaVuSans-30" transform="translate(63.623047 0)"/>
      </g>
     </g>
    </g>
    <g id="ytick_6">
     <g id="line2d_11">
      <g>
       <use xlink:href="#mc217101ed3" x="51.804688" y="72.166212" style="stroke: #000000; stroke-width: 0.8"/>
      </g>
     </g>
     <g id="text_12">
      <!-- 100 -->
      <g transform="translate(25.717187 75.965431) scale(0.1 -0.1)">
       <use xlink:href="#DejaVuSans-31"/>
       <use xlink:href="#DejaVuSans-30" transform="translate(63.623047 0)"/>
       <use xlink:href="#DejaVuSans-30" transform="translate(127.246094 0)"/>
      </g>
     </g>
    </g>
    <g id="ytick_7">
     <g id="line2d_12">
      <g>
       <use xlink:href="#mc217101ed3" x="51.804688" y="46.642177" style="stroke: #000000; stroke-width: 0.8"/>
      </g>
     </g>
     <g id="text_13">
      <!-- 120 -->
      <g transform="translate(25.717187 50.441396) scale(0.1 -0.1)">
       <use xlink:href="#DejaVuSans-31"/>
       <use xlink:href="#DejaVuSans-32" transform="translate(63.623047 0)"/>
       <use xlink:href="#DejaVuSans-30" transform="translate(127.246094 0)"/>
      </g>
     </g>
    </g>
    <g id="ytick_8">
     <g id="line2d_13">
      <g>
       <use xlink:href="#mc217101ed3" x="51.804688" y="21.118141" style="stroke: #000000; stroke-width: 0.8"/>
      </g>
     </g>
     <g id="text_14">
      <!-- 140 -->
      <g transform="translate(25.717187 24.91736) scale(0.1 -0.1)">
       <use xlink:href="#DejaVuSans-31"/>
       <use xlink:href="#DejaVuSans-34" transform="translate(63.623047 0)"/>
       <use xlink:href="#DejaVuSans-30" transform="translate(127.246094 0)"/>
      </g>
     </g>
    </g>
    <g id="text_15">
     <!-- $-Z^{\prime\prime} \,/\, \mathrm{M\Omega}$ -->
     <g transform="translate(18.597656 140.25) rotate(-90) scale(0.15 -0.15)">
      <defs>
       <path id="DejaVuSans-Oblique-5a" d="M 838 4666 
L 4500 4666 
L 4409 4184 
L 794 531 
L 3769 531 
L 3669 0 
L -141 0 
L -50 481 
L 3566 4134 
L 738 4134 
L 838 4666 
z
" transform="scale(0.015625)"/>
       <path id="Cmsy10-30" d="M 225 347 
Q 184 359 184 409 
L 966 3316 
Q 1003 3434 1093 3506 
Q 1184 3578 1300 3578 
Q 1450 3578 1564 3479 
Q 1678 3381 1678 3231 
Q 1678 3166 1644 3084 
L 488 319 
Q 466 275 428 275 
Q 394 275 320 306 
Q 247 338 225 347 
z
" transform="scale(0.015625)"/>
       <path id="DejaVuSans-4d" d="M 628 4666 
L 1569 4666 
L 2759 1491 
L 3956 4666 
L 4897 4666 
L 4897 0 
L 4281 0 
L 4281 4097 
L 3078 897 
L 2444 897 
L 1241 4097 
L 1241 0 
L 628 0 
L 628 4666 
z
" transform="scale(0.015625)"/>
       <path id="DejaVuSans-3a9" d="M 4647 556 
L 4647 0 
L 2772 0 
L 2772 556 
Q 3325 859 3634 1378 
Q 3944 1897 3944 2528 
Q 3944 3278 3531 3731 
Q 3119 4184 2444 4184 
Q 1769 4184 1355 3729 
Q 941 3275 941 2528 
Q 941 1897 1250 1378 
Q 1563 859 2119 556 
L 2119 0 
L 244 0 
L 244 556 
L 1241 556 
Q 747 991 519 1456 
Q 294 1922 294 2497 
Q 294 3491 894 4106 
Q 1491 4722 2444 4722 
Q 3391 4722 3994 4106 
Q 4594 3494 4594 2528 
Q 4594 1922 4372 1459 
Q 4150 997 3647 556 
L 4647 556 
z
" transform="scale(0.015625)"/>
      </defs>
      <use xlink:href="#DejaVuSans-2212" transform="translate(0 0.584375)"/>
      <use xlink:href="#DejaVuSans-Oblique-5a" transform="translate(83.789062 0.584375)"/>
      <use xlink:href="#Cmsy10-30" transform="translate(159.311693 38.865625) scale(0.7)"/>
      <use xlink:href="#Cmsy10-30" transform="translate(178.554857 38.865625) scale(0.7)"/>
      <use xlink:href="#DejaVuSans-2f" transform="translate(216.768072 0.584375)"/>
      <use xlink:href="#DejaVuSans-4d" transform="translate(266.695155 0.584375)"/>
      <use xlink:href="#DejaVuSans-3a9" transform="translate(352.974451 0.584375)"/>
     </g>
    </g>
   </g>
   <g id="line2d_14">
    <defs>
     <path id="m69bb2808dd" d="M 0 3 
C 0.795609 3 1.55874 2.683901 2.12132 2.12132 
C 2.683901 1.55874 3 0.795609 3 0 
C 3 -0.795609 2.683901 -1.55874 2.12132 -2.12132 
C 1.55874 -2.683901 0.795609 -3 0 -3 
C -0.795609 -3 -1.55874 -2.683901 -2.12132 -2.12132 
C -2.683901 -1.55874 -3 -0.795609 -3 0 
C -3 0.795609 -2.683901 1.55874 -2.12132 2.12132 
C -1.55874 2.683901 -0.795609 3 0 3 
z
" style="stroke: #000000"/>
    </defs>
    <g clip-path="url(#p697b5b88a5)">
     <use xlink:href="#m69bb2808dd" x="67.022869" y="16.363636" style="fill: #808080; stroke: #000000"/>
     <use xlink:href="#m69bb2808dd" x="73.234372" y="65.589093" style="fill: #808080; stroke: #000000"/>
     <use xlink:href="#m69bb2808dd" x="79.445875" y="101.535602" style="fill: #808080; stroke: #000000"/>
     <use xlink:href="#m69bb2808dd" x="85.657378" y="127.758149" style="fill: #808080; stroke: #000000"/>
     <use xlink:href="#m69bb2808dd" x="91.86888" y="146.849363" style="fill: #808080; stroke: #000000"/>
     <use xlink:href="#m69bb2808dd" x="98.080383" y="160.695924" style="fill: #808080; stroke: #000000"/>
     <use xlink:href="#m69bb2808dd" x="104.291886" y="170.665167" style="fill: #808080; stroke: #000000"/>
     <use xlink:href="#m69bb2808dd" x="110.503389" y="177.740432" style="fill: #808080; stroke: #000000"/>
     <use xlink:href="#m69bb2808dd" x="116.714892" y="182.618739" style="fill: #808080; stroke: #000000"/>
     <use xlink:href="#m69bb2808dd" x="122.926394" y="185.780844" style="fill: #808080; stroke: #000000"/>
     <use xlink:href="#m69bb2808dd" x="129.137897" y="187.541455" style="fill: #808080; stroke: #000000"/>
     <use xlink:href="#m69bb2808dd" x="135.3494" y="188.086276" style="fill: #808080; stroke: #000000"/>
     <use xlink:href="#m69bb2808dd" x="141.560903" y="187.502923" style="fill: #808080; stroke: #000000"/>
     <use xlink:href="#m69bb2808dd" x="147.772405" y="185.815094" style="fill: #808080; stroke: #000000"/>
     <use xlink:href="#m69bb2808dd" x="153.983908" y="183.033891" style="fill: #808080; stroke: #000000"/>
     <use xlink:href="#m69bb2808dd" x="160.195411" y="179.244506" style="fill: #808080; stroke: #000000"/>
     <use xlink:href="#m69bb2808dd" x="166.406914" y="174.739302" style="fill: #808080; stroke: #000000"/>
     <use xlink:href="#m69bb2808dd" x="172.618417" y="170.162769" style="fill: #808080; stroke: #000000"/>
     <use xlink:href="#m69bb2808dd" x="178.829919" y="166.531697" style="fill: #808080; stroke: #000000"/>
     <use xlink:href="#m69bb2808dd" x="185.041422" y="164.932542" style="fill: #808080; stroke: #000000"/>
     <use xlink:href="#m69bb2808dd" x="191.252925" y="165.929786" style="fill: #808080; stroke: #000000"/>
     <use xlink:href="#m69bb2808dd" x="197.464428" y="169.176013" style="fill: #808080; stroke: #000000"/>
     <use xlink:href="#m69bb2808dd" x="203.675931" y="173.653387" style="fill: #808080; stroke: #000000"/>
     <use xlink:href="#m69bb2808dd" x="209.887433" y="178.271514" style="fill: #808080; stroke: #000000"/>
     <use xlink:href="#m69bb2808dd" x="216.098936" y="182.265063" style="fill: #808080; stroke: #000000"/>
     <use xlink:href="#m69bb2808dd" x="222.310439" y="185.238771" style="fill: #808080; stroke: #000000"/>
     <use xlink:href="#m69bb2808dd" x="228.521942" y="187.036584" style="fill: #808080; stroke: #000000"/>
     <use xlink:href="#m69bb2808dd" x="234.733444" y="187.604451" style="fill: #808080; stroke: #000000"/>
     <use xlink:href="#m69bb2808dd" x="240.944947" y="186.913962" style="fill: #808080; stroke: #000000"/>
     <use xlink:href="#m69bb2808dd" x="247.15645" y="184.966869" style="fill: #808080; stroke: #000000"/>
     <use xlink:href="#m69bb2808dd" x="253.367953" y="181.904221" style="fill: #808080; stroke: #000000"/>
     <use xlink:href="#m69bb2808dd" x="259.579456" y="178.233449" style="fill: #808080; stroke: #000000"/>
     <use xlink:href="#m69bb2808dd" x="265.790958" y="175.040361" style="fill: #808080; stroke: #000000"/>
     <use xlink:href="#m69bb2808dd" x="272.002461" y="173.749304" style="fill: #808080; stroke: #000000"/>
     <use xlink:href="#m69bb2808dd" x="278.213964" y="175.171633" style="fill: #808080; stroke: #000000"/>
     <use xlink:href="#m69bb2808dd" x="284.425467" y="178.775433" style="fill: #808080; stroke: #000000"/>
     <use xlink:href="#m69bb2808dd" x="290.63697" y="183.230722" style="fill: #808080; stroke: #000000"/>
     <use xlink:href="#m69bb2808dd" x="296.848472" y="187.432349" style="fill: #808080; stroke: #000000"/>
     <use xlink:href="#m69bb2808dd" x="303.059975" y="190.875936" style="fill: #808080; stroke: #000000"/>
     <use xlink:href="#m69bb2808dd" x="309.271478" y="193.489679" style="fill: #808080; stroke: #000000"/>
     <use xlink:href="#m69bb2808dd" x="315.482981" y="195.39061" style="fill: #808080; stroke: #000000"/>
     <use xlink:href="#m69bb2808dd" x="321.694483" y="196.740088" style="fill: #808080; stroke: #000000"/>
     <use xlink:href="#m69bb2808dd" x="327.905986" y="197.684749" style="fill: #808080; stroke: #000000"/>
     <use xlink:href="#m69bb2808dd" x="334.117489" y="198.340532" style="fill: #808080; stroke: #000000"/>
     <use xlink:href="#m69bb2808dd" x="340.328992" y="198.793458" style="fill: #808080; stroke: #000000"/>
     <use xlink:href="#m69bb2808dd" x="346.540495" y="199.105281" style="fill: #808080; stroke: #000000"/>
     <use xlink:href="#m69bb2808dd" x="352.751997" y="199.319522" style="fill: #808080; stroke: #000000"/>
     <use xlink:href="#m69bb2808dd" x="358.9635" y="199.466526" style="fill: #808080; stroke: #000000"/>
     <use xlink:href="#m69bb2808dd" x="365.175003" y="199.567308" style="fill: #808080; stroke: #000000"/>
     <use xlink:href="#m69bb2808dd" x="371.386506" y="199.636364" style="fill: #808080; stroke: #000000"/>
    </g>
   </g>
   <g id="patch_3">
    <path d="M 51.804688 208.8 
L 51.804688 7.2 
" style="fill: none; stroke: #000000; stroke-width: 0.8; stroke-linejoin: miter; stroke-linecap: square"/>
   </g>
   <g id="patch_4">
    <path d="M 386.604688 208.8 
L 386.604688 7.2 
" style="fill: none; stroke: #000000; stroke-width: 0.8; stroke-linejoin: miter; stroke-linecap: square"/>
   </g>
   <g id="patch_5">
    <path d="M 51.804688 208.8 
L 386.604688 208.8 
" style="fill: none; stroke: #000000; stroke-width: 0.8; stroke-linejoin: miter; stroke-linecap: square"/>
   </g>
   <g id="patch_6">
    <path d="M 51.804688 7.2 
L 386.604688 7.2 
" style="fill: none; stroke: #000000; stroke-width: 0.8; stroke-linejoin: miter; stroke-linecap: square"/>
   </g>
  </g>
  <g id="axes_2">
   <g id="patch_7">
    <path d="M 51.804688 450.72 
L 386.604688 450.72 
L 386.604688 249.12 
L 51.804688 249.12 
z
" style="fill: #ffffff"/>
   </g>
   <g id="matplotlib.axis_3">
    <g id="xtick_6">
     <g id="line2d_15">
      <g>
       <use xlink:href="#m43788d0506" x="115.696062" y="450.72" style="stroke: #000000; stroke-width: 0.8"/>
      </g>
     </g>
     <g id="text_16">
      <!-- $\mathdefault{10^{-1}}$ -->
      <g transform="translate(103.946062 465.318437) scale(0.1 -0.1)">
       <use xlink:href="#DejaVuSans-31" transform="translate(0 0.684375)"/>
       <use xlink:href="#DejaVuSans-30" transform="translate(63.623047 0.684375)"/>
       <use xlink:href="#DejaVuSans-2212" transform="translate(128.203125 38.965625) scale(0.7)"/>
       <use xlink:href="#DejaVuSans-31" transform="translate(186.855469 38.965625) scale(0.7)"/>
      </g>
     </g>
    </g>
    <g id="xtick_7">
     <g id="line2d_16">
      <g>
       <use xlink:href="#m43788d0506" x="179.618673" y="450.72" style="stroke: #000000; stroke-width: 0.8"/>
      </g>
     </g>
     <g id="text_17">
      <!-- $\mathdefault{10^{1}}$ -->
      <g transform="translate(170.818673 465.318437) scale(0.1 -0.1)">
       <use xlink:href="#DejaVuSans-31" transform="translate(0 0.684375)"/>
       <use xlink:href="#DejaVuSans-30" transform="translate(63.623047 0.684375)"/>
       <use xlink:href="#DejaVuSans-31" transform="translate(128.203125 38.965625) scale(0.7)"/>
      </g>
     </g>
    </g>
    <g id="xtick_8">
     <g id="line2d_17">
      <g>
       <use xlink:href="#m43788d0506" x="243.541284" y="450.72" style="stroke: #000000; stroke-width: 0.8"/>
      </g>
     </g>
     <g id="text_18">
      <!-- $\mathdefault{10^{3}}$ -->
      <g transform="translate(234.741284 465.318437) scale(0.1 -0.1)">
       <use xlink:href="#DejaVuSans-31" transform="translate(0 0.765625)"/>
       <use xlink:href="#DejaVuSans-30" transform="translate(63.623047 0.765625)"/>
       <use xlink:href="#DejaVuSans-33" transform="translate(128.203125 39.046875) scale(0.7)"/>
      </g>
     </g>
    </g>
    <g id="xtick_9">
     <g id="line2d_18">
      <g>
       <use xlink:href="#m43788d0506" x="307.463895" y="450.72" style="stroke: #000000; stroke-width: 0.8"/>
      </g>
     </g>
     <g id="text_19">
      <!-- $\mathdefault{10^{5}}$ -->
      <g transform="translate(298.663895 465.318437) scale(0.1 -0.1)">
       <use xlink:href="#DejaVuSans-31" transform="translate(0 0.684375)"/>
       <use xlink:href="#DejaVuSans-30" transform="translate(63.623047 0.684375)"/>
       <use xlink:href="#DejaVuSans-35" transform="translate(128.203125 38.965625) scale(0.7)"/>
      </g>
     </g>
    </g>
    <g id="xtick_10">
     <g id="line2d_19">
      <g>
       <use xlink:href="#m43788d0506" x="371.386506" y="450.72" style="stroke: #000000; stroke-width: 0.8"/>
      </g>
     </g>
     <g id="text_20">
      <!-- $\mathdefault{10^{7}}$ -->
      <g transform="translate(362.586506 465.318437) scale(0.1 -0.1)">
       <use xlink:href="#DejaVuSans-31" transform="translate(0 0.684375)"/>
       <use xlink:href="#DejaVuSans-30" transform="translate(63.623047 0.684375)"/>
       <use xlink:href="#DejaVuSans-37" transform="translate(128.203125 38.965625) scale(0.7)"/>
      </g>
     </g>
    </g>
    <g id="text_21">
     <!-- $ \it\nu \it$/Hz  -->
     <g transform="translate(200.604688 482.795781) scale(0.15 -0.15)">
      <use xlink:href="#DejaVuSans-Oblique-3bd" transform="translate(0 0.09375)"/>
      <use xlink:href="#DejaVuSans-2f" transform="translate(55.859375 0.09375)"/>
      <use xlink:href="#DejaVuSans-48" transform="translate(87.800781 0.09375)"/>
      <use xlink:href="#DejaVuSans-7a" transform="translate(162.996094 0.09375)"/>
      <use xlink:href="#DejaVuSans-20" transform="translate(215.486328 0.09375)"/>
     </g>
    </g>
   </g>
   <g id="matplotlib.axis_4">
    <g id="ytick_9">
     <g id="line2d_20">
      <g>
       <use xlink:href="#mc217101ed3" x="51.804688" y="426.377482" style="stroke: #000000; stroke-width: 0.8"/>
      </g>
     </g>
     <g id="text_22">
      <!-- 10 -->
      <g transform="translate(32.079687 430.176701) scale(0.1 -0.1)">
       <use xlink:href="#DejaVuSans-31"/>
       <use xlink:href="#DejaVuSans-30" transform="translate(63.623047 0)"/>
      </g>
     </g>
    </g>
    <g id="ytick_10">
     <g id="line2d_21">
      <g>
       <use xlink:href="#mc217101ed3" x="51.804688" y="400.949837" style="stroke: #000000; stroke-width: 0.8"/>
      </g>
     </g>
     <g id="text_23">
      <!-- 20 -->
      <g transform="translate(32.079687 404.749056) scale(0.1 -0.1)">
       <use xlink:href="#DejaVuSans-32"/>
       <use xlink:href="#DejaVuSans-30" transform="translate(63.623047 0)"/>
      </g>
     </g>
    </g>
    <g id="ytick_11">
     <g id="line2d_22">
      <g>
       <use xlink:href="#mc217101ed3" x="51.804688" y="375.522192" style="stroke: #000000; stroke-width: 0.8"/>
      </g>
     </g>
     <g id="text_24">
      <!-- 30 -->
      <g transform="translate(32.079687 379.321411) scale(0.1 -0.1)">
       <use xlink:href="#DejaVuSans-33"/>
       <use xlink:href="#DejaVuSans-30" transform="translate(63.623047 0)"/>
      </g>
     </g>
    </g>
    <g id="ytick_12">
     <g id="line2d_23">
      <g>
       <use xlink:href="#mc217101ed3" x="51.804688" y="350.094547" style="stroke: #000000; stroke-width: 0.8"/>
      </g>
     </g>
     <g id="text_25">
      <!-- 40 -->
      <g transform="translate(32.079687 353.893766) scale(0.1 -0.1)">
       <use xlink:href="#DejaVuSans-34"/>
       <use xlink:href="#DejaVuSans-30" transform="translate(63.623047 0)"/>
      </g>
     </g>
    </g>
    <g id="ytick_13">
     <g id="line2d_24">
      <g>
       <use xlink:href="#mc217101ed3" x="51.804688" y="324.666902" style="stroke: #000000; stroke-width: 0.8"/>
      </g>
     </g>
     <g id="text_26">
      <!-- 50 -->
      <g transform="translate(32.079687 328.466121) scale(0.1 -0.1)">
       <use xlink:href="#DejaVuSans-35"/>
       <use xlink:href="#DejaVuSans-30" transform="translate(63.623047 0)"/>
      </g>
     </g>
    </g>
    <g id="ytick_14">
     <g id="line2d_25">
      <g>
       <use xlink:href="#mc217101ed3" x="51.804688" y="299.239257" style="stroke: #000000; stroke-width: 0.8"/>
      </g>
     </g>
     <g id="text_27">
      <!-- 60 -->
      <g transform="translate(32.079687 303.038476) scale(0.1 -0.1)">
       <use xlink:href="#DejaVuSans-36"/>
       <use xlink:href="#DejaVuSans-30" transform="translate(63.623047 0)"/>
      </g>
     </g>
    </g>
    <g id="ytick_15">
     <g id="line2d_26">
      <g>
       <use xlink:href="#mc217101ed3" x="51.804688" y="273.811612" style="stroke: #000000; stroke-width: 0.8"/>
      </g>
     </g>
     <g id="text_28">
      <!-- 70 -->
      <g transform="translate(32.079687 277.610831) scale(0.1 -0.1)">
       <use xlink:href="#DejaVuSans-37"/>
       <use xlink:href="#DejaVuSans-30" transform="translate(63.623047 0)"/>
      </g>
     </g>
    </g>
    <g id="text_29">
     <!-- $-\phi_Z \,/\, ^{\circ}$ -->
     <g transform="translate(24.929687 373.545) rotate(-90) scale(0.15 -0.15)">
      <defs>
       <path id="DejaVuSans-Oblique-3d5" d="M 2991 4863 
L 2738 3572 
Q 3363 3572 3684 3094 
Q 4016 2606 3850 1747 
Q 3681 888 3159 400 
Q 2653 -78 2028 -78 
L 1784 -1331 
L 1213 -1331 
L 1456 -78 
Q 834 -78 509 400 
Q 178 888 347 1747 
Q 513 2606 1034 3094 
Q 1544 3572 2166 3572 
L 2419 4863 
L 2991 4863 
z
M 2128 434 
Q 2481 434 2784 756 
Q 3116 1116 3244 1747 
Q 3369 2372 3169 2738 
Q 2991 3059 2638 3059 
L 2128 434 
z
M 1556 434 
L 2066 3059 
Q 1716 3059 1413 2738 
Q 1072 2372 953 1747 
Q 834 1116 1028 756 
Q 1203 434 1556 434 
z
" transform="scale(0.015625)"/>
       <path id="DejaVuSans-2218" d="M 2000 2619 
Q 1750 2619 1578 2445 
Q 1406 2272 1406 2022 
Q 1406 1775 1578 1605 
Q 1750 1435 2000 1435 
Q 2250 1435 2422 1605 
Q 2594 1775 2594 2022 
Q 2594 2269 2420 2444 
Q 2247 2619 2000 2619 
z
M 2000 3022 
Q 2200 3022 2384 2945 
Q 2569 2869 2703 2725 
Q 2847 2585 2919 2406 
Q 2991 2228 2991 2022 
Q 2991 1610 2702 1324 
Q 2413 1038 1994 1038 
Q 1572 1038 1290 1319 
Q 1009 1600 1009 2022 
Q 1009 2441 1296 2731 
Q 1584 3022 2000 3022 
z
" transform="scale(0.015625)"/>
      </defs>
      <use xlink:href="#DejaVuSans-2212" transform="translate(0 0.015625)"/>
      <use xlink:href="#DejaVuSans-Oblique-3d5" transform="translate(83.789062 0.015625)"/>
      <use xlink:href="#DejaVuSans-Oblique-5a" transform="translate(149.755859 -16.390625) scale(0.7)"/>
      <use xlink:href="#DejaVuSans-2f" transform="translate(216.680012 0.015625)"/>
      <use xlink:href="#DejaVuSans-2218" transform="translate(267.564126 38.296875) scale(0.7)"/>
     </g>
    </g>
   </g>
   <g id="line2d_27">
    <g clip-path="url(#pce83aebbef)">
     <use xlink:href="#m69bb2808dd" x="67.022869" y="362.089404" style="fill: #808080; stroke: #000000"/>
     <use xlink:href="#m69bb2808dd" x="73.234372" y="375.967056" style="fill: #808080; stroke: #000000"/>
     <use xlink:href="#m69bb2808dd" x="79.445875" y="389.532276" style="fill: #808080; stroke: #000000"/>
     <use xlink:href="#m69bb2808dd" x="85.657378" y="401.952883" style="fill: #808080; stroke: #000000"/>
     <use xlink:href="#m69bb2808dd" x="91.86888" y="412.675104" style="fill: #808080; stroke: #000000"/>
     <use xlink:href="#m69bb2808dd" x="98.080383" y="421.476816" style="fill: #808080; stroke: #000000"/>
     <use xlink:href="#m69bb2808dd" x="104.291886" y="428.395723" style="fill: #808080; stroke: #000000"/>
     <use xlink:href="#m69bb2808dd" x="110.503389" y="433.613696" style="fill: #808080; stroke: #000000"/>
     <use xlink:href="#m69bb2808dd" x="116.714892" y="437.357672" style="fill: #808080; stroke: #000000"/>
     <use xlink:href="#m69bb2808dd" x="122.926394" y="439.836039" style="fill: #808080; stroke: #000000"/>
     <use xlink:href="#m69bb2808dd" x="129.137897" y="441.205332" style="fill: #808080; stroke: #000000"/>
     <use xlink:href="#m69bb2808dd" x="135.3494" y="441.556364" style="fill: #808080; stroke: #000000"/>
     <use xlink:href="#m69bb2808dd" x="141.560903" y="440.911935" style="fill: #808080; stroke: #000000"/>
     <use xlink:href="#m69bb2808dd" x="147.772405" y="439.233856" style="fill: #808080; stroke: #000000"/>
     <use xlink:href="#m69bb2808dd" x="153.983908" y="436.443604" style="fill: #808080; stroke: #000000"/>
     <use xlink:href="#m69bb2808dd" x="160.195411" y="432.468403" style="fill: #808080; stroke: #000000"/>
     <use xlink:href="#m69bb2808dd" x="166.406914" y="427.330121" style="fill: #808080; stroke: #000000"/>
     <use xlink:href="#m69bb2808dd" x="172.618417" y="421.286115" style="fill: #808080; stroke: #000000"/>
     <use xlink:href="#m69bb2808dd" x="178.829919" y="414.984334" style="fill: #808080; stroke: #000000"/>
     <use xlink:href="#m69bb2808dd" x="185.041422" y="409.501724" style="fill: #808080; stroke: #000000"/>
     <use xlink:href="#m69bb2808dd" x="191.252925" y="406.087608" style="fill: #808080; stroke: #000000"/>
     <use xlink:href="#m69bb2808dd" x="197.464428" y="405.61054" style="fill: #808080; stroke: #000000"/>
     <use xlink:href="#m69bb2808dd" x="203.675931" y="408.053454" style="fill: #808080; stroke: #000000"/>
     <use xlink:href="#m69bb2808dd" x="209.887433" y="412.480462" style="fill: #808080; stroke: #000000"/>
     <use xlink:href="#m69bb2808dd" x="216.098936" y="417.498158" style="fill: #808080; stroke: #000000"/>
     <use xlink:href="#m69bb2808dd" x="222.310439" y="421.804234" style="fill: #808080; stroke: #000000"/>
     <use xlink:href="#m69bb2808dd" x="228.521942" y="424.451226" style="fill: #808080; stroke: #000000"/>
     <use xlink:href="#m69bb2808dd" x="234.733444" y="424.800262" style="fill: #808080; stroke: #000000"/>
     <use xlink:href="#m69bb2808dd" x="240.944947" y="422.346983" style="fill: #808080; stroke: #000000"/>
     <use xlink:href="#m69bb2808dd" x="247.15645" y="416.580546" style="fill: #808080; stroke: #000000"/>
     <use xlink:href="#m69bb2808dd" x="253.367953" y="406.968813" style="fill: #808080; stroke: #000000"/>
     <use xlink:href="#m69bb2808dd" x="259.579456" y="393.14544" style="fill: #808080; stroke: #000000"/>
     <use xlink:href="#m69bb2808dd" x="265.790958" y="375.335873" style="fill: #808080; stroke: #000000"/>
     <use xlink:href="#m69bb2808dd" x="272.002461" y="354.821609" style="fill: #808080; stroke: #000000"/>
     <use xlink:href="#m69bb2808dd" x="278.213964" y="333.873332" style="fill: #808080; stroke: #000000"/>
     <use xlink:href="#m69bb2808dd" x="284.425467" y="314.844278" style="fill: #808080; stroke: #000000"/>
     <use xlink:href="#m69bb2808dd" x="290.63697" y="299.164906" style="fill: #808080; stroke: #000000"/>
     <use xlink:href="#m69bb2808dd" x="296.848472" y="287.124436" style="fill: #808080; stroke: #000000"/>
     <use xlink:href="#m69bb2808dd" x="303.059975" y="278.293324" style="fill: #808080; stroke: #000000"/>
     <use xlink:href="#m69bb2808dd" x="309.271478" y="271.99701" style="fill: #808080; stroke: #000000"/>
     <use xlink:href="#m69bb2808dd" x="315.482981" y="267.584787" style="fill: #808080; stroke: #000000"/>
     <use xlink:href="#m69bb2808dd" x="321.694483" y="264.526192" style="fill: #808080; stroke: #000000"/>
     <use xlink:href="#m69bb2808dd" x="327.905986" y="262.421427" style="fill: #808080; stroke: #000000"/>
     <use xlink:href="#m69bb2808dd" x="334.117489" y="260.981219" style="fill: #808080; stroke: #000000"/>
     <use xlink:href="#m69bb2808dd" x="340.328992" y="260.000936" style="fill: #808080; stroke: #000000"/>
     <use xlink:href="#m69bb2808dd" x="346.540495" y="259.337705" style="fill: #808080; stroke: #000000"/>
     <use xlink:href="#m69bb2808dd" x="352.751997" y="258.89256" style="fill: #808080; stroke: #000000"/>
     <use xlink:href="#m69bb2808dd" x="358.9635" y="258.597286" style="fill: #808080; stroke: #000000"/>
     <use xlink:href="#m69bb2808dd" x="365.175003" y="258.40502" style="fill: #808080; stroke: #000000"/>
     <use xlink:href="#m69bb2808dd" x="371.386506" y="258.283636" style="fill: #808080; stroke: #000000"/>
    </g>
   </g>
   <g id="patch_8">
    <path d="M 51.804688 450.72 
L 51.804688 249.12 
" style="fill: none; stroke: #000000; stroke-width: 0.8; stroke-linejoin: miter; stroke-linecap: square"/>
   </g>
   <g id="patch_9">
    <path d="M 386.604688 450.72 
L 386.604688 249.12 
" style="fill: none; stroke: #000000; stroke-width: 0.8; stroke-linejoin: miter; stroke-linecap: square"/>
   </g>
   <g id="patch_10">
    <path d="M 51.804688 450.72 
L 386.604688 450.72 
" style="fill: none; stroke: #000000; stroke-width: 0.8; stroke-linejoin: miter; stroke-linecap: square"/>
   </g>
   <g id="patch_11">
    <path d="M 51.804688 249.12 
L 386.604688 249.12 
" style="fill: none; stroke: #000000; stroke-width: 0.8; stroke-linejoin: miter; stroke-linecap: square"/>
   </g>
  </g>
 </g>
 <defs>
  <clipPath id="p697b5b88a5">
   <rect x="51.804688" y="7.2" width="334.8" height="201.6"/>
  </clipPath>
  <clipPath id="pce83aebbef">
   <rect x="51.804688" y="249.12" width="334.8" height="201.6"/>
  </clipPath>
 </defs>
</svg>
